  0
SECTION
  2
HEADER
  9
$ACADVER
  1
AC1027
  9
$ACADMAINTVER
 70
     8
  9
$DWGCODEPAGE
  3
ANSI_1251
  9
$REQUIREDVERSIONS
160
                 0
  9
$LASTSAVEDBY
  1
Autodesk
  9
$INSBASE
 10
0.0
 20
0.0
 30
0.0
  9
$EXTMIN
 10
47.179685
 20
91.013154
 30
0.0
  9
$EXTMAX
 10
104.179685
 20
109.713154
 30
0.0
  9
$LIMMIN
 10
0.0
 20
0.0
  9
$LIMMAX
 10
420.0
 20
297.0
  9
$ORTHOMODE
 70
     0
  9
$REGENMODE
 70
     1
  9
$FILLMODE
 70
     1
  9
$QTEXTMODE
 70
     0
  9
$MIRRTEXT
 70
     0
  9
$LTSCALE
 40
1.0
  9
$ATTMODE
 70
     1
  9
$TEXTSIZE
 40
2.5
  9
$TRACEWID
 40
1.0
  9
$TEXTSTYLE
  7
Standard
  9
$CLAYER
  8
0
  9
$CELTYPE
  6
ByLayer
  9
$CECOLOR
 62
   256
  9
$CELTSCALE
 40
1.0
  9
$DISPSILH
 70
     0
  9
$DIMSCALE
 40
1.0
  9
$DIMASZ
 40
2.5
  9
$DIMEXO
 40
0.5
  9
$DIMDLI
 40
6.0
  9
$DIMRND
 40
0.0
  9
$DIMDLE
 40
0.0
  9
$DIMEXE
 40
0.0
  9
$DIMTP
 40
0.0
  9
$DIMTM
 40
0.0
  9
$DIMTXT
 40
2.5
  9
$DIMCEN
 40
2.5
  9
$DIMTSZ
 40
0.0
  9
$DIMTOL
 70
     0
  9
$DIMLIM
 70
     0
  9
$DIMTIH
 70
     0
  9
$DIMTOH
 70
     1
  9
$DIMSE1
 70
     0
  9
$DIMSE2
 70
     0
  9
$DIMTAD
 70
     0
  9
$DIMZIN
 70
     0
  9
$DIMBLK
  1

  9
$DIMASO
 70
     1
  9
$DIMSHO
 70
     1
  9
$DIMPOST
  1

  9
$DIMAPOST
  1

  9
$DIMALT
 70
     0
  9
$DIMALTD
 70
     2
  9
$DIMALTF
 40
25.4
  9
$DIMLFAC
 40
1.0
  9
$DIMTOFL
 70
     0
  9
$DIMTVP
 40
0.0
  9
$DIMTIX
 70
     0
  9
$DIMSOXD
 70
     0
  9
$DIMSAH
 70
     0
  9
$DIMBLK1
  1

  9
$DIMBLK2
  1

  9
$DIMSTYLE
  2
Standard
  9
$DIMCLRD
 70
     0
  9
$DIMCLRE
 70
     0
  9
$DIMCLRT
 70
     0
  9
$DIMTFAC
 40
1.0
  9
$DIMGAP
 40
1.0
  9
$DIMJUST
 70
     0
  9
$DIMSD1
 70
     0
  9
$DIMSD2
 70
     0
  9
$DIMTOLJ
 70
     1
  9
$DIMTZIN
 70
     0
  9
$DIMALTZ
 70
     0
  9
$DIMALTTZ
 70
     0
  9
$DIMUPT
 70
     0
  9
$DIMDEC
 70
     4
  9
$DIMTDEC
 70
     4
  9
$DIMALTU
 70
     2
  9
$DIMALTTD
 70
     2
  9
$DIMTXSTY
  7
Standard
  9
$DIMAUNIT
 70
     0
  9
$DIMADEC
 70
     0
  9
$DIMALTRND
 40
0.0
  9
$DIMAZIN
 70
     0
  9
$DIMDSEP
 70
    46
  9
$DIMATFIT
 70
     3
  9
$DIMFRAC
 70
     0
  9
$DIMLDRBLK
  1

  9
$DIMLUNIT
 70
     2
  9
$DIMLWD
 70
    -2
  9
$DIMLWE
 70
    -2
  9
$DIMTMOVE
 70
     0
  9
$DIMFXL
 40
1.0
  9
$DIMFXLON
 70
     0
  9
$DIMJOGANG
 40
0.785398
  9
$DIMTFILL
 70
     0
  9
$DIMTFILLCLR
 70
     0
  9
$DIMARCSYM
 70
     0
  9
$DIMLTYPE
  6
ByLayer
  9
$DIMLTEX1
  6
ByLayer
  9
$DIMLTEX2
  6
ByLayer
  9
$DIMTXTDIRECTION
 70
     0
  9
$LUNITS
 70
     2
  9
$LUPREC
 70
     4
  9
$SKETCHINC
 40
1.0
  9
$FILLETRAD
 40
0.0
  9
$AUNITS
 70
     0
  9
$AUPREC
 70
     0
  9
$MENU
  1
.
  9
$ELEVATION
 40
0.0
  9
$PELEVATION
 40
0.0
  9
$THICKNESS
 40
0.0
  9
$LIMCHECK
 70
     0
  9
$CHAMFERA
 40
0.0
  9
$CHAMFERB
 40
0.0
  9
$CHAMFERC
 40
0.0
  9
$CHAMFERD
 40
0.0
  9
$SKPOLY
 70
     0
  9
$TDCREATE
 40
2454082.78338338
  9
$TDUCREATE
 40
2454082.90838338
  9
$TDUPDATE
 40
2461176.543430567
  9
$TDUUPDATE
 40
2461176.668430567
  9
$TDINDWG
 40
0.0105753588
  9
$TDUSRTIMER
 40
0.0105751736
  9
$USRTIMER
 70
     1
  9
$ANGBASE
 50
0.0
  9
$ANGDIR
 70
     0
  9
$PDMODE
 70
     0
  9
$PDSIZE
 40
0.0
  9
$PLINEWID
 40
0.0
  9
$SPLFRAME
 70
     0
  9
$SPLINETYPE
 70
     6
  9
$SPLINESEGS
 70
     8
  9
$HANDSEED
  5
4E4
  9
$SURFTAB1
 70
     6
  9
$SURFTAB2
 70
     6
  9
$SURFTYPE
 70
     6
  9
$SURFU
 70
     6
  9
$SURFV
 70
     6
  9
$UCSBASE
  2

  9
$UCSNAME
  2

  9
$UCSORG
 10
0.0
 20
0.0
 30
0.0
  9
$UCSXDIR
 10
1.0
 20
0.0
 30
0.0
  9
$UCSYDIR
 10
0.0
 20
1.0
 30
0.0
  9
$UCSORTHOREF
  2

  9
$UCSORTHOVIEW
 70
     0
  9
$UCSORGTOP
 10
0.0
 20
0.0
 30
0.0
  9
$UCSORGBOTTOM
 10
0.0
 20
0.0
 30
0.0
  9
$UCSORGLEFT
 10
0.0
 20
0.0
 30
0.0
  9
$UCSORGRIGHT
 10
0.0
 20
0.0
 30
0.0
  9
$UCSORGFRONT
 10
0.0
 20
0.0
 30
0.0
  9
$UCSORGBACK
 10
0.0
 20
0.0
 30
0.0
  9
$PUCSBASE
  2

  9
$PUCSNAME
  2

  9
$PUCSORG
 10
0.0
 20
0.0
 30
0.0
  9
$PUCSXDIR
 10
1.0
 20
0.0
 30
0.0
  9
$PUCSYDIR
 10
0.0
 20
1.0
 30
0.0
  9
$PUCSORTHOREF
  2

  9
$PUCSORTHOVIEW
 70
     0
  9
$PUCSORGTOP
 10
0.0
 20
0.0
 30
0.0
  9
$PUCSORGBOTTOM
 10
0.0
 20
0.0
 30
0.0
  9
$PUCSORGLEFT
 10
0.0
 20
0.0
 30
0.0
  9
$PUCSORGRIGHT
 10
0.0
 20
0.0
 30
0.0
  9
$PUCSORGFRONT
 10
0.0
 20
0.0
 30
0.0
  9
$PUCSORGBACK
 10
0.0
 20
0.0
 30
0.0
  9
$USERI1
 70
     0
  9
$USERI2
 70
     0
  9
$USERI3
 70
     0
  9
$USERI4
 70
     0
  9
$USERI5
 70
     0
  9
$USERR1
 40
0.0
  9
$USERR2
 40
0.0
  9
$USERR3
 40
0.0
  9
$USERR4
 40
0.0
  9
$USERR5
 40
0.0
  9
$WORLDVIEW
 70
     1
  9
$SHADEDGE
 70
     3
  9
$SHADEDIF
 70
    70
  9
$TILEMODE
 70
     1
  9
$MAXACTVP
 70
    64
  9
$PINSBASE
 10
0.0
 20
0.0
 30
0.0
  9
$PLIMCHECK
 70
     0
  9
$PEXTMIN
 10
0.0
 20
0.0
 30
0.0
  9
$PEXTMAX
 10
0.0
 20
0.0
 30
0.0
  9
$PLIMMIN
 10
-20.0
 20
-7.5
  9
$PLIMMAX
 10
277.0
 20
202.5
  9
$UNITMODE
 70
     0
  9
$VISRETAIN
 70
     1
  9
$PLINEGEN
 70
     0
  9
$PSLTSCALE
 70
     0
  9
$TREEDEPTH
 70
  3020
  9
$CMLSTYLE
  2
Standard
  9
$CMLJUST
 70
     0
  9
$CMLSCALE
 40
20.0
  9
$PROXYGRAPHICS
 70
     1
  9
$MEASUREMENT
 70
     1
  9
$CELWEIGHT
370
    -1
  9
$ENDCAPS
280
     0
  9
$JOINSTYLE
280
     0
  9
$LWDISPLAY
290
     1
  9
$INSUNITS
 70
     4
  9
$HYPERLINKBASE
  1

  9
$STYLESHEET
  1

  9
$XEDIT
290
     1
  9
$CEPSNTYPE
380
     0
  9
$PSTYLEMODE
290
     1
  9
$FINGERPRINTGUID
  2
{78B0F746-B111-4909-95E5-2EF5CBA97683}
  9
$VERSIONGUID
  2
{88884FFE-1838-4093-901C-E4DA6EFB818F}
  9
$EXTNAMES
290
     1
  9
$PSVPSCALE
 40
0.0
  9
$OLESTARTUP
290
     0
  9
$SORTENTS
280
   127
  9
$INDEXCTL
280
     0
  9
$HIDETEXT
280
     1
  9
$XCLIPFRAME
280
     0
  9
$HALOGAP
280
     0
  9
$OBSCOLOR
 70
   257
  9
$OBSLTYPE
280
     0
  9
$INTERSECTIONDISPLAY
280
     0
  9
$INTERSECTIONCOLOR
 70
   257
  9
$DIMASSOC
280
     2
  9
$PROJECTNAME
  1

  9
$CAMERADISPLAY
290
     0
  9
$LENSLENGTH
 40
50.0
  9
$CAMERAHEIGHT
 40
0.0
  9
$STEPSPERSEC
 40
2.0
  9
$STEPSIZE
 40
6.0
  9
$3DDWFPREC
 40
2.0
  9
$PSOLWIDTH
 40
5.0
  9
$PSOLHEIGHT
 40
80.0
  9
$LOFTANG1
 40
1.570796
  9
$LOFTANG2
 40
1.570796
  9
$LOFTMAG1
 40
0.0
  9
$LOFTMAG2
 40
0.0
  9
$LOFTPARAM
 70
     7
  9
$LOFTNORMALS
280
     1
  9
$LATITUDE
 40
37.795
  9
$LONGITUDE
 40
-122.394
  9
$NORTHDIRECTION
 40
0.0
  9
$TIMEZONE
 70
 -8000
  9
$LIGHTGLYPHDISPLAY
280
     1
  9
$TILEMODELIGHTSYNCH
280
     1
  9
$CMATERIAL
347
EC
  9
$SOLIDHIST
280
     1
  9
$SHOWHIST
280
     1
  9
$DWFFRAME
280
     2
  9
$DGNFRAME
280
     0
  9
$REALWORLDSCALE
290
     1
  9
$INTERFERECOLOR
 62
     1
  9
$CSHADOW
280
     0
  9
$SHADOWPLANELOCATION
 40
0.0
  0
ENDSEC
  0
SECTION
  2
CLASSES
  0
CLASS
  1
ACDBDICTIONARYWDFLT
  2
AcDbDictionaryWithDefault
  3
ObjectDBX Classes
 90
        0
 91
       11
280
     0
281
     0
  0
CLASS
  1
ACDBPLACEHOLDER
  2
AcDbPlaceHolder
  3
ObjectDBX Classes
 90
        0
 91
        1
280
     0
281
     0
  0
CLASS
  1
LAYOUT
  2
AcDbLayout
  3
ObjectDBX Classes
 90
        0
 91
        1
280
     0
281
     0
  0
CLASS
  1
DICTIONARYVAR
  2
AcDbDictionaryVar
  3
ObjectDBX Classes
 90
        0
 91
        7
280
     0
281
     0
  0
CLASS
  1
TABLESTYLE
  2
AcDbTableStyle
  3
ObjectDBX Classes
 90
     4095
 91
        7
280
     0
281
     0
  0
CLASS
  1
MATERIAL
  2
AcDbMaterial
  3
ObjectDBX Classes
 90
     1153
 91
       10
280
     0
281
     0
  0
CLASS
  1
VISUALSTYLE
  2
AcDbVisualStyle
  3
ObjectDBX Classes
 90
     4095
 91
        9
280
     0
281
     0
  0
CLASS
  1
SCALE
  2
AcDbScale
  3
ObjectDBX Classes
 90
     1153
 91
       10
280
     0
281
     0
  0
CLASS
  1
MLEADERSTYLE
  2
AcDbMLeaderStyle
  3
ACDB_MLEADERSTYLE_CLASS
 90
     4095
 91
        6
280
     0
281
     0
  0
CLASS
  1
CELLSTYLEMAP
  2
AcDbCellStyleMap
  3
ObjectDBX Classes
 90
     1152
 91
        6
280
     0
281
     0
  0
CLASS
  1
EXACXREFPANELOBJECT
  2
ExAcXREFPanelObject
  3
EXAC_ESW
 90
     1025
 91
        1
280
     1
281
     0
  0
CLASS
  1
NPOCOLLECTION
  2
AcDbImpNonPersistentObjectsCollection
  3
ObjectDBX Classes
 90
     1153
 91
        1
280
     1
281
     0
  0
CLASS
  1
LAYER_INDEX
  2
AcDbLayerIndex
  3
ObjectDBX Classes
 90
        0
 91
        6
280
     0
281
     0
  0
CLASS
  1
SPATIAL_INDEX
  2
AcDbSpatialIndex
  3
AutoCAD 2000
 90
        0
 91
        6
280
     0
281
     0
  0
CLASS
  1
IDBUFFER
  2
AcDbIdBuffer
  3
ObjectDBX Classes
 90
        0
 91
        6
280
     0
281
     0
  0
CLASS
  1
Wall
  2
PtDbWall
  3
NanoSPDS
 90
      893
 91
        1
280
     1
281
     1
  0
CLASS
  1
SORTENTSTABLE
  2
AcDbSortentsTable
  3
ObjectDBX Classes
 90
        0
 91
        7
280
     0
281
     0
  0
CLASS
  1
Format
  2
mcsDbObjectFormat
  3
NanoSPDS
 90
      893
 91
        1
280
     1
281
     1
  0
CLASS
  1
NOTEPOSITION
  2
mcsDbObjectNotePosition
  3
NanoSPDS
 90
      893
 91
        5
280
     0
281
     1
  0
CLASS
  1
mcsDbObject
  2
mcsDbObject
  3
NanoSPDS
 90
      893
 91
       22
280
     0
281
     1
  0
CLASS
  1
McDbContainer2
  2
McDbContainer2
  3
NanoSPDS
 90
      893
 91
        5
280
     0
281
     0
  0
CLASS
  1
spdsLevelMark
  2
mcsDbObjectLevelMark
  3
NanoSPDS
 90
      893
 91
        1
280
     1
281
     1
  0
CLASS
  1
spdsRelationMark
  2
mcsDbObjectRelationMark
  3
NanoSPDS
 90
      893
 91
        1
280
     1
281
     1
  0
CLASS
  1
LAYOUTPRINTCONFIG
  2
CAcLayoutPrintConfig
  3
"CSD_APP"
 90
     4095
 91
        6
280
     0
281
     1
  0
CLASS
  1
SUN
  2
AcDbSun
  3
SCENEOE
 90
     1153
 91
       10
280
     0
281
     0
  0
ENDSEC
  0
SECTION
  2
TABLES
  0
TABLE
  2
VPORT
  5
8
330
0
100
AcDbSymbolTable
 70
     1
  0
VPORT
  5
EA
330
8
100
AcDbSymbolTableRecord
100
AcDbViewportTableRecord
  2
*Active
 70
     0
 10
0.0
 20
0.0
 11
1.0
 21
1.0
 12
-134.320315
 22
-48.136846
 13
0.0
 23
0.0
 14
10.0
 24
10.0
 15
10.0
 25
10.0
 16
0.0
 26
0.0
 36
1.0
 17
210.0
 27
148.5
 37
0.0
 40
24.83161
 41
2.341371
 42
50.0
 43
0.0
 44
0.0
 50
0.0
 51
0.0
 71
    16
 72
  1000
 73
     1
 74
     3
 75
     0
 76
     0
 77
     0
 78
     0
281
     0
 65
     1
110
0.0
120
0.0
130
0.0
111
1.0
121
0.0
131
0.0
112
0.0
122
1.0
132
0.0
 79
     0
146
0.0
 60
     2
 61
     5
292
     1
282
     1
141
0.0
142
0.0
 63
   250
421
  3355443
361
364
  0
ENDTAB
  0
TABLE
  2
LTYPE
  5
5
330
0
100
AcDbSymbolTable
 70
     2
  0
LTYPE
  5
14
330
5
100
AcDbSymbolTableRecord
100
AcDbLinetypeTableRecord
  2
ByBlock
 70
     0
  3

 72
    65
 73
     0
 40
0.0
  0
LTYPE
  5
15
330
5
100
AcDbSymbolTableRecord
100
AcDbLinetypeTableRecord
  2
ByLayer
 70
     0
  3

 72
    65
 73
     0
 40
0.0
  0
LTYPE
  5
16
330
5
100
AcDbSymbolTableRecord
100
AcDbLinetypeTableRecord
  2
Continuous
 70
     0
  3
Solid line
 72
    65
 73
     0
 40
0.0
  0
LTYPE
  5
36C
330
5
100
AcDbSymbolTableRecord
100
AcDbLinetypeTableRecord
  2
ACAD_ISO03W100
 70
     0
  3
ISO dash space __    __    __    __    __    __
 72
    65
 73
     2
 40
30.0
 49
12.0
 74
     0
 49
-18.0
 74
     0
  0
ENDTAB
  0
TABLE
  2
LAYER
  5
2
102
{ACAD_XDICTIONARY
360
4DC
102
}
330
0
100
AcDbSymbolTable
 70
     8
  0
LAYER
  5
10
330
2
100
AcDbSymbolTableRecord
100
AcDbLayerTableRecord
  2
0
 70
     0
 62
     7
  6
Continuous
370
    -3
390
F
347
EE
348
0
  0
LAYER
  5
22D
330
2
100
AcDbSymbolTableRecord
100
AcDbLayerTableRecord
  2
Defpoints
 70
     0
 62
     7
  6
Continuous
290
     0
370
    -3
390
F
347
EE
348
0
  0
LAYER
  5
366
330
2
100
AcDbSymbolTableRecord
100
AcDbLayerTableRecord
  2
000 - MUROS
 70
     0
 62
     7
  6
Continuous
370
    20
390
F
347
EE
348
0
1001
AcAecLayerStandard
1000

1000

1001
AcCmTransparency
1071
        0
  0
LAYER
  5
36A
330
2
100
AcDbSymbolTableRecord
100
AcDbLayerTableRecord
  2
000 - DURLOCK
 70
     0
 62
    30
  6
Continuous
370
     9
390
F
347
EE
348
0
1001
AcAecLayerStandard
1000

1000

1001
AcCmTransparency
1071
        0
  0
LAYER
  5
36B
330
2
100
AcDbSymbolTableRecord
100
AcDbLayerTableRecord
  2
000 - PUERTAS
 70
     0
 62
   252
  6
ACAD_ISO03W100
370
    -3
390
F
347
EE
348
0
1001
AcAecLayerStandard
1000

1000

1001
AcCmTransparency
1071
        0
  0
LAYER
  5
36D
330
2
100
AcDbSymbolTableRecord
100
AcDbLayerTableRecord
  2
000 - ASCENSOR
 70
     0
 62
   253
  6
Continuous
370
    -3
390
F
347
EE
348
0
1001
AcAecLayerStandard
1000

1000

1001
AcCmTransparency
1071
        0
  0
LAYER
  5
36E
330
2
100
AcDbSymbolTableRecord
100
AcDbLayerTableRecord
  2
000 - REJAS
 70
     0
 62
     3
  6
ACAD_ISO03W100
370
    -3
390
F
347
EE
348
0
1001
AcAecLayerStandard
1000

1000

1001
AcCmTransparency
1071
        0
  0
LAYER
  5
36F
330
2
100
AcDbSymbolTableRecord
100
AcDbLayerTableRecord
  2
000 - MARCOS
 70
     0
 62
   240
  6
Continuous
370
    -3
390
F
347
EE
348
0
1001
AcAecLayerStandard
1000

1000

1001
AcCmTransparency
1071
        0
  0
ENDTAB
  0
TABLE
  2
STYLE
  5
3
330
0
100
AcDbSymbolTable
 70
     3
  0
STYLE
  5
11
330
3
100
AcDbSymbolTableRecord
100
AcDbTextStyleTableRecord
  2
Standard
 70
     0
 40
0.0
 41
1.0
 50
0.0
 71
     0
 42
2.5
  3
txt.shx
  4

  0
STYLE
  5
1E3
330
3
100
AcDbSymbolTableRecord
100
AcDbTextStyleTableRecord
  2

 70
     1
 40
0.0
 41
1.0
 50
0.0
 71
     0
 42
0.2
  3
GOST 2.303-68.shx
  4

  0
ENDTAB
  0
TABLE
  2
VIEW
  5
6
330
0
100
AcDbSymbolTable
 70
     0
  0
ENDTAB
  0
TABLE
  2
UCS
  5
7
330
0
100
AcDbSymbolTable
 70
     0
  0
ENDTAB
  0
TABLE
  2
APPID
  5
9
330
0
100
AcDbSymbolTable
 70
    18
  0
APPID
  5
12
330
9
100
AcDbSymbolTableRecord
100
AcDbRegAppTableRecord
  2
ACAD
 70
     0
  0
APPID
  5
9E
330
9
100
AcDbSymbolTableRecord
100
AcDbRegAppTableRecord
  2
ACAD_PSEXT
 70
     0
  0
APPID
  5
133
330
9
100
AcDbSymbolTableRecord
100
AcDbRegAppTableRecord
  2
AcadAnnoPO
 70
     0
  0
APPID
  5
134
330
9
100
AcDbSymbolTableRecord
100
AcDbRegAppTableRecord
  2
AcadAnnotative
 70
     0
  0
APPID
  5
135
330
9
100
AcDbSymbolTableRecord
100
AcDbRegAppTableRecord
  2
ACAD_DSTYLE_DIMJAG
 70
     0
  0
APPID
  5
136
330
9
100
AcDbSymbolTableRecord
100
AcDbRegAppTableRecord
  2
ACAD_DSTYLE_DIMTALN
 70
     0
  0
APPID
  5
165
330
9
100
AcDbSymbolTableRecord
100
AcDbRegAppTableRecord
  2
ACAD_MLEADERVER
 70
     0
  0
APPID
  5
1E1
330
9
100
AcDbSymbolTableRecord
100
AcDbRegAppTableRecord
  2
MCS_DIM1
 70
     0
  0
APPID
  5
1E2
330
9
100
AcDbSymbolTableRecord
100
AcDbRegAppTableRecord
  2
McsXdata5
 70
     0
  0
APPID
  5
209
330
9
100
AcDbSymbolTableRecord
100
AcDbRegAppTableRecord
  2
MCS_PARAMS_DATA
 70
     0
  0
APPID
  5
20C
330
9
100
AcDbSymbolTableRecord
100
AcDbRegAppTableRecord
  2
MCS_PARAMS_HIDDEN_DATA
 70
     0
  0
APPID
  5
34D
330
9
100
AcDbSymbolTableRecord
100
AcDbRegAppTableRecord
  2
MCS_DOCUMENT_ID
 70
     0
  0
APPID
  5
353
330
9
100
AcDbSymbolTableRecord
100
AcDbRegAppTableRecord
  2
McSubentIdentification
 70
     0
  0
APPID
  5
355
330
9
100
AcDbSymbolTableRecord
100
AcDbRegAppTableRecord
  2
MC_VERSION_DATA
 70
     0
  0
APPID
  5
368
330
9
100
AcDbSymbolTableRecord
100
AcDbRegAppTableRecord
  2
AcAecLayerStandard
 70
     0
  0
APPID
  5
369
330
9
100
AcDbSymbolTableRecord
100
AcDbRegAppTableRecord
  2
AcCmTransparency
 70
     0
  0
APPID
  5
373
330
9
100
AcDbSymbolTableRecord
100
AcDbRegAppTableRecord
  2
GradientColor1ACI
 70
     0
  0
APPID
  5
374
330
9
100
AcDbSymbolTableRecord
100
AcDbRegAppTableRecord
  2
GradientColor2ACI
 70
     0
  0
ENDTAB
  0
TABLE
  2
DIMSTYLE
  5
A
330
0
100
AcDbSymbolTable
 70
     1
100
AcDbDimStyleTable
  0
DIMSTYLE
105
1B0
330
A
100
AcDbSymbolTableRecord
100
AcDbDimStyleTableRecord
  2
Standard
 70
     0
 40
100.0
 41
2.5
 42
0.5
 43
6.0
 44
0.0
 50
45.000001
 73
     0
140
2.5
141
2.5
143
25.4
147
1.0
178
     0
340
11
345
15
346
15
347
15
  0
ENDTAB
  0
TABLE
  2
BLOCK_RECORD
  5
1
330
0
100
AcDbSymbolTable
 70
    11
  0
BLOCK_RECORD
  5
1F
102
{ACAD_XDICTIONARY
360
234
102
}
330
1
100
AcDbSymbolTableRecord
100
AcDbBlockTableRecord
  2
*Model_Space
340
22
 70
     0
280
     1
281
     0
  0
BLOCK_RECORD
  5
D6
330
1
100
AcDbSymbolTableRecord
100
AcDbBlockTableRecord
  2
*Paper_Space
340
D7
 70
     0
280
     1
281
     0
  0
BLOCK_RECORD
  5
21A
330
1
100
AcDbSymbolTableRecord
100
AcDbBlockTableRecord
  2
*Paper_Space0
340
21B
 70
     0
280
     1
281
     0
  0
BLOCK_RECORD
  5
1EC
330
1
100
AcDbSymbolTableRecord
100
AcDbBlockTableRecord
  2
_ARCHTICK
340
0
 70
     0
280
     1
281
     0
  0
BLOCK_RECORD
  5
1F4
330
1
100
AcDbSymbolTableRecord
100
AcDbBlockTableRecord
  2
_OPEN30
340
0
 70
     0
280
     1
281
     0
  0
BLOCK_RECORD
  5
1FC
330
1
100
AcDbSymbolTableRecord
100
AcDbBlockTableRecord
  2
_DOT
340
0
 70
     0
280
     1
281
     0
  0
BLOCK_RECORD
  5
224
330
1
100
AcDbSymbolTableRecord
100
AcDbBlockTableRecord
  2
*Paper_Space4
340
225
 70
     0
280
     1
281
     0
  0
BLOCK_RECORD
  5
D2
330
1
100
AcDbSymbolTableRecord
100
AcDbBlockTableRecord
  2
*Paper_Space5
340
D3
 70
     0
280
     1
281
     0
  0
BLOCK_RECORD
  5
21F
330
1
100
AcDbSymbolTableRecord
100
AcDbBlockTableRecord
  2
*Paper_Space6
340
220
 70
     0
280
     1
281
     0
  0
BLOCK_RECORD
  5
210
330
1
100
AcDbSymbolTableRecord
100
AcDbBlockTableRecord
  2
*Paper_Space7
340
211
 70
     0
280
     1
281
     0
  0
BLOCK_RECORD
  5
215
330
1
100
AcDbSymbolTableRecord
100
AcDbBlockTableRecord
  2
*Paper_Space8
340
216
 70
     0
280
     1
281
     0
  0
BLOCK_RECORD
  5
3EA
330
1
100
AcDbSymbolTableRecord
100
AcDbBlockTableRecord
  2
000 - PUERTA 070
340
0
310
28000000200000002000000001002000000000000010000001000000010000000000000000000000302821FF302821FF302821FF302821FF302821FF302821FF302821FF302821FF302821FF302821FF302821FF302821FF302821FF302821FF302821FF302821FF302821FF302821FF302821FF302821FF302821FF302821
310
FF302821FF302821FF302821FF302821FF302821FF302821FF302821FF302821FF302821FF302821FF302821FF302821FF302821FF302821FF302821FF302821FF302821FF302821FF302821FF302821FF302821FF302821FF302821FF302821FF302821FF302821FF302821FF302821FF302821FF302821FF302821FF3028
310
21FF302821FF302821FF302821FF302821FF666666FF666666FF666666FF666666FF666666FF302821FF302821FF302821FF302821FF302821FF302821FF302821FF302821FF302821FF302821FF302821FF302821FF302821FF302821FF302821FF302821FF302821FF302821FF302821FF302821FF302821FF302821FF30
310
2821FF666666FF666666FF666666FF666666FF302821FF302821FF666666FF302821FF666666FF302821FF302821FF302821FF302821FF302821FF302821FF302821FF302821FF302821FF302821FF302821FF302821FF302821FF302821FF302821FF302821FF302821FF302821FF302821FF302821FF302821FF666666FF
310
666666FF302821FF302821FF302821FF302821FF302821FF302821FF666666FF302821FF666666FF302821FF302821FF302821FF302821FF302821FF302821FF302821FF302821FF302821FF302821FF302821FF302821FF302821FF302821FF302821FF302821FF302821FF302821FF666666FF666666FF666666FF302821
310
FF302821FF302821FF302821FF302821FF302821FF302821FF302821FF666666FF302821FF666666FF302821FF302821FF302821FF302821FF302821FF302821FF302821FF302821FF302821FF302821FF302821FF302821FF302821FF302821FF302821FF302821FF666666FF666666FF302821FF302821FF302821FF3028
310
21FF302821FF302821FF302821FF302821FF302821FF302821FF302821FF666666FF302821FF666666FF302821FF302821FF302821FF302821FF302821FF302821FF302821FF302821FF302821FF302821FF302821FF302821FF302821FF302821FF302821FF666666FF302821FF302821FF302821FF302821FF302821FF30
310
2821FF302821FF302821FF302821FF302821FF302821FF302821FF302821FF666666FF302821FF666666FF302821FF302821FF302821FF302821FF302821FF302821FF302821FF302821FF302821FF302821FF302821FF302821FF302821FF302821FF666666FF302821FF302821FF302821FF302821FF302821FF302821FF
310
302821FF302821FF302821FF302821FF302821FF302821FF302821FF302821FF666666FF302821FF666666FF302821FF302821FF302821FF302821FF302821FF302821FF302821FF302821FF302821FF302821FF302821FF302821FF302821FF666666FF302821FF302821FF302821FF302821FF302821FF302821FF302821
310
FF302821FF302821FF302821FF302821FF302821FF302821FF302821FF302821FF666666FF302821FF666666FF302821FF302821FF302821FF302821FF302821FF302821FF302821FF302821FF302821FF302821FF302821FF302821FF666666FF302821FF302821FF302821FF302821FF302821FF302821FF302821FF3028
310
21FF302821FF302821FF302821FF302821FF302821FF302821FF302821FF302821FF666666FF302821FF666666FF302821FF302821FF302821FF302821FF302821FF302821FF302821FF302821FF302821FF302821FF666666FF666666FF302821FF302821FF302821FF302821FF302821FF302821FF302821FF302821FF30
310
2821FF302821FF302821FF302821FF302821FF302821FF302821FF302821FF302821FF666666FF302821FF666666FF302821FF302821FF302821FF302821FF302821FF302821FF302821FF302821FF302821FF666666FF302821FF302821FF302821FF302821FF302821FF302821FF302821FF302821FF302821FF302821FF
310
302821FF302821FF302821FF302821FF302821FF302821FF302821FF302821FF302821FF666666FF302821FF666666FF302821FF302821FF302821FF302821FF302821FF302821FF302821FF302821FF666666FF302821FF302821FF302821FF302821FF302821FF302821FF302821FF302821FF302821FF302821FF302821
310
FF302821FF302821FF302821FF302821FF302821FF302821FF302821FF302821FF302821FF666666FF302821FF666666FF302821FF302821FF302821FF302821FF302821FF302821FF302821FF302821FF666666FF302821FF302821FF302821FF302821FF302821FF302821FF302821FF302821FF302821FF302821FF3028
310
21FF302821FF302821FF302821FF302821FF302821FF302821FF302821FF302821FF302821FF666666FF302821FF666666FF302821FF302821FF302821FF302821FF302821FF302821FF302821FF666666FF302821FF302821FF302821FF302821FF302821FF302821FF302821FF302821FF302821FF302821FF302821FF30
310
2821FF302821FF302821FF302821FF302821FF302821FF302821FF302821FF302821FF302821FF666666FF302821FF666666FF302821FF302821FF302821FF302821FF302821FF302821FF302821FF666666FF302821FF302821FF302821FF302821FF302821FF302821FF302821FF302821FF302821FF302821FF302821FF
310
302821FF302821FF302821FF302821FF302821FF302821FF302821FF302821FF302821FF302821FF666666FF302821FF666666FF302821FF302821FF302821FF302821FF302821FF302821FF666666FF302821FF302821FF302821FF302821FF302821FF302821FF302821FF302821FF302821FF302821FF302821FF302821
310
FF302821FF302821FF302821FF302821FF302821FF302821FF302821FF302821FF302821FF302821FF666666FF302821FF666666FF302821FF302821FF302821FF302821FF302821FF302821FF666666FF302821FF302821FF302821FF302821FF302821FF302821FF302821FF302821FF302821FF302821FF302821FF3028
310
21FF302821FF302821FF302821FF302821FF302821FF302821FF302821FF302821FF302821FF302821FF666666FF302821FF666666FF302821FF302821FF302821FF302821FF302821FF666666FF302821FF302821FF302821FF302821FF302821FF302821FF302821FF302821FF302821FF302821FF302821FF302821FF30
310
2821FF302821FF302821FF302821FF302821FF302821FF302821FF302821FF302821FF302821FF302821FF666666FF302821FF666666FF302821FF302821FF302821FF302821FF302821FF666666FF302821FF302821FF302821FF302821FF302821FF302821FF302821FF302821FF302821FF302821FF302821FF302821FF
310
302821FF302821FF302821FF302821FF302821FF302821FF302821FF302821FF302821FF302821FF302821FF666666FF302821FF666666FF302821FF302821FF302821FF302821FF666666FF302821FF302821FF302821FF302821FF302821FF302821FF302821FF302821FF302821FF302821FF302821FF302821FF302821
310
FF302821FF302821FF302821FF302821FF302821FF302821FF302821FF302821FF302821FF302821FF302821FF666666FF302821FF666666FF302821FF302821FF302821FF302821FF666666FF302821FF302821FF302821FF302821FF302821FF302821FF302821FF302821FF302821FF302821FF302821FF302821FF3028
310
21FF302821FF302821FF302821FF302821FF302821FF302821FF302821FF302821FF302821FF302821FF302821FF666666FF302821FF666666FF302821FF302821FF302821FF302821FF666666FF302821FF302821FF302821FF302821FF302821FF302821FF302821FF302821FF302821FF302821FF302821FF302821FF30
310
2821FF302821FF302821FF302821FF302821FF302821FF302821FF302821FF302821FF302821FF302821FF302821FF666666FF302821FF666666FF302821FF302821FF302821FF666666FF302821FF302821FF302821FF302821FF302821FF302821FF302821FF302821FF302821FF302821FF302821FF302821FF302821FF
310
302821FF302821FF302821FF302821FF302821FF302821FF302821FF302821FF302821FF302821FF302821FF302821FF666666FF302821FF666666FF302821FF302821FF302821FF666666FF302821FF302821FF302821FF302821FF302821FF302821FF302821FF302821FF302821FF302821FF302821FF302821FF302821
310
FF302821FF302821FF302821FF302821FF302821FF302821FF302821FF302821FF302821FF302821FF302821FF302821FF666666FF302821FF666666FF302821FF302821FF302821FF666666FF302821FF302821FF302821FF302821FF302821FF302821FF302821FF302821FF302821FF302821FF302821FF302821FF3028
310
21FF302821FF302821FF302821FF302821FF302821FF302821FF302821FF302821FF302821FF302821FF302821FF302821FF666666FF302821FF666666FF302821FF302821FF302821FF666666FF302821FF302821FF302821FF302821FF302821FF302821FF302821FF302821FF302821FF302821FF302821FF302821FF30
310
2821FF302821FF302821FF302821FF302821FF302821FF302821FF302821FF302821FF302821FF302821FF302821FF302821FF666666FF302821FF666666FF302821FF302821FF302821FF666666FF302821FF302821FF302821FF302821FF302821FF302821FF302821FF302821FF302821FF302821FF302821FF302821FF
310
302821FF302821FF302821FF302821FF302821FF302821FF302821FF302821FF302821FF302821FF302821FF302821FF302821FF666666FF302821FF666666FF302821FF302821FF666666FF302821FF302821FF302821FF302821FF302821FF302821FF302821FF302821FF302821FF302821FF302821FF302821FF302821
310
FF302821FF302821FF302821FF302821FF302821FF302821FF302821FF302821FF302821FF302821FF302821FF302821FF302821FF666666FF302821FF666666FF302821FF302821FF666666FF302821FF302821FF302821FF302821FF302821FF302821FF302821FF302821FF302821FF302821FF302821FF302821FF3028
310
21FF302821FF302821FF302821FF302821FF302821FF302821FF302821FF302821FF302821FF302821FF302821FF302821FF302821FF666666FF302821FF666666FF302821FF302821FF666666FF302821FF302821FF302821FF302821FF302821FF302821FF302821FF302821FF302821FF302821FF302821FF302821FF30
310
2821FF302821FF302821FF302821FF302821FF302821FF302821FF302821FF302821FF302821FF302821FF302821FF302821FF302821FF666666FF666666FF666666FF302821FF302821FF302821FF302821FF302821FF302821FF302821FF302821FF302821FF302821FF302821FF302821FF302821FF302821FF302821FF
310
302821FF302821FF302821FF302821FF302821FF302821FF302821FF302821FF302821FF302821FF302821FF302821FF302821FF302821FF302821FF302821FF302821FF302821FF
102
{BLKREFS
331
3E9
331
3F2
102
}
 70
     4
280
     1
281
     0
  0
BLOCK_RECORD
  5
402
330
1
100
AcDbSymbolTableRecord
100
AcDbBlockTableRecord
  2
PUERTA 090
340
0
310
28000000200000002000000001002000000000000010000001000000010000000000000000000000302821FF302821FF302821FF302821FF302821FF302821FF302821FF302821FF302821FF302821FF302821FF302821FF302821FF302821FF302821FF302821FF302821FF302821FF302821FF302821FF302821FF302821
310
FF302821FF302821FF302821FF302821FF302821FF302821FF302821FF302821FF302821FF302821FF302821FF666666FF666666FF666666FF666666FF666666FF666666FF666666FF666666FF666666FF666666FF666666FF666666FF666666FF666666FF666666FF666666FF666666FF666666FF666666FF666666FF6666
310
66FF666666FF666666FF666666FF666666FF666666FF666666FF666666FF666666FF666666FF302821FF302821FF666666FF302821FF302821FF302821FF302821FF302821FF302821FF302821FF302821FF302821FF302821FF302821FF302821FF302821FF302821FF302821FF302821FF302821FF302821FF302821FF30
310
2821FF302821FF302821FF302821FF302821FF302821FF302821FF302821FF302821FF666666FF302821FF302821FF666666FF666666FF666666FF666666FF666666FF666666FF666666FF666666FF666666FF666666FF666666FF666666FF666666FF666666FF666666FF666666FF666666FF666666FF666666FF666666FF
310
666666FF666666FF666666FF666666FF666666FF666666FF666666FF666666FF666666FF666666FF302821FF302821FF666666FF302821FF302821FF302821FF302821FF302821FF302821FF302821FF302821FF302821FF302821FF302821FF302821FF302821FF302821FF302821FF302821FF302821FF302821FF302821
310
FF302821FF302821FF302821FF302821FF302821FF302821FF302821FF302821FF302821FF302821FF302821FF302821FF666666FF302821FF302821FF302821FF302821FF302821FF302821FF302821FF302821FF302821FF302821FF302821FF302821FF302821FF302821FF302821FF302821FF302821FF302821FF3028
310
21FF302821FF302821FF302821FF302821FF302821FF302821FF302821FF302821FF302821FF302821FF302821FF302821FF302821FF666666FF302821FF302821FF302821FF302821FF302821FF302821FF302821FF302821FF302821FF302821FF302821FF302821FF302821FF302821FF302821FF302821FF302821FF30
310
2821FF302821FF302821FF302821FF302821FF302821FF302821FF302821FF302821FF302821FF302821FF302821FF302821FF302821FF666666FF302821FF302821FF302821FF302821FF302821FF302821FF302821FF302821FF302821FF302821FF302821FF302821FF302821FF302821FF302821FF302821FF302821FF
310
302821FF302821FF302821FF302821FF302821FF302821FF302821FF302821FF302821FF302821FF302821FF302821FF302821FF302821FF666666FF302821FF302821FF302821FF302821FF302821FF302821FF302821FF302821FF302821FF302821FF302821FF302821FF302821FF302821FF302821FF302821FF302821
310
FF302821FF302821FF302821FF302821FF302821FF302821FF302821FF302821FF302821FF302821FF302821FF302821FF302821FF302821FF302821FF666666FF302821FF302821FF302821FF302821FF302821FF302821FF302821FF302821FF302821FF302821FF302821FF302821FF302821FF302821FF302821FF3028
310
21FF302821FF302821FF302821FF302821FF302821FF302821FF302821FF302821FF302821FF302821FF302821FF302821FF302821FF302821FF302821FF666666FF302821FF302821FF302821FF302821FF302821FF302821FF302821FF302821FF302821FF302821FF302821FF302821FF302821FF302821FF302821FF30
310
2821FF302821FF302821FF302821FF302821FF302821FF302821FF302821FF302821FF302821FF302821FF302821FF302821FF302821FF302821FF302821FF302821FF666666FF302821FF302821FF302821FF302821FF302821FF302821FF302821FF302821FF302821FF302821FF302821FF302821FF302821FF302821FF
310
302821FF302821FF302821FF302821FF302821FF302821FF302821FF302821FF302821FF302821FF302821FF302821FF302821FF302821FF302821FF302821FF302821FF666666FF302821FF302821FF302821FF302821FF302821FF302821FF302821FF302821FF302821FF302821FF302821FF302821FF302821FF302821
310
FF302821FF302821FF302821FF302821FF302821FF302821FF302821FF302821FF302821FF302821FF302821FF302821FF302821FF302821FF302821FF302821FF302821FF302821FF666666FF302821FF302821FF302821FF302821FF302821FF302821FF302821FF302821FF302821FF302821FF302821FF302821FF3028
310
21FF302821FF302821FF302821FF302821FF302821FF302821FF302821FF302821FF302821FF302821FF302821FF302821FF302821FF302821FF302821FF302821FF302821FF302821FF666666FF302821FF302821FF302821FF302821FF302821FF302821FF302821FF302821FF302821FF302821FF302821FF302821FF30
310
2821FF302821FF302821FF302821FF302821FF302821FF302821FF302821FF302821FF302821FF302821FF302821FF302821FF302821FF302821FF302821FF302821FF302821FF302821FF302821FF666666FF302821FF302821FF302821FF302821FF302821FF302821FF302821FF302821FF302821FF302821FF302821FF
310
302821FF302821FF302821FF302821FF302821FF302821FF302821FF302821FF302821FF302821FF302821FF302821FF302821FF302821FF302821FF302821FF302821FF302821FF302821FF302821FF666666FF302821FF302821FF302821FF302821FF302821FF302821FF302821FF302821FF302821FF302821FF302821
310
FF302821FF302821FF302821FF302821FF302821FF302821FF302821FF302821FF302821FF302821FF302821FF302821FF302821FF302821FF302821FF302821FF302821FF302821FF302821FF302821FF302821FF666666FF302821FF302821FF302821FF302821FF302821FF302821FF302821FF302821FF302821FF3028
310
21FF302821FF302821FF302821FF302821FF302821FF302821FF302821FF302821FF302821FF302821FF302821FF302821FF302821FF302821FF302821FF302821FF302821FF302821FF302821FF302821FF302821FF302821FF666666FF302821FF302821FF302821FF302821FF302821FF302821FF302821FF302821FF30
310
2821FF302821FF302821FF302821FF302821FF302821FF302821FF302821FF302821FF302821FF302821FF302821FF302821FF302821FF302821FF302821FF302821FF302821FF302821FF302821FF302821FF302821FF302821FF666666FF302821FF302821FF302821FF302821FF302821FF302821FF302821FF302821FF
310
302821FF302821FF302821FF302821FF302821FF302821FF302821FF302821FF302821FF302821FF302821FF302821FF302821FF302821FF302821FF302821FF302821FF302821FF302821FF302821FF302821FF302821FF302821FF302821FF666666FF302821FF302821FF302821FF302821FF302821FF302821FF302821
310
FF302821FF302821FF302821FF302821FF302821FF302821FF302821FF302821FF302821FF302821FF302821FF302821FF302821FF302821FF302821FF302821FF302821FF302821FF302821FF302821FF302821FF302821FF302821FF302821FF302821FF666666FF302821FF302821FF302821FF302821FF302821FF3028
310
21FF302821FF302821FF302821FF302821FF302821FF302821FF302821FF302821FF302821FF302821FF302821FF302821FF302821FF302821FF302821FF302821FF302821FF302821FF302821FF302821FF302821FF302821FF302821FF302821FF302821FF302821FF666666FF302821FF302821FF302821FF302821FF30
310
2821FF302821FF302821FF302821FF302821FF302821FF302821FF302821FF302821FF302821FF302821FF302821FF302821FF302821FF302821FF302821FF302821FF302821FF302821FF302821FF302821FF302821FF302821FF302821FF302821FF302821FF302821FF302821FF666666FF302821FF302821FF302821FF
310
302821FF302821FF302821FF302821FF302821FF302821FF302821FF302821FF302821FF302821FF302821FF302821FF302821FF302821FF302821FF302821FF302821FF302821FF302821FF302821FF302821FF302821FF302821FF302821FF302821FF302821FF302821FF302821FF302821FF666666FF666666FF302821
310
FF302821FF302821FF302821FF302821FF302821FF302821FF302821FF302821FF302821FF302821FF302821FF302821FF302821FF302821FF302821FF302821FF302821FF302821FF302821FF302821FF302821FF302821FF302821FF302821FF302821FF302821FF302821FF302821FF302821FF302821FF302821FF6666
310
66FF302821FF302821FF302821FF302821FF302821FF302821FF302821FF302821FF302821FF302821FF302821FF302821FF302821FF302821FF302821FF302821FF302821FF302821FF302821FF302821FF302821FF302821FF302821FF302821FF302821FF302821FF302821FF302821FF302821FF302821FF302821FF30
310
2821FF666666FF666666FF302821FF302821FF302821FF302821FF302821FF302821FF302821FF302821FF302821FF302821FF302821FF302821FF302821FF302821FF302821FF302821FF302821FF302821FF302821FF302821FF302821FF302821FF302821FF302821FF302821FF302821FF302821FF302821FF302821FF
310
302821FF302821FF302821FF666666FF666666FF302821FF302821FF302821FF302821FF302821FF302821FF302821FF302821FF302821FF302821FF302821FF302821FF302821FF302821FF302821FF302821FF302821FF302821FF302821FF302821FF302821FF302821FF302821FF302821FF302821FF302821FF302821
310
FF302821FF302821FF302821FF302821FF302821FF666666FF666666FF666666FF302821FF302821FF302821FF302821FF302821FF302821FF302821FF302821FF302821FF302821FF302821FF302821FF302821FF302821FF302821FF302821FF302821FF302821FF302821FF302821FF302821FF302821FF302821FF3028
310
21FF302821FF302821FF302821FF302821FF302821FF302821FF302821FF302821FF666666FF666666FF666666FF666666FF666666FF302821FF302821FF302821FF302821FF302821FF302821FF302821FF302821FF302821FF302821FF302821FF302821FF302821FF302821FF302821FF302821FF302821FF302821FF30
310
2821FF302821FF302821FF302821FF302821FF302821FF302821FF302821FF302821FF302821FF302821FF302821FF302821FF302821FF666666FF666666FF666666FF302821FF302821FF302821FF302821FF302821FF302821FF302821FF302821FF302821FF302821FF302821FF302821FF302821FF302821FF302821FF
310
302821FF302821FF302821FF302821FF302821FF302821FF302821FF302821FF302821FF302821FF302821FF302821FF302821FF302821FF302821FF302821FF302821FF302821FF
102
{BLKREFS
331
401
331
413
331
41A
331
429
331
4CE
102
}
 70
     4
280
     1
281
     0
  0
ENDTAB
  0
ENDSEC
  0
SECTION
  2
BLOCKS
  0
BLOCK
  5
20
330
1F
100
AcDbEntity
  8
0
100
AcDbBlockBegin
  2
*Model_Space
 70
     0
 10
0.0
 20
0.0
 30
0.0
  3
*Model_Space
  1
*Model_Space
  0
ENDBLK
  5
21
330
1F
100
AcDbEntity
  8
0
100
AcDbBlockEnd
  0
BLOCK
  5
D8
330
D6
100
AcDbEntity
 67
     1
  8
0
100
AcDbBlockBegin
  2
*Paper_Space
 70
     0
 10
0.0
 20
0.0
 30
0.0
  3
*Paper_Space
  1
*Paper_Space
  0
ENDBLK
  5
D9
330
D6
100
AcDbEntity
 67
     1
  8
0
100
AcDbBlockEnd
  0
BLOCK
  5
21C
330
21A
100
AcDbEntity
  8
0
100
AcDbBlockBegin
  2
*Paper_Space0
 70
     0
 10
0.0
 20
0.0
 30
0.0
  3
*Paper_Space0
  1
*Paper_Space0
  0
VIEWPORT
  5
21E
330
21A
100
AcDbEntity
  8
0
 48
100.0
100
AcDbViewport
 10
0.0
 20
0.0
 30
0.0
 40
840.779612
 41
486.114466
 68
     1
 69
     1
 12
328.692132
 22
196.71883
 13
0.0
 23
0.0
 14
10.0
 24
10.0
 15
10.0
 25
10.0
 16
0.0
 26
0.0
 36
1.0
 17
0.0
 27
0.0
 37
0.0
 42
50.0
 43
0.0
 44
0.0
 45
486.114466
 50
0.0
 51
0.0
 72
   100
 90
   557168
  1

281
     0
 71
     1
 74
     0
110
0.0
120
0.0
130
0.0
111
1.0
121
0.0
131
0.0
112
0.0
122
1.0
132
0.0
 79
     0
146
0.0
170
     0
 61
     5
348
F5
292
     1
282
     1
141
0.0
142
0.0
 63
   256
  0
ENDBLK
  5
21D
330
21A
100
AcDbEntity
  8
0
100
AcDbBlockEnd
  0
BLOCK
  5
1ED
330
1EC
100
AcDbEntity
  8
0
100
AcDbBlockBegin
  2
_ARCHTICK
 70
     0
 10
0.0
 20
0.0
 30
0.0
  3
_ARCHTICK
  1
_ARCHTICK
  0
POLYLINE
  5
1EF
330
1EC
100
AcDbEntity
  8
0
  6
ByBlock
 62
     0
100
AcDb2dPolyline
 66
     1
 10
0.0
 20
0.0
 30
0.0
 40
0.15
 41
0.15
  0
VERTEX
  5
1F0
330
1EF
100
AcDbEntity
  8
0
  6
ByBlock
 62
     0
100
AcDbVertex
100
AcDb2dVertex
 10
-0.5
 20
-0.5
 30
0.0
  0
VERTEX
  5
1F1
330
1EF
100
AcDbEntity
  8
0
  6
ByBlock
 62
     0
100
AcDbVertex
100
AcDb2dVertex
 10
0.5
 20
0.5
 30
0.0
  0
SEQEND
  5
1F2
330
1EF
100
AcDbEntity
  8
0
  6
ByBlock
 62
     0
  0
ENDBLK
  5
1EE
330
1EC
100
AcDbEntity
  8
0
100
AcDbBlockEnd
  0
BLOCK
  5
1F5
330
1F4
100
AcDbEntity
  8
0
100
AcDbBlockBegin
  2
_OPEN30
 70
     0
 10
0.0
 20
0.0
 30
0.0
  3
_OPEN30
  1
_OPEN30
  0
LINE
  5
1F7
330
1F4
100
AcDbEntity
  8
0
  6
ByBlock
 62
     0
370
    -2
100
AcDbLine
 10
-1.0
 20
0.267949
 30
0.0
 11
0.0
 21
0.0
 31
0.0
  0
LINE
  5
1F8
330
1F4
100
AcDbEntity
  8
0
  6
ByBlock
 62
     0
370
    -2
100
AcDbLine
 10
0.0
 20
0.0
 30
0.0
 11
-1.0
 21
-0.267949
 31
0.0
  0
LINE
  5
1F9
330
1F4
100
AcDbEntity
  8
0
  6
ByBlock
 62
     0
370
    -2
100
AcDbLine
 10
0.0
 20
0.0
 30
0.0
 11
-1.0
 21
0.0
 31
0.0
  0
ENDBLK
  5
1F6
330
1F4
100
AcDbEntity
  8
0
100
AcDbBlockEnd
  0
BLOCK
  5
1FD
330
1FC
100
AcDbEntity
  8
0
100
AcDbBlockBegin
  2
_DOT
 70
     0
 10
0.0
 20
0.0
 30
0.0
  3
_DOT
  1
_DOT
  0
POLYLINE
  5
1FF
330
1FC
100
AcDbEntity
  8
0
  6
ByBlock
 62
     0
100
AcDb2dPolyline
 66
     1
 10
0.0
 20
0.0
 30
0.0
 70
     1
 40
0.5
 41
0.5
  0
VERTEX
  5
201
330
1FF
100
AcDbEntity
  8
0
  6
ByBlock
 62
     0
100
AcDbVertex
100
AcDb2dVertex
 10
-0.25
 20
0.0
 30
0.0
 42
1.0
  0
VERTEX
  5
202
330
1FF
100
AcDbEntity
  8
0
  6
ByBlock
 62
     0
100
AcDbVertex
100
AcDb2dVertex
 10
0.25
 20
0.0
 30
0.0
 42
1.0
  0
SEQEND
  5
203
330
1FF
100
AcDbEntity
  8
0
  6
ByBlock
 62
     0
  0
LINE
  5
200
330
1FC
100
AcDbEntity
  8
0
  6
ByBlock
 62
     0
370
    -2
100
AcDbLine
 10
-0.5
 20
0.0
 30
0.0
 11
-1.0
 21
0.0
 31
0.0
  0
ENDBLK
  5
1FE
330
1FC
100
AcDbEntity
  8
0
100
AcDbBlockEnd
  0
BLOCK
  5
226
330
224
100
AcDbEntity
  8
0
100
AcDbBlockBegin
  2
*Paper_Space4
 70
     0
 10
0.0
 20
0.0
 30
0.0
  3
*Paper_Space4
  1
*Paper_Space4
  0
VIEWPORT
  5
228
330
224
100
AcDbEntity
  8
0
 48
100.0
100
AcDbViewport
 10
0.0
 20
0.0
 30
0.0
 40
1715.87676
 41
992.070339
 68
     1
 69
     1
 12
497.20797
 22
380.27835
 13
0.0
 23
0.0
 14
10.0
 24
10.0
 15
10.0
 25
10.0
 16
0.0
 26
0.0
 36
1.0
 17
0.0
 27
0.0
 37
0.0
 42
50.0
 43
0.0
 44
0.0
 45
992.070339
 50
0.0
 51
0.0
 72
   100
 90
   557168
  1

281
     0
 71
     1
 74
     0
110
0.0
120
0.0
130
0.0
111
1.0
121
0.0
131
0.0
112
0.0
122
1.0
132
0.0
 79
     0
146
0.0
170
     0
 61
     5
348
F5
292
     1
282
     1
141
0.0
142
0.0
 63
   256
  0
ENDBLK
  5
227
330
224
100
AcDbEntity
  8
0
100
AcDbBlockEnd
  0
BLOCK
  5
D4
330
D2
100
AcDbEntity
  8
0
100
AcDbBlockBegin
  2
*Paper_Space5
 70
     0
 10
0.0
 20
0.0
 30
0.0
  3
*Paper_Space5
  1
*Paper_Space5
  0
VIEWPORT
  5
229
330
D2
100
AcDbEntity
  8
0
 48
100.0
100
AcDbViewport
 10
0.0
 20
0.0
 30
0.0
 40
460.802478
 41
238.196088
 68
     1
 69
     1
 12
128.5
 22
97.5
 13
0.0
 23
0.0
 14
10.0
 24
10.0
 15
10.0
 25
10.0
 16
0.0
 26
0.0
 36
1.0
 17
0.0
 27
0.0
 37
0.0
 42
50.0
 43
0.0
 44
0.0
 45
238.196088
 50
0.0
 51
0.0
 72
   100
 90
   557168
  1

281
     0
 71
     1
 74
     0
110
0.0
120
0.0
130
0.0
111
1.0
121
0.0
131
0.0
112
0.0
122
1.0
132
0.0
 79
     0
146
0.0
170
     0
 61
     5
348
F5
292
     1
282
     1
141
0.0
142
0.0
 63
   256
  0
ENDBLK
  5
D5
330
D2
100
AcDbEntity
  8
0
100
AcDbBlockEnd
  0
BLOCK
  5
221
330
21F
100
AcDbEntity
  8
0
100
AcDbBlockBegin
  2
*Paper_Space6
 70
     0
 10
0.0
 20
0.0
 30
0.0
  3
*Paper_Space6
  1
*Paper_Space6
  0
VIEWPORT
  5
223
330
21F
100
AcDbEntity
  8
0
 48
100.0
100
AcDbViewport
 10
0.0
 20
0.0
 30
0.0
 40
1201.113732
 41
694.449237
 68
     1
 69
     1
 12
454.893705
 22
285.342469
 13
0.0
 23
0.0
 14
10.0
 24
10.0
 15
10.0
 25
10.0
 16
0.0
 26
0.0
 36
1.0
 17
0.0
 27
0.0
 37
0.0
 42
50.0
 43
0.0
 44
0.0
 45
694.449237
 50
0.0
 51
0.0
 72
   100
 90
   557168
  1

281
     0
 71
     1
 74
     0
110
0.0
120
0.0
130
0.0
111
1.0
121
0.0
131
0.0
112
0.0
122
1.0
132
0.0
 79
     0
146
0.0
170
     0
 61
     5
348
F5
292
     1
282
     1
141
0.0
142
0.0
 63
   256
  0
ENDBLK
  5
222
330
21F
100
AcDbEntity
  8
0
100
AcDbBlockEnd
  0
BLOCK
  5
212
330
210
100
AcDbEntity
  8
0
100
AcDbBlockBegin
  2
*Paper_Space7
 70
     0
 10
0.0
 20
0.0
 30
0.0
  3
*Paper_Space7
  1
*Paper_Space7
  0
VIEWPORT
  5
214
330
210
100
AcDbEntity
  8
0
 48
100.0
100
AcDbViewport
 10
0.0
 20
0.0
 30
0.0
 40
588.545729
 41
340.280126
 68
     1
 69
     1
 12
151.627136
 22
129.479246
 13
0.0
 23
0.0
 14
10.0
 24
10.0
 15
10.0
 25
10.0
 16
0.0
 26
0.0
 36
1.0
 17
0.0
 27
0.0
 37
0.0
 42
50.0
 43
0.0
 44
0.0
 45
340.280126
 50
0.0
 51
0.0
 72
   100
 90
   557168
  1

281
     0
 71
     1
 74
     0
110
0.0
120
0.0
130
0.0
111
1.0
121
0.0
131
0.0
112
0.0
122
1.0
132
0.0
 79
     0
146
0.0
170
     0
 61
     5
348
F5
292
     1
282
     1
141
0.0
142
0.0
 63
   256
  0
ENDBLK
  5
213
330
210
100
AcDbEntity
  8
0
100
AcDbBlockEnd
  0
BLOCK
  5
217
330
215
100
AcDbEntity
  8
0
100
AcDbBlockBegin
  2
*Paper_Space8
 70
     0
 10
0.0
 20
0.0
 30
0.0
  3
*Paper_Space8
  1
*Paper_Space8
  0
VIEWPORT
  5
219
330
215
100
AcDbEntity
  8
0
 48
100.0
100
AcDbViewport
 10
0.0
 20
0.0
 30
0.0
 40
588.545729
 41
340.280126
 68
     1
 69
     1
 12
213.910905
 22
130.914724
 13
0.0
 23
0.0
 14
10.0
 24
10.0
 15
10.0
 25
10.0
 16
0.0
 26
0.0
 36
1.0
 17
0.0
 27
0.0
 37
0.0
 42
50.0
 43
0.0
 44
0.0
 45
340.280126
 50
0.0
 51
0.0
 72
   100
 90
   557168
  1

281
     0
 71
     1
 74
     0
110
0.0
120
0.0
130
0.0
111
1.0
121
0.0
131
0.0
112
0.0
122
1.0
132
0.0
 79
     0
146
0.0
170
     0
 61
     5
348
F5
292
     1
282
     1
141
0.0
142
0.0
 63
   256
  0
ENDBLK
  5
218
330
215
100
AcDbEntity
  8
0
100
AcDbBlockEnd
  0
BLOCK
  5
3EB
330
3EA
100
AcDbEntity
  8
0
100
AcDbBlockBegin
  2
000 - PUERTA 070
 70
     0
 10
0.0
 20
0.0
 30
0.0
  3
000 - PUERTA 070
  1
000 - PUERTA 070
  0
LINE
  5
3EC
330
3EA
100
AcDbEntity
  8
000 - PUERTAS
100
AcDbLine
 10
3207.518025
 20
1534.49037
 30
0.0
 11
3207.518025
 21
1533.79037
 31
0.0
  0
LINE
  5
3ED
330
3EA
100
AcDbEntity
  8
000 - PUERTAS
100
AcDbLine
 10
3207.518025
 20
1533.79037
 30
0.0
 11
3207.468025
 21
1533.79037
 31
0.0
  0
LINE
  5
3EE
330
3EA
100
AcDbEntity
  8
000 - PUERTAS
100
AcDbLine
 10
3207.468025
 20
1533.79037
 30
0.0
 11
3207.468025
 21
1534.49037
 31
0.0
  0
LINE
  5
3EF
330
3EA
100
AcDbEntity
  8
000 - PUERTAS
100
AcDbLine
 10
3207.468025
 20
1534.49037
 30
0.0
 11
3207.518025
 21
1534.49037
 31
0.0
  0
ARC
  5
3F0
330
3EA
100
AcDbEntity
  8
000 - PUERTAS
100
AcDbCircle
 10
3207.518025
 20
1534.49037
 30
0.0
 40
0.7000000000002728
100
AcDbArc
 50
180.0
 51
265.903956
  0
ENDBLK
  5
3F1
330
3EA
100
AcDbEntity
  8
0
100
AcDbBlockEnd
  0
BLOCK
  5
403
330
402
100
AcDbEntity
  8
0
100
AcDbBlockBegin
  2
PUERTA 090
 70
     0
 10
0.0
 20
0.0
 30
0.0
  3
PUERTA 090
  1
PUERTA 090
  0
LINE
  5
404
330
402
100
AcDbEntity
  8
000 - PUERTAS
100
AcDbLine
 10
2559.613705
 20
1733.580865
 30
0.0
 11
2558.713705
 21
1733.580865
 31
0.0
  0
LINE
  5
405
330
402
100
AcDbEntity
  8
000 - PUERTAS
100
AcDbLine
 10
2558.713705
 20
1733.580865
 30
0.0
 11
2558.713705
 21
1733.630865
 31
0.0
  0
LINE
  5
406
330
402
100
AcDbEntity
  8
000 - PUERTAS
100
AcDbLine
 10
2558.713705
 20
1733.630865
 30
0.0
 11
2559.613705
 21
1733.630865
 31
0.0
  0
LINE
  5
407
330
402
100
AcDbEntity
  8
000 - PUERTAS
100
AcDbLine
 10
2559.613705
 20
1733.630865
 30
0.0
 11
2559.613705
 21
1733.580865
 31
0.0
  0
ARC
  5
408
330
402
100
AcDbEntity
  8
000 - PUERTAS
100
AcDbCircle
 10
2559.613705
 20
1733.580865
 30
0.0
 40
0.900000000000091
100
AcDbArc
 50
90.0
 51
176.815261
  0
ENDBLK
  5
409
330
402
100
AcDbEntity
  8
0
100
AcDbBlockEnd
  0
ENDSEC
  0
SECTION
  2
ENTITIES
  0
LWPOLYLINE
  5
392
330
1F
100
AcDbEntity
  8
000 - MUROS
100
AcDbPolyline
 90
        5
 70
     0
 43
0.0
 10
47.179685
 20
91.013154
 10
47.179685
 20
109.713154
 10
59.579685
 20
109.713154
 10
59.579685
 20
102.113154
 10
60.979685
 20
102.113154
  0
LWPOLYLINE
  5
393
330
1F
100
AcDbEntity
  8
000 - MUROS
100
AcDbPolyline
 90
        2
 70
     0
 43
0.0
 10
67.229685
 20
102.113154
 10
67.579685
 20
102.113154
  0
LWPOLYLINE
  5
394
330
1F
100
AcDbEntity
  8
000 - MUROS
100
AcDbPolyline
 90
        5
 70
     0
 43
0.0
 10
68.479685
 20
102.113154
 10
75.779685
 20
102.113154
 10
75.779685
 20
109.713154
 10
104.179685
 20
109.713154
 10
104.179685
 20
109.413154
  0
LWPOLYLINE
  5
395
330
1F
100
AcDbEntity
  8
000 - MUROS
100
AcDbPolyline
 90
        3
 70
     0
 43
0.0
 10
104.179685
 20
91.313154
 10
104.179685
 20
91.013154
 10
47.179685
 20
91.013154
  0
LWPOLYLINE
  5
396
330
1F
100
AcDbEntity
  8
000 - MUROS
100
AcDbPolyline
 90
        2
 70
     0
 43
0.0
 10
67.229685
 20
101.813154
 10
67.579685
 20
101.813154
  0
LWPOLYLINE
  5
397
330
1F
100
AcDbEntity
  8
000 - MUROS
100
AcDbPolyline
 90
        4
 70
     0
 43
0.0
 10
68.479685
 20
101.813154
 10
76.079685
 20
101.813154
 10
76.079685
 20
109.413154
 10
104.179685
 20
109.413154
  0
LWPOLYLINE
  5
398
330
1F
100
AcDbEntity
  8
000 - MUROS
100
AcDbPolyline
 90
        2
 70
     0
 43
0.0
 10
104.179685
 20
91.313154
 10
102.929685
 20
91.313154
  0
LINE
  5
399
330
1F
100
AcDbEntity
  8
000 - MUROS
100
AcDbLine
 10
59.579685
 20
109.713154
 30
0.0
 11
75.779685
 21
109.713154
 31
0.0
  0
LINE
  5
39A
330
1F
100
AcDbEntity
  8
000 - MUROS
100
AcDbLine
 10
87.079685
 20
91.313154
 30
0.0
 11
87.079685
 21
92.013154
 31
0.0
  0
LINE
  5
39B
330
1F
100
AcDbEntity
  8
000 - MUROS
100
AcDbLine
 10
87.079685
 20
92.763154
 30
0.0
 11
87.079685
 21
93.263154
 31
0.0
  0
LINE
  5
39C
330
1F
100
AcDbEntity
  8
000 - MUROS
100
AcDbLine
 10
87.079685
 20
94.063154
 30
0.0
 11
87.079685
 21
95.313154
 31
0.0
  0
LINE
  5
39D
330
1F
100
AcDbEntity
  8
000 - MUROS
100
AcDbLine
 10
86.979685
 20
91.313154
 30
0.0
 11
86.979685
 21
92.013154
 31
0.0
  0
LINE
  5
39E
330
1F
100
AcDbEntity
  8
000 - MUROS
100
AcDbLine
 10
86.979685
 20
92.663154
 30
0.0
 11
86.979685
 21
93.263154
 31
0.0
  0
LINE
  5
39F
330
1F
100
AcDbEntity
  8
000 - MUROS
100
AcDbLine
 10
86.979685
 20
94.063154
 30
0.0
 11
86.979685
 21
95.413154
 31
0.0
  0
LINE
  5
3A0
330
1F
100
AcDbEntity
  8
000 - MUROS
100
AcDbLine
 10
86.979685
 20
92.663154
 30
0.0
 11
88.542185
 21
92.663154
 31
0.0
  0
LINE
  5
3A1
330
1F
100
AcDbEntity
  8
000 - MUROS
100
AcDbLine
 10
88.642185
 20
92.663154
 30
0.0
 11
90.204685
 21
92.663154
 31
0.0
  0
LINE
  5
3A2
330
1F
100
AcDbEntity
  8
000 - MUROS
100
AcDbLine
 10
87.079685
 20
92.763154
 30
0.0
 11
88.542185
 21
92.763154
 31
0.0
  0
LINE
  5
3A3
330
1F
100
AcDbEntity
  8
000 - MUROS
100
AcDbLine
 10
88.642185
 20
92.763154
 30
0.0
 11
90.204685
 21
92.763154
 31
0.0
  0
LINE
  5
3A4
330
1F
100
AcDbEntity
  8
000 - MUROS
100
AcDbLine
 10
86.979685
 20
93.963154
 30
0.0
 11
88.542185
 21
93.963154
 31
0.0
  0
LINE
  5
3A5
330
1F
100
AcDbEntity
  8
000 - MUROS
100
AcDbLine
 10
88.642185
 20
93.963154
 30
0.0
 11
90.204685
 21
93.963154
 31
0.0
  0
LINE
  5
3A6
330
1F
100
AcDbEntity
  8
000 - MUROS
100
AcDbLine
 10
87.079685
 20
94.063154
 30
0.0
 11
90.204685
 21
94.063154
 31
0.0
  0
LINE
  5
3A7
330
1F
100
AcDbEntity
  8
000 - MUROS
100
AcDbLine
 10
87.079685
 20
95.313154
 30
0.0
 11
88.642185
 21
95.313154
 31
0.0
  0
LINE
  5
3A8
330
1F
100
AcDbEntity
  8
000 - MUROS
100
AcDbLine
 10
89.542185
 20
95.313154
 30
0.0
 11
90.204685
 21
95.313154
 31
0.0
  0
LINE
  5
3A9
330
1F
100
AcDbEntity
  8
000 - MUROS
100
AcDbLine
 10
86.979685
 20
95.413154
 30
0.0
 11
88.642185
 21
95.413154
 31
0.0
  0
LINE
  5
3AA
330
1F
100
AcDbEntity
  8
000 - MUROS
100
AcDbLine
 10
89.542185
 20
95.413154
 30
0.0
 11
90.304685
 21
95.413154
 31
0.0
  0
LINE
  5
3AB
330
1F
100
AcDbEntity
  8
000 - MUROS
100
AcDbLine
 10
90.204685
 20
91.313154
 30
0.0
 11
90.204685
 21
92.663154
 31
0.0
  0
LINE
  5
3AC
330
1F
100
AcDbEntity
  8
000 - MUROS
100
AcDbLine
 10
90.204685
 20
92.763154
 30
0.0
 11
90.204685
 21
93.963154
 31
0.0
  0
LINE
  5
3AD
330
1F
100
AcDbEntity
  8
000 - MUROS
100
AcDbLine
 10
90.204685
 20
94.063154
 30
0.0
 11
90.204685
 21
95.313154
 31
0.0
  0
LINE
  5
3AE
330
1F
100
AcDbEntity
  8
000 - MUROS
100
AcDbLine
 10
90.304685
 20
91.313154
 30
0.0
 11
90.304685
 21
95.313154
 31
0.0
  0
LWPOLYLINE
  5
3AF
330
1F
100
AcDbEntity
  8
000 - MUROS
100
AcDbPolyline
 90
        3
 70
     0
 43
0.0
 10
73.879685
 20
91.513154
 10
73.879685
 20
96.813154
 10
75.68281
 20
96.813154
  0
LWPOLYLINE
  5
3B0
330
1F
100
AcDbEntity
  8
000 - MUROS
100
AcDbPolyline
 90
        2
 70
     0
 43
0.0
 10
77.23281
 20
96.813154
 10
78.885935
 20
96.813154
  0
LWPOLYLINE
  5
3B1
330
1F
100
AcDbEntity
  8
000 - MUROS
100
AcDbPolyline
 90
        2
 70
     0
 43
0.0
 10
80.485935
 20
96.813154
 10
82.18906
 20
96.813154
  0
LWPOLYLINE
  5
3B2
330
1F
100
AcDbEntity
  8
000 - MUROS
100
AcDbPolyline
 90
        2
 70
     0
 43
0.0
 10
85.482185
 20
96.813154
 10
85.482185
 20
96.663154
  0
LWPOLYLINE
  5
3B3
330
1F
100
AcDbEntity
  8
000 - MUROS
100
AcDbPolyline
 90
        2
 70
     0
 43
0.0
 10
85.482185
 20
95.463154
 10
85.482185
 20
94.063154
  0
LWPOLYLINE
  5
3B4
330
1F
100
AcDbEntity
  8
000 - MUROS
100
AcDbPolyline
 90
        2
 70
     0
 43
0.0
 10
85.482185
 20
93.963154
 10
85.482185
 20
91.313154
  0
LWPOLYLINE
  5
3B5
330
1F
100
AcDbEntity
  8
000 - MUROS
100
AcDbPolyline
 90
        3
 70
     0
 43
0.0
 10
73.979685
 20
91.513154
 10
73.979685
 20
96.713154
 10
75.68281
 20
96.713154
  0
LWPOLYLINE
  5
3B6
330
1F
100
AcDbEntity
  8
000 - MUROS
100
AcDbPolyline
 90
        2
 70
     0
 43
0.0
 10
77.23281
 20
96.713154
 10
78.885935
 20
96.713154
  0
LWPOLYLINE
  5
3B7
330
1F
100
AcDbEntity
  8
000 - MUROS
100
AcDbPolyline
 90
        2
 70
     0
 43
0.0
 10
80.485935
 20
96.713154
 10
82.18906
 20
96.713154
  0
LWPOLYLINE
  5
3B8
330
1F
100
AcDbEntity
  8
000 - MUROS
100
AcDbPolyline
 90
        2
 70
     0
 43
0.0
 10
85.382185
 20
96.713154
 10
85.382185
 20
96.663154
  0
LWPOLYLINE
  5
3B9
330
1F
100
AcDbEntity
  8
000 - MUROS
100
AcDbPolyline
 90
        2
 70
     0
 43
0.0
 10
85.382185
 20
95.463154
 10
85.382185
 20
91.313154
  0
LWPOLYLINE
  5
3BA
330
1F
100
AcDbEntity
  8
000 - DURLOCK
100
AcDbPolyline
 90
        3
 70
     0
 43
0.0
 10
69.879685
 20
96.813154
 10
65.779685
 20
96.813154
 10
65.079685
 20
96.813154
  0
LWPOLYLINE
  5
3BB
330
1F
100
AcDbEntity
  8
000 - DURLOCK
100
AcDbPolyline
 90
        2
 70
     0
 43
0.0
 10
63.879685
 20
96.813154
 10
63.279685
 20
96.813154
  0
LWPOLYLINE
  5
3BC
330
1F
100
AcDbEntity
  8
000 - DURLOCK
100
AcDbPolyline
 90
        2
 70
     0
 43
0.0
 10
63.279685
 20
96.813154
 10
63.279685
 20
93.063154
  0
LWPOLYLINE
  5
3BD
330
1F
100
AcDbEntity
  8
000 - DURLOCK
100
AcDbPolyline
 90
        2
 70
     0
 43
0.0
 10
63.279685
 20
93.063154
 10
63.279685
 20
91.513154
  0
LWPOLYLINE
  5
3BE
330
1F
100
AcDbEntity
  8
000 - DURLOCK
100
AcDbPolyline
 90
        3
 70
     0
 43
0.0
 10
69.879685
 20
96.713154
 10
65.779685
 20
96.713154
 10
65.079685
 20
96.713154
  0
LWPOLYLINE
  5
3BF
330
1F
100
AcDbEntity
  8
000 - DURLOCK
100
AcDbPolyline
 90
        3
 70
     0
 43
0.0
 10
63.879685
 20
96.713154
 10
63.379685
 20
96.713154
 10
63.379685
 20
93.063154
  0
LWPOLYLINE
  5
3C0
330
1F
100
AcDbEntity
  8
000 - DURLOCK
100
AcDbPolyline
 90
        2
 70
     0
 43
0.0
 10
63.379685
 20
93.063154
 10
63.379685
 20
91.513154
  0
LINE
  5
3C1
330
1F
100
AcDbEntity
  8
000 - MUROS
100
AcDbLine
 10
78.885935
 20
96.813154
 30
0.0
 11
78.885935
 21
96.713154
 31
0.0
  0
LINE
  5
3C2
330
1F
100
AcDbEntity
  8
000 - MUROS
100
AcDbLine
 10
80.485935
 20
96.713154
 30
0.0
 11
80.485935
 21
96.813154
 31
0.0
  0
LINE
  5
3C3
330
1F
100
AcDbEntity
  8
000 - PUERTAS
100
AcDbLine
 10
78.885935
 20
96.713154
 30
0.0
 11
78.885935
 21
95.913154
 31
0.0
  0
LINE
  5
3C4
330
1F
100
AcDbEntity
  8
000 - PUERTAS
100
AcDbLine
 10
78.885935
 20
95.913154
 30
0.0
 11
78.935935
 21
95.913154
 31
0.0
  0
LINE
  5
3C5
330
1F
100
AcDbEntity
  8
000 - PUERTAS
100
AcDbLine
 10
78.935935
 20
95.913154
 30
0.0
 11
78.935935
 21
96.713154
 31
0.0
  0
LINE
  5
3C6
330
1F
100
AcDbEntity
  8
000 - PUERTAS
100
AcDbLine
 10
78.935935
 20
96.713154
 30
0.0
 11
78.885935
 21
96.713154
 31
0.0
  0
LINE
  5
3C7
330
1F
100
AcDbEntity
  8
000 - PUERTAS
100
AcDbLine
 10
80.485935
 20
96.713154
 30
0.0
 11
80.485935
 21
95.913154
 31
0.0
  0
LINE
  5
3C8
330
1F
100
AcDbEntity
  8
000 - PUERTAS
100
AcDbLine
 10
80.485935
 20
95.913154
 30
0.0
 11
80.435935
 21
95.913154
 31
0.0
  0
LINE
  5
3C9
330
1F
100
AcDbEntity
  8
000 - PUERTAS
100
AcDbLine
 10
80.435935
 20
95.913154
 30
0.0
 11
80.435935
 21
96.713154
 31
0.0
  0
LINE
  5
3CA
330
1F
100
AcDbEntity
  8
000 - PUERTAS
100
AcDbLine
 10
80.435935
 20
96.713154
 30
0.0
 11
80.485935
 21
96.713154
 31
0.0
  0
ARC
  5
3CB
330
1F
100
AcDbEntity
  8
000 - PUERTAS
100
AcDbCircle
 10
78.885935
 20
96.713154
 30
0.0
 40
0.7999999999999545
100
AcDbArc
 50
273.583322
 51
0.0
  0
ARC
  5
3CC
330
1F
100
AcDbEntity
  8
000 - PUERTAS
100
AcDbCircle
 10
80.485935
 20
96.713154
 30
0.0
 40
0.8000000000001819
100
AcDbArc
 50
180.0
 51
266.416678
  0
LINE
  5
3CD
330
1F
100
AcDbEntity
  8
000 - MARCOS
 62
     8
100
AcDbLine
 10
60.929685
 20
102.113154
 30
0.0
 11
60.929685
 21
101.813154
 31
0.0
  0
LINE
  5
3CE
330
1F
100
AcDbEntity
  8
000 - MARCOS
 62
     8
100
AcDbLine
 10
60.979685
 20
102.113154
 30
0.0
 11
60.979685
 21
101.813154
 31
0.0
  0
LINE
  5
3CF
330
1F
100
AcDbEntity
  8
000 - MARCOS
 62
     8
100
AcDbLine
 10
60.979685
 20
101.963154
 30
0.0
 11
67.229685
 21
101.963154
 31
0.0
  0
LINE
  5
3D0
330
1F
100
AcDbEntity
  8
000 - MARCOS
 62
     8
100
AcDbLine
 10
67.279685
 20
102.113154
 30
0.0
 11
67.279685
 21
101.813154
 31
0.0
  0
LINE
  5
3D1
330
1F
100
AcDbEntity
  8
000 - MARCOS
 62
     8
100
AcDbLine
 10
67.229685
 20
102.113154
 30
0.0
 11
67.229685
 21
101.813154
 31
0.0
  0
LINE
  5
3D2
330
1F
100
AcDbEntity
  8
000 - MUROS
100
AcDbLine
 10
67.579685
 20
102.113154
 30
0.0
 11
67.579685
 21
101.813154
 31
0.0
  0
LINE
  5
3D3
330
1F
100
AcDbEntity
  8
000 - PUERTAS
100
AcDbLine
 10
67.579685
 20
101.813154
 30
0.0
 11
67.579685
 21
100.913154
 31
0.0
  0
LINE
  5
3D4
330
1F
100
AcDbEntity
  8
000 - PUERTAS
100
AcDbLine
 10
67.579685
 20
100.913154
 30
0.0
 11
67.629685
 21
100.913154
 31
0.0
  0
LINE
  5
3D5
330
1F
100
AcDbEntity
  8
000 - PUERTAS
100
AcDbLine
 10
67.629685
 20
100.913154
 30
0.0
 11
67.629685
 21
101.813154
 31
0.0
  0
LINE
  5
3D6
330
1F
100
AcDbEntity
  8
000 - PUERTAS
100
AcDbLine
 10
67.629685
 20
101.813154
 30
0.0
 11
67.579685
 21
101.813154
 31
0.0
  0
LINE
  5
3D7
330
1F
100
AcDbEntity
  8
000 - MUROS
100
AcDbLine
 10
68.479685
 20
102.113154
 30
0.0
 11
68.479685
 21
101.813154
 31
0.0
  0
ARC
  5
3D8
330
1F
100
AcDbEntity
  8
000 - PUERTAS
100
AcDbCircle
 10
67.579685
 20
101.813154
 30
0.0
 40
0.900000000000091
100
AcDbArc
 50
273.184739
 51
0.0
  0
LINE
  5
3D9
330
1F
100
AcDbEntity
  8
000 - MUROS
100
AcDbLine
 10
86.979685
 20
92.013154
 30
0.0
 11
87.079685
 21
92.013154
 31
0.0
  0
LINE
  5
3DA
330
1F
100
AcDbEntity
  8
000 - MUROS
100
AcDbLine
 10
86.979685
 20
93.263154
 30
0.0
 11
87.079685
 21
93.263154
 31
0.0
  0
LINE
  5
3DB
330
1F
100
AcDbEntity
  8
000 - MUROS
100
AcDbLine
 10
88.642185
 20
91.313154
 30
0.0
 11
88.642185
 21
91.913154
 31
0.0
  0
LINE
  5
3DC
330
1F
100
AcDbEntity
  8
000 - MUROS
100
AcDbLine
 10
88.642185
 20
92.613154
 30
0.0
 11
88.642185
 21
92.663154
 31
0.0
  0
LINE
  5
3DD
330
1F
100
AcDbEntity
  8
000 - MUROS
100
AcDbLine
 10
88.642185
 20
92.763154
 30
0.0
 11
88.642185
 21
93.213154
 31
0.0
  0
LINE
  5
3DE
330
1F
100
AcDbEntity
  8
000 - MUROS
100
AcDbLine
 10
88.642185
 20
93.913154
 30
0.0
 11
88.642185
 21
93.963154
 31
0.0
  0
LINE
  5
3DF
330
1F
100
AcDbEntity
  8
000 - MUROS
100
AcDbLine
 10
88.542185
 20
91.313154
 30
0.0
 11
88.542185
 21
91.913154
 31
0.0
  0
LINE
  5
3E0
330
1F
100
AcDbEntity
  8
000 - MUROS
100
AcDbLine
 10
88.542185
 20
92.613154
 30
0.0
 11
88.542185
 21
92.663154
 31
0.0
  0
LINE
  5
3E1
330
1F
100
AcDbEntity
  8
000 - MUROS
100
AcDbLine
 10
88.542185
 20
92.763154
 30
0.0
 11
88.542185
 21
93.213154
 31
0.0
  0
LINE
  5
3E2
330
1F
100
AcDbEntity
  8
000 - MUROS
100
AcDbLine
 10
88.542185
 20
93.913154
 30
0.0
 11
88.542185
 21
93.963154
 31
0.0
  0
LINE
  5
3E3
330
1F
100
AcDbEntity
  8
000 - MUROS
100
AcDbLine
 10
88.542185
 20
92.613154
 30
0.0
 11
88.642185
 21
92.613154
 31
0.0
  0
LINE
  5
3E4
330
1F
100
AcDbEntity
  8
000 - MUROS
100
AcDbLine
 10
88.542185
 20
91.913154
 30
0.0
 11
88.642185
 21
91.913154
 31
0.0
  0
LINE
  5
3E5
330
1F
100
AcDbEntity
  8
000 - MUROS
100
AcDbLine
 10
88.542185
 20
93.913154
 30
0.0
 11
88.642185
 21
93.913154
 31
0.0
  0
LINE
  5
3E6
330
1F
100
AcDbEntity
  8
000 - MUROS
100
AcDbLine
 10
88.542185
 20
93.213154
 30
0.0
 11
88.642185
 21
93.213154
 31
0.0
  0
LINE
  5
3E7
330
1F
100
AcDbEntity
  8
000 - MUROS
100
AcDbLine
 10
89.542185
 20
95.313154
 30
0.0
 11
89.542185
 21
95.413154
 31
0.0
  0
LINE
  5
3E8
330
1F
100
AcDbEntity
  8
000 - MUROS
100
AcDbLine
 10
88.642185
 20
95.313154
 30
0.0
 11
88.642185
 21
95.413154
 31
0.0
  0
INSERT
  5
3E9
330
1F
100
AcDbEntity
  8
000 - PUERTAS
100
AcDbBlockReference
  2
000 - PUERTA 070
 10
1623.132555
 20
-3114.904871
 30
0.0
 50
90.0
  0
INSERT
  5
3F2
330
1F
100
AcDbEntity
  8
000 - PUERTAS
100
AcDbBlockReference
  2
000 - PUERTA 070
 10
1623.132555
 20
-3113.604871
 30
0.0
 50
90.0
  0
LINE
  5
3F3
330
1F
100
AcDbEntity
  8
000 - MUROS
100
AcDbLine
 10
90.304685
 20
95.413154
 30
0.0
 11
92.151636
 21
95.413154
 31
0.0
  0
LINE
  5
3F4
330
1F
100
AcDbEntity
  8
000 - MUROS
100
AcDbLine
 10
96.804685
 20
95.413154
 30
0.0
 11
98.979685
 21
95.413154
 31
0.0
  0
LINE
  5
3F5
330
1F
100
AcDbEntity
  8
000 - MUROS
100
AcDbLine
 10
100.479685
 20
95.413154
 30
0.0
 11
101.979685
 21
95.413154
 31
0.0
  0
LINE
  5
3F6
330
1F
100
AcDbEntity
  8
000 - MUROS
100
AcDbLine
 10
93.751636
 20
95.313154
 30
0.0
 11
95.654685
 21
95.313154
 31
0.0
  0
LINE
  5
3F7
330
1F
100
AcDbEntity
  8
000 - MUROS
100
AcDbLine
 10
95.754685
 20
95.313154
 30
0.0
 11
95.804685
 21
95.313154
 31
0.0
  0
LINE
  5
3F8
330
1F
100
AcDbEntity
  8
000 - MUROS
100
AcDbLine
 10
96.804685
 20
95.313154
 30
0.0
 11
96.854685
 21
95.313154
 31
0.0
  0
LINE
  5
3F9
330
1F
100
AcDbEntity
  8
000 - MUROS
100
AcDbLine
 10
96.954685
 20
95.313154
 30
0.0
 11
98.979685
 21
95.313154
 31
0.0
  0
LINE
  5
3FA
330
1F
100
AcDbEntity
  8
000 - MUROS
100
AcDbLine
 10
100.479685
 20
95.313154
 30
0.0
 11
101.979685
 21
95.313154
 31
0.0
  0
LINE
  5
3FB
330
1F
100
AcDbEntity
  8
000 - MUROS
100
AcDbLine
 10
85.482185
 20
94.063154
 30
0.0
 11
85.532185
 21
94.063154
 31
0.0
  0
LINE
  5
3FC
330
1F
100
AcDbEntity
  8
000 - MUROS
100
AcDbLine
 10
85.532185
 20
94.063154
 30
0.0
 11
85.532185
 21
93.963154
 31
0.0
  0
LINE
  5
3FD
330
1F
100
AcDbEntity
  8
000 - MUROS
100
AcDbLine
 10
85.532185
 20
93.963154
 30
0.0
 11
85.482185
 21
93.963154
 31
0.0
  0
LINE
  5
3FE
330
1F
100
AcDbEntity
  8
000 - MUROS
100
AcDbLine
 10
86.442185
 20
94.063154
 30
0.0
 11
86.979685
 21
94.063154
 31
0.0
  0
LINE
  5
3FF
330
1F
100
AcDbEntity
  8
000 - MUROS
100
AcDbLine
 10
86.442185
 20
93.963154
 30
0.0
 11
86.979685
 21
93.963154
 31
0.0
  0
LINE
  5
400
330
1F
100
AcDbEntity
  8
000 - MUROS
100
AcDbLine
 10
86.442185
 20
93.963154
 30
0.0
 11
86.442185
 21
94.063154
 31
0.0
  0
INSERT
  5
401
330
1F
100
AcDbEntity
  8
000 - PUERTAS
100
AcDbBlockReference
  2
PUERTA 090
 10
-1648.03868
 20
-2465.650551
 30
0.0
 41
-1.0
 50
270.0
  0
LINE
  5
40A
330
1F
100
AcDbEntity
  8
000 - MUROS
100
AcDbLine
 10
95.804685
 20
95.313154
 30
0.0
 11
95.804685
 21
95.413154
 31
0.0
  0
LINE
  5
40B
330
1F
100
AcDbEntity
  8
000 - MUROS
100
AcDbLine
 10
96.804685
 20
95.313154
 30
0.0
 11
96.804685
 21
95.413154
 31
0.0
  0
LINE
  5
40C
330
1F
100
AcDbEntity
  8
000 - MUROS
100
AcDbLine
 10
96.854685
 20
94.313154
 30
0.0
 11
95.754685
 21
94.313154
 31
0.0
  0
LINE
  5
40D
330
1F
100
AcDbEntity
  8
000 - MUROS
100
AcDbLine
 10
96.854685
 20
94.213154
 30
0.0
 11
95.654685
 21
94.213154
 31
0.0
  0
LINE
  5
40E
330
1F
100
AcDbEntity
  8
000 - MUROS
100
AcDbLine
 10
96.954685
 20
94.363154
 30
0.0
 11
96.954685
 21
91.313154
 31
0.0
  0
LINE
  5
40F
330
1F
100
AcDbEntity
  8
000 - MUROS
100
AcDbLine
 10
96.854685
 20
94.213154
 30
0.0
 11
96.854685
 21
91.313154
 31
0.0
  0
LINE
  5
410
330
1F
100
AcDbEntity
  8
000 - MUROS
100
AcDbLine
 10
96.854685
 20
95.313154
 30
0.0
 11
96.854685
 21
95.263154
 31
0.0
  0
LINE
  5
411
330
1F
100
AcDbEntity
  8
000 - MUROS
100
AcDbLine
 10
96.854685
 20
95.263154
 30
0.0
 11
96.954685
 21
95.263154
 31
0.0
  0
LINE
  5
412
330
1F
100
AcDbEntity
  8
000 - MUROS
100
AcDbLine
 10
96.954685
 20
95.263154
 30
0.0
 11
96.954685
 21
95.313154
 31
0.0
  0
INSERT
  5
413
330
1F
100
AcDbEntity
  8
000 - PUERTAS
100
AcDbBlockReference
  2
PUERTA 090
 10
2656.56839
 20
1828.844019
 30
0.0
 50
180.0
  0
LINE
  5
414
330
1F
100
AcDbEntity
  8
000 - MUROS
100
AcDbLine
 10
96.954685
 20
94.363154
 30
0.0
 11
96.854685
 21
94.363154
 31
0.0
  0
LINE
  5
415
330
1F
100
AcDbEntity
  8
000 - MUROS
100
AcDbLine
 10
96.854685
 20
94.363154
 30
0.0
 11
96.854685
 21
94.313154
 31
0.0
  0
LINE
  5
416
330
1F
100
AcDbEntity
  8
000 - MUROS
100
AcDbLine
 10
95.754685
 20
95.313154
 30
0.0
 11
95.754685
 21
95.263154
 31
0.0
  0
LINE
  5
417
330
1F
100
AcDbEntity
  8
000 - MUROS
100
AcDbLine
 10
95.754685
 20
95.263154
 30
0.0
 11
95.654685
 21
95.263154
 31
0.0
  0
LINE
  5
418
330
1F
100
AcDbEntity
  8
000 - MUROS
100
AcDbLine
 10
95.654685
 20
95.263154
 30
0.0
 11
95.654685
 21
95.313154
 31
0.0
  0
LINE
  5
419
330
1F
100
AcDbEntity
  8
000 - MUROS
100
AcDbLine
 10
95.654685
 20
94.213154
 30
0.0
 11
95.654685
 21
94.363154
 31
0.0
  0
INSERT
  5
41A
330
1F
100
AcDbEntity
  8
000 - PUERTAS
100
AcDbBlockReference
  2
PUERTA 090
 10
-2463.95902
 20
1828.844019
 30
0.0
 41
-1.0
 50
180.0
  0
LINE
  5
41B
330
1F
100
AcDbEntity
  8
000 - MUROS
100
AcDbLine
 10
95.654685
 20
94.363154
 30
0.0
 11
95.754685
 21
94.363154
 31
0.0
  0
LINE
  5
41C
330
1F
100
AcDbEntity
  8
000 - MUROS
100
AcDbLine
 10
95.754685
 20
94.363154
 30
0.0
 11
95.754685
 21
94.313154
 31
0.0
  0
LINE
  5
41D
330
1F
100
AcDbEntity
  8
000 - MUROS
100
AcDbLine
 10
100.529685
 20
93.413154
 30
0.0
 11
100.579685
 21
93.413154
 31
0.0
  0
LINE
  5
41E
330
1F
100
AcDbEntity
  8
000 - MUROS
100
AcDbLine
 10
101.479685
 20
93.413154
 30
0.0
 11
102.829685
 21
93.413154
 31
0.0
  0
LINE
  5
41F
330
1F
100
AcDbEntity
  8
000 - MUROS
100
AcDbLine
 10
100.429685
 20
93.513154
 30
0.0
 11
100.579685
 21
93.513154
 31
0.0
  0
LINE
  5
420
330
1F
100
AcDbEntity
  8
000 - MUROS
100
AcDbLine
 10
101.479685
 20
93.513154
 30
0.0
 11
102.079685
 21
93.513154
 31
0.0
  0
LINE
  5
421
330
1F
100
AcDbEntity
  8
000 - MUROS
100
AcDbLine
 10
102.229685
 20
93.513154
 30
0.0
 11
102.929685
 21
93.513154
 31
0.0
  0
LINE
  5
422
330
1F
100
AcDbEntity
  8
000 - MUROS
100
AcDbLine
 10
100.529685
 20
91.513154
 30
0.0
 11
100.529685
 21
93.413154
 31
0.0
  0
LINE
  5
423
330
1F
100
AcDbEntity
  8
000 - MUROS
100
AcDbLine
 10
100.429685
 20
91.513154
 30
0.0
 11
100.429685
 21
93.513154
 31
0.0
  0
LINE
  5
424
330
1F
100
AcDbEntity
  8
000 - MUROS
100
AcDbLine
 10
102.829685
 20
91.313154
 30
0.0
 11
102.829685
 21
93.413154
 31
0.0
  0
LINE
  5
425
330
1F
100
AcDbEntity
  8
000 - MUROS
100
AcDbLine
 10
102.929685
 20
91.313154
 30
0.0
 11
102.929685
 21
93.513154
 31
0.0
  0
LINE
  5
426
330
1F
100
AcDbEntity
  8
000 - MUROS
100
AcDbLine
 10
100.529685
 20
93.413154
 30
0.0
 11
100.579685
 21
93.413154
 31
0.0
  0
LINE
  5
427
330
1F
100
AcDbEntity
  8
000 - MUROS
100
AcDbLine
 10
100.579685
 20
93.413154
 30
0.0
 11
100.579685
 21
93.513154
 31
0.0
  0
LINE
  5
428
330
1F
100
AcDbEntity
  8
000 - MUROS
100
AcDbLine
 10
101.479685
 20
93.513154
 30
0.0
 11
101.479685
 21
93.413154
 31
0.0
  0
INSERT
  5
429
330
1F
100
AcDbEntity
  8
000 - PUERTAS
100
AcDbBlockReference
  2
PUERTA 090
 10
-1633.00118
 20
-2466.200551
 30
0.0
 41
-1.0
 50
270.0
  0
LINE
  5
42A
330
1F
100
AcDbEntity
  8
000 - MUROS
100
AcDbLine
 10
102.079685
 20
105.213154
 30
0.0
 11
102.079685
 21
101.663154
 31
0.0
  0
LINE
  5
42B
330
1F
100
AcDbEntity
  8
000 - MUROS
100
AcDbLine
 10
102.229685
 20
105.213154
 30
0.0
 11
102.229685
 21
101.663154
 31
0.0
  0
LINE
  5
42C
330
1F
100
AcDbEntity
  8
000 - ASCENSOR
100
AcDbLine
 10
102.079685
 20
109.213154
 30
0.0
 11
96.879685
 21
109.213154
 31
0.0
  0
LINE
  5
42D
330
1F
100
AcDbEntity
  8
000 - ASCENSOR
100
AcDbLine
 10
96.879685
 20
109.213154
 30
0.0
 11
96.879685
 21
105.213154
 31
0.0
  0
LINE
  5
42E
330
1F
100
AcDbEntity
  8
000 - ASCENSOR
100
AcDbLine
 10
96.879685
 20
105.213154
 30
0.0
 11
102.079685
 21
105.213154
 31
0.0
  0
LINE
  5
42F
330
1F
100
AcDbEntity
  8
000 - ASCENSOR
100
AcDbLine
 10
96.879685
 20
107.213154
 30
0.0
 11
102.079685
 21
105.213154
 31
0.0
  0
LINE
  5
430
330
1F
100
AcDbEntity
  8
000 - ASCENSOR
100
AcDbLine
 10
96.879685
 20
107.213154
 30
0.0
 11
102.079685
 21
109.213154
 31
0.0
  0
HATCH
  5
431
330
1F
100
AcDbEntity
  8
000 - PUERTAS
100
AcDbHatch
 10
0.0
 20
0.0
 30
0.0
210
0.0
220
0.0
230
1.0
  2
SOLID
 70
     1
 71
     0
 91
        4
 92
        7
 72
     0
 73
     1
 93
        4
 10
102.0796849278922
 20
95.26315374858714
 10
102.0796849278922
 20
95.21315374858696
 10
102.2296849278918
 20
95.21315374858696
 10
102.2296849278918
 20
95.26315374858714
 97
        0
 92
        7
 72
     0
 73
     1
 93
        4
 10
102.0796849278922
 20
93.56315374858687
 10
102.0796849278922
 20
93.51315374858669
 10
102.2296849278918
 20
93.51315374858669
 10
102.2296849278918
 20
93.56315374858687
 97
        0
 92
        7
 72
     0
 73
     1
 93
        4
 10
102.0796849278922
 20
95.51315374858714
 10
102.0796849278922
 20
95.46315374858696
 10
102.2296849278918
 20
95.46315374858696
 10
102.2296849278918
 20
95.51315374858714
 97
        0
 92
        7
 72
     0
 73
     1
 93
        4
 10
102.0796849278913
 20
98.16315374858678
 10
102.0796849278917
 20
98.1131537485866
 10
102.2296849278918
 20
98.1131537485866
 10
102.2296849278918
 20
98.16315374858678
 97
        0
 75
     1
 76
     1
 47
0.005468
 98
        4
 10
102.1108180531082
 20
95.23638145625037
 10
102.1381547146729
 20
93.55001763734063
 10
102.1381547146729
 20
95.50465716772842
 10
102.1764327492464
 20
98.13823130518895
450
        0
451
        0
460
0.0
461
0.0
452
        0
462
1.0
453
        2
463
0.0
 63
     5
421
      255
463
1.0
 63
     2
421
 16776960
470
LINEAR
1001
GradientColor1ACI
1070
     5
1001
GradientColor2ACI
1070
     2
1001
ACAD
1010
0.0
1020
0.0
1030
0.0
  0
HATCH
  5
432
330
1F
100
AcDbEntity
  8
000 - MARCOS
 62
     8
100
AcDbHatch
 10
0.0
 20
0.0
 30
0.0
210
0.0
220
0.0
230
1.0
  2
SOLID
 70
     1
 71
     0
 91
        2
 92
        7
 72
     0
 73
     1
 93
        4
 10
101.9296849278921
 20
100.1631537485868
 10
101.9296849278921
 20
100.1131537485866
 10
101.9796849278918
 20
100.1131537485866
 10
101.9796849278918
 20
100.1631537485868
 97
        0
 92
        7
 72
     0
 73
     1
 93
        4
 10
97.85468492789227
 20
100.1131537485871
 10
97.85468492789227
 20
100.1631537485872
 10
97.80468492789254
 20
100.1631537485872
 10
97.80468492789254
 20
100.1131537485871
 97
        0
 75
     1
 76
     1
 47
0.003335
 98
        2
 10
101.9525672932768
 20
100.1414938891884
 10
97.82780383652329
 20
100.131017896956
450
        0
451
        0
460
0.0
461
0.0
452
        0
462
1.0
453
        2
463
0.0
 63
     5
421
      255
463
1.0
 63
     2
421
 16776960
470
LINEAR
1001
GradientColor1ACI
1070
     5
1001
GradientColor2ACI
1070
     2
1001
ACAD
1010
0.0
1020
0.0
1030
0.0
  0
HATCH
  5
433
330
1F
100
AcDbEntity
  8
000 - MARCOS
 62
     8
100
AcDbHatch
 10
0.0
 20
0.0
 30
0.0
210
0.0
220
0.0
230
1.0
  2
SOLID
 70
     1
 71
     0
 91
        2
 92
        7
 72
     0
 73
     1
 93
        4
 10
102.0796849278913
 20
101.6631537485868
 10
102.0796849278913
 20
101.6131537485866
 10
102.2296849278918
 20
101.6131537485866
 10
102.2296849278918
 20
101.6631537485868
 97
        0
 92
        7
 72
     0
 73
     1
 93
        4
 10
102.0796849278913
 20
100.213153748587
 10
102.0796849278913
 20
100.1631537485868
 10
102.2296849278918
 20
100.1631537485868
 10
102.2296849278918
 20
100.213153748587
 97
        0
 75
     1
 76
     1
 47
0.003376
 98
        2
 10
102.1630562331338
 20
101.650163205335
 10
102.152926574492
 20
100.1898098878573
450
        0
451
        0
460
0.0
461
0.0
452
        0
462
1.0
453
        2
463
0.0
 63
     5
421
      255
463
1.0
 63
     2
421
 16776960
470
LINEAR
1001
GradientColor1ACI
1070
     5
1001
GradientColor2ACI
1070
     2
1001
ACAD
1010
0.0
1020
0.0
1030
0.0
  0
LINE
  5
434
330
1F
100
AcDbEntity
  8
000 - PUERTAS
100
AcDbLine
 10
102.229685
 20
98.163154
 30
0.0
 11
102.079685
 21
98.163154
 31
0.0
  0
LINE
  5
435
330
1F
100
AcDbEntity
  8
000 - PUERTAS
100
AcDbLine
 10
102.229685
 20
98.113154
 30
0.0
 11
102.079685
 21
98.113154
 31
0.0
  0
LINE
  5
436
330
1F
100
AcDbEntity
  8
000 - PUERTAS
100
AcDbLine
 10
103.129685
 20
98.163154
 30
0.0
 11
102.229685
 21
98.163154
 31
0.0
  0
LINE
  5
437
330
1F
100
AcDbEntity
  8
000 - PUERTAS
100
AcDbLine
 10
102.229685
 20
98.163154
 30
0.0
 11
102.229685
 21
98.213154
 31
0.0
  0
LINE
  5
438
330
1F
100
AcDbEntity
  8
000 - PUERTAS
100
AcDbLine
 10
102.229685
 20
98.213154
 30
0.0
 11
103.129685
 21
98.213154
 31
0.0
  0
LINE
  5
439
330
1F
100
AcDbEntity
  8
000 - PUERTAS
100
AcDbLine
 10
103.129685
 20
98.213154
 30
0.0
 11
103.129685
 21
98.163154
 31
0.0
  0
LINE
  5
43A
330
1F
100
AcDbEntity
  8
000 - PUERTAS
100
AcDbLine
 10
103.129685
 20
99.913154
 30
0.0
 11
102.229685
 21
99.913154
 31
0.0
  0
LINE
  5
43B
330
1F
100
AcDbEntity
  8
000 - PUERTAS
100
AcDbLine
 10
102.229685
 20
99.913154
 30
0.0
 11
102.229685
 21
99.963154
 31
0.0
  0
LINE
  5
43C
330
1F
100
AcDbEntity
  8
000 - PUERTAS
100
AcDbLine
 10
102.229685
 20
99.963154
 30
0.0
 11
103.129685
 21
99.963154
 31
0.0
  0
LINE
  5
43D
330
1F
100
AcDbEntity
  8
000 - PUERTAS
100
AcDbLine
 10
103.129685
 20
99.963154
 30
0.0
 11
103.129685
 21
99.913154
 31
0.0
  0
ARC
  5
43E
330
1F
100
AcDbEntity
  8
000 - PUERTAS
100
AcDbCircle
 10
102.229685
 20
98.163154
 30
0.0
 40
0.900000000000091
100
AcDbArc
 50
3.184739
 51
90.0
  0
ARC
  5
43F
330
1F
100
AcDbEntity
  8
000 - PUERTAS
100
AcDbCircle
 10
102.229685
 20
99.963154
 30
0.0
 40
0.9000000000005457
100
AcDbArc
 50
270.0
 51
356.815261
  0
LINE
  5
440
330
1F
100
AcDbEntity
  8
000 - MARCOS
 62
     8
100
AcDbLine
 10
102.229685
 20
101.663154
 30
0.0
 11
102.079685
 21
101.663154
 31
0.0
  0
LINE
  5
441
330
1F
100
AcDbEntity
  8
000 - MARCOS
 62
     8
100
AcDbLine
 10
102.229685
 20
101.613154
 30
0.0
 11
102.079685
 21
101.613154
 31
0.0
  0
LINE
  5
442
330
1F
100
AcDbEntity
  8
000 - MUROS
100
AcDbLine
 10
102.079685
 20
105.213154
 30
0.0
 11
102.229685
 21
105.213154
 31
0.0
  0
LINE
  5
443
330
1F
100
AcDbEntity
  8
000 - MUROS
 62
     8
100
AcDbLine
 10
102.229685
 20
93.513154
 30
0.0
 11
102.079685
 21
93.513154
 31
0.0
  0
LINE
  5
444
330
1F
100
AcDbEntity
  8
000 - MARCOS
 62
     8
100
AcDbLine
 10
102.229685
 20
93.563154
 30
0.0
 11
102.079685
 21
93.563154
 31
0.0
  0
LINE
  5
445
330
1F
100
AcDbEntity
  8
000 - MARCOS
 62
     8
100
AcDbLine
 10
102.079685
 20
95.263154
 30
0.0
 11
102.079685
 21
95.213154
 31
0.0
  0
LINE
  5
446
330
1F
100
AcDbEntity
  8
000 - MARCOS
 62
     8
100
AcDbLine
 10
102.079685
 20
95.213154
 30
0.0
 11
102.229685
 21
95.213154
 31
0.0
  0
LINE
  5
447
330
1F
100
AcDbEntity
  8
000 - MARCOS
 62
     8
100
AcDbLine
 10
102.154685
 20
95.213154
 30
0.0
 11
102.154685
 21
93.563154
 31
0.0
  0
LINE
  5
448
330
1F
100
AcDbEntity
  8
000 - MARCOS
 62
     8
100
AcDbLine
 10
102.229685
 20
95.513154
 30
0.0
 11
102.079685
 21
95.513154
 31
0.0
  0
LINE
  5
449
330
1F
100
AcDbEntity
  8
000 - MARCOS
 62
     8
100
AcDbLine
 10
102.154685
 20
95.513154
 30
0.0
 11
102.154685
 21
98.113154
 31
0.0
  0
LINE
  5
44A
330
1F
100
AcDbEntity
  8
000 - MARCOS
 62
     8
100
AcDbLine
 10
102.229685
 20
100.213154
 30
0.0
 11
102.079685
 21
100.213154
 31
0.0
  0
LINE
  5
44B
330
1F
100
AcDbEntity
  8
000 - MARCOS
 62
     8
100
AcDbLine
 10
102.154685
 20
100.213154
 30
0.0
 11
102.154685
 21
101.613154
 31
0.0
  0
LINE
  5
44C
330
1F
100
AcDbEntity
  8
000 - MARCOS
 62
     8
100
AcDbLine
 10
102.079685
 20
101.663154
 30
0.0
 11
102.079685
 21
101.613154
 31
0.0
  0
LINE
  5
44D
330
1F
100
AcDbEntity
  8
000 - MARCOS
 62
     8
100
AcDbLine
 10
102.229685
 20
101.613154
 30
0.0
 11
102.229685
 21
101.663154
 31
0.0
  0
LINE
  5
44E
330
1F
100
AcDbEntity
  8
000 - MARCOS
 62
     8
100
AcDbLine
 10
102.229685
 20
100.213154
 30
0.0
 11
102.229685
 21
100.163154
 31
0.0
  0
LINE
  5
44F
330
1F
100
AcDbEntity
  8
000 - MARCOS
 62
     8
100
AcDbLine
 10
102.079685
 20
100.213154
 30
0.0
 11
102.079685
 21
100.163154
 31
0.0
  0
LINE
  5
450
330
1F
100
AcDbEntity
  8
000 - MARCOS
 62
     8
100
AcDbLine
 10
102.079685
 20
95.513154
 30
0.0
 11
102.079685
 21
95.463154
 31
0.0
  0
LINE
  5
451
330
1F
100
AcDbEntity
  8
000 - MARCOS
 62
     8
100
AcDbLine
 10
102.229685
 20
95.513154
 30
0.0
 11
102.229685
 21
95.463154
 31
0.0
  0
LINE
  5
452
330
1F
100
AcDbEntity
  8
000 - PUERTAS
100
AcDbLine
 10
102.229685
 20
98.163154
 30
0.0
 11
102.229685
 21
98.113154
 31
0.0
  0
LINE
  5
453
330
1F
100
AcDbEntity
  8
000 - PUERTAS
100
AcDbLine
 10
102.079685
 20
98.113154
 30
0.0
 11
102.079685
 21
98.163154
 31
0.0
  0
LINE
  5
454
330
1F
100
AcDbEntity
  8
000 - MARCOS
 62
     8
100
AcDbLine
 10
102.229685
 20
95.213154
 30
0.0
 11
102.229685
 21
95.263154
 31
0.0
  0
LINE
  5
455
330
1F
100
AcDbEntity
  8
000 - MARCOS
 62
     8
100
AcDbLine
 10
102.079685
 20
93.563154
 30
0.0
 11
102.079685
 21
93.513154
 31
0.0
  0
LINE
  5
456
330
1F
100
AcDbEntity
  8
000 - MARCOS
 62
     8
100
AcDbLine
 10
102.229685
 20
93.563154
 30
0.0
 11
102.229685
 21
93.513154
 31
0.0
  0
LINE
  5
457
330
1F
100
AcDbEntity
  8
000 - MUROS
100
AcDbLine
 10
102.079685
 20
109.413154
 30
0.0
 11
102.079685
 21
109.213154
 31
0.0
  0
LINE
  5
458
330
1F
100
AcDbEntity
  8
000 - MUROS
100
AcDbLine
 10
102.079685
 20
109.213154
 30
0.0
 11
102.229685
 21
109.213154
 31
0.0
  0
LINE
  5
459
330
1F
100
AcDbEntity
  8
000 - MUROS
100
AcDbLine
 10
102.229685
 20
109.213154
 30
0.0
 11
102.229685
 21
109.413154
 31
0.0
  0
LINE
  5
45A
330
1F
100
AcDbEntity
  8
000 - REJAS
 62
     8
 48
0.05
100
AcDbLine
 10
96.804685
 20
100.163154
 30
0.0
 11
96.804685
 21
96.913154
 31
0.0
  0
LINE
  5
45B
330
1F
100
AcDbEntity
  8
000 - REJAS
 62
     8
 48
0.05
100
AcDbLine
 10
96.854685
 20
100.163154
 30
0.0
 11
96.854685
 21
96.913154
 31
0.0
  0
LINE
  5
45C
330
1F
100
AcDbEntity
  8
000 - REJAS
 62
     8
 48
0.05
100
AcDbLine
 10
97.804685
 20
100.163154
 30
0.0
 11
96.804685
 21
100.163154
 31
0.0
  0
LINE
  5
45D
330
1F
100
AcDbEntity
  8
000 - REJAS
 62
     8
 48
0.05
100
AcDbLine
 10
97.804685
 20
100.113154
 30
0.0
 11
96.804685
 21
100.113154
 31
0.0
  0
LINE
  5
45E
330
1F
100
AcDbEntity
  8
000 - REJAS
 62
     8
100
AcDbLine
 10
97.804685
 20
100.113154
 30
0.0
 11
97.804685
 21
100.163154
 31
0.0
  0
HATCH
  5
45F
330
1F
100
AcDbEntity
  8
000 - MARCOS
 62
     8
100
AcDbHatch
 10
0.0
 20
0.0
 30
0.0
210
0.0
220
0.0
230
1.0
  2
SOLID
 70
     1
 71
     0
 91
        3
 92
        7
 72
     0
 73
     1
 93
        4
 10
98.81968492789196
 20
100.1631537485863
 10
98.81968492789196
 20
100.1131537485871
 10
98.86968492789214
 20
100.1131537485875
 10
98.86968492789214
 20
100.1631537485872
 97
        0
 92
        7
 72
     0
 73
     1
 93
        4
 10
99.85968492789192
 20
100.1631537485872
 10
99.85968492789192
 20
100.1131537485875
 10
99.9096849278921
 20
100.1131537485871
 10
99.9096849278921
 20
100.1631537485872
 97
        0
 92
        7
 72
     0
 73
     1
 93
        4
 10
100.8996849278919
 20
100.1631537485872
 10
100.8996849278919
 20
100.1131537485871
 10
100.9496849278921
 20
100.1131537485875
 10
100.9496849278921
 20
100.1631537485863
 97
        0
 75
     1
 76
     1
 47
0.002691
 98
        3
 10
98.83989761082006
 20
100.1329685989566
 10
99.88622426461728
 20
100.1302773526749
 10
100.9316385782985
 20
100.1376286092945
450
        0
451
        0
460
0.0
461
0.0
452
        0
462
1.0
453
        2
463
0.0
 63
     5
421
      255
463
1.0
 63
     2
421
 16776960
470
LINEAR
1001
GradientColor1ACI
1070
     5
1001
GradientColor2ACI
1070
     2
1001
ACAD
1010
0.0
1020
0.0
1030
0.0
  0
LINE
  5
460
330
1F
100
AcDbEntity
  8
000 - MARCOS
 62
     8
100
AcDbLine
 10
98.869685
 20
100.113154
 30
0.0
 11
98.869685
 21
100.163154
 31
0.0
  0
LINE
  5
461
330
1F
100
AcDbEntity
  8
000 - MARCOS
 62
     8
100
AcDbLine
 10
98.819685
 20
100.113154
 30
0.0
 11
98.819685
 21
100.163154
 31
0.0
  0
LINE
  5
462
330
1F
100
AcDbEntity
  8
000 - MARCOS
 62
     8
100
AcDbLine
 10
99.909685
 20
100.113154
 30
0.0
 11
99.909685
 21
100.163154
 31
0.0
  0
LINE
  5
463
330
1F
100
AcDbEntity
  8
000 - MARCOS
 62
     8
100
AcDbLine
 10
99.859685
 20
100.113154
 30
0.0
 11
99.859685
 21
100.163154
 31
0.0
  0
LINE
  5
464
330
1F
100
AcDbEntity
  8
000 - MARCOS
 62
     8
100
AcDbLine
 10
100.949685
 20
100.113154
 30
0.0
 11
100.949685
 21
100.163154
 31
0.0
  0
LINE
  5
465
330
1F
100
AcDbEntity
  8
000 - MARCOS
 62
     8
100
AcDbLine
 10
100.899685
 20
100.113154
 30
0.0
 11
100.899685
 21
100.163154
 31
0.0
  0
LINE
  5
466
330
1F
100
AcDbEntity
  8
000 - REJAS
 62
     8
100
AcDbLine
 10
96.854685
 20
96.913154
 30
0.0
 11
96.804685
 21
96.913154
 31
0.0
  0
LINE
  5
467
330
1F
100
AcDbEntity
  8
000 - MARCOS
 62
     8
100
AcDbLine
 10
97.854685
 20
100.138154
 30
0.0
 11
98.819685
 21
100.138154
 31
0.0
  0
LINE
  5
468
330
1F
100
AcDbEntity
  8
000 - MARCOS
 62
     8
100
AcDbLine
 10
98.869685
 20
100.138154
 30
0.0
 11
99.859685
 21
100.138154
 31
0.0
  0
LINE
  5
469
330
1F
100
AcDbEntity
  8
000 - MARCOS
 62
     8
100
AcDbLine
 10
99.909685
 20
100.138154
 30
0.0
 11
100.899685
 21
100.138154
 31
0.0
  0
LINE
  5
46A
330
1F
100
AcDbEntity
  8
000 - MARCOS
 62
     8
100
AcDbLine
 10
100.949685
 20
100.138154
 30
0.0
 11
101.929685
 21
100.138154
 31
0.0
  0
LINE
  5
46B
330
1F
100
AcDbEntity
  8
000 - MARCOS
 62
     8
100
AcDbLine
 10
101.979685
 20
100.113154
 30
0.0
 11
101.929685
 21
100.113154
 31
0.0
  0
LINE
  5
46C
330
1F
100
AcDbEntity
  8
000 - MARCOS
 62
     8
100
AcDbLine
 10
101.929685
 20
100.113154
 30
0.0
 11
101.929685
 21
100.163154
 31
0.0
  0
LINE
  5
46D
330
1F
100
AcDbEntity
  8
000 - MARCOS
 62
     8
100
AcDbLine
 10
101.929685
 20
100.163154
 30
0.0
 11
101.979685
 21
100.163154
 31
0.0
  0
LINE
  5
46E
330
1F
100
AcDbEntity
  8
000 - MARCOS
 62
     8
100
AcDbLine
 10
97.804685
 20
100.113154
 30
0.0
 11
97.854685
 21
100.113154
 31
0.0
  0
LINE
  5
46F
330
1F
100
AcDbEntity
  8
000 - MARCOS
 62
     8
100
AcDbLine
 10
97.854685
 20
100.113154
 30
0.0
 11
97.854685
 21
100.163154
 31
0.0
  0
LINE
  5
470
330
1F
100
AcDbEntity
  8
000 - MARCOS
 62
     8
100
AcDbLine
 10
97.854685
 20
100.163154
 30
0.0
 11
97.804685
 21
100.163154
 31
0.0
  0
LINE
  5
471
330
1F
100
AcDbEntity
  8
000 - MARCOS
 62
     8
100
AcDbLine
 10
100.949685
 20
100.163154
 30
0.0
 11
100.899685
 21
100.163154
 31
0.0
  0
LINE
  5
472
330
1F
100
AcDbEntity
  8
000 - MARCOS
 62
     8
100
AcDbLine
 10
100.899685
 20
100.113154
 30
0.0
 11
100.949685
 21
100.113154
 31
0.0
  0
LINE
  5
473
330
1F
100
AcDbEntity
  8
000 - MARCOS
 62
     8
100
AcDbLine
 10
99.859685
 20
100.163154
 30
0.0
 11
99.909685
 21
100.163154
 31
0.0
  0
LINE
  5
474
330
1F
100
AcDbEntity
  8
000 - MARCOS
 62
     8
100
AcDbLine
 10
99.909685
 20
100.113154
 30
0.0
 11
99.859685
 21
100.113154
 31
0.0
  0
LINE
  5
475
330
1F
100
AcDbEntity
  8
000 - MARCOS
 62
     8
100
AcDbLine
 10
98.819685
 20
100.113154
 30
0.0
 11
98.869685
 21
100.113154
 31
0.0
  0
LINE
  5
476
330
1F
100
AcDbEntity
  8
000 - MARCOS
 62
     8
100
AcDbLine
 10
98.819685
 20
100.163154
 30
0.0
 11
98.869685
 21
100.163154
 31
0.0
  0
HATCH
  5
477
330
1F
100
AcDbEntity
  8
000 - MARCOS
 62
     8
440
 33554687
100
AcDbHatch
 10
0.0
 20
0.0
 30
0.0
210
0.0
220
0.0
230
1.0
  2
SOLID
 70
     1
 71
     0
 91
        2
 92
        7
 72
     0
 73
     1
 93
        4
 10
98.92968492789208
 20
95.41315374858723
 10
98.92968492789208
 20
95.31315374858733
 10
98.97968492789181
 20
95.31315374858733
 10
98.97968492789181
 20
95.41315374858723
 97
        0
 92
        7
 72
     0
 73
     1
 93
        4
 10
100.4796849278918
 20
95.41315374858678
 10
100.4796849278918
 20
95.31315374858733
 10
100.529684927892
 20
95.31315374858687
 10
100.529684927892
 20
95.41315374858678
 97
        0
 75
     1
 76
     1
 47
0.002972
 98
        2
 10
98.9488350457031
 20
95.38049859769481
 10
100.5063136662683
 20
95.39005342509509
450
        0
451
        0
460
0.0
461
0.0
452
        0
462
1.0
453
        2
463
0.0
 63
     5
421
      255
463
1.0
 63
     2
421
 16776960
470
LINEAR
1001
GradientColor1ACI
1070
     5
1001
GradientColor2ACI
1070
     2
1001
ACAD
1010
0.0
1020
0.0
1030
0.0
  0
LINE
  5
478
330
1F
100
AcDbEntity
  8
000 - MARCOS
 62
     8
100
AcDbLine
 10
100.479685
 20
95.313154
 30
0.0
 11
100.479685
 21
95.413154
 31
0.0
  0
LINE
  5
479
330
1F
100
AcDbEntity
  8
000 - MARCOS
 62
     8
100
AcDbLine
 10
100.529685
 20
95.313154
 30
0.0
 11
100.529685
 21
95.413154
 31
0.0
  0
LINE
  5
47A
330
1F
100
AcDbEntity
  8
000 - MARCOS
 62
     8
100
AcDbLine
 10
98.979685
 20
95.413154
 30
0.0
 11
98.979685
 21
95.313154
 31
0.0
  0
LINE
  5
47B
330
1F
100
AcDbEntity
  8
000 - MARCOS
 62
     8
100
AcDbLine
 10
98.929685
 20
95.413154
 30
0.0
 11
98.929685
 21
95.313154
 31
0.0
  0
LINE
  5
47C
330
1F
100
AcDbEntity
  8
000 - MARCOS
 62
     8
100
AcDbLine
 10
98.979685
 20
95.413154
 30
0.0
 11
98.929685
 21
95.413154
 31
0.0
  0
LINE
  5
47D
330
1F
100
AcDbEntity
  8
000 - MARCOS
 62
     8
100
AcDbLine
 10
98.929685
 20
95.313154
 30
0.0
 11
98.979685
 21
95.313154
 31
0.0
  0
LINE
  5
47E
330
1F
100
AcDbEntity
  8
000 - MARCOS
 62
     8
100
AcDbLine
 10
100.529685
 20
95.413154
 30
0.0
 11
100.479685
 21
95.413154
 31
0.0
  0
LINE
  5
47F
330
1F
100
AcDbEntity
  8
000 - MARCOS
 62
     8
100
AcDbLine
 10
100.479685
 20
95.313154
 30
0.0
 11
100.529685
 21
95.313154
 31
0.0
  0
LINE
  5
480
330
1F
100
AcDbEntity
  8
000 - MARCOS
 62
     8
100
AcDbLine
 10
100.479685
 20
95.363154
 30
0.0
 11
98.979685
 21
95.363154
 31
0.0
  0
HATCH
  5
481
330
1F
100
AcDbEntity
  8
000 - MARCOS
 62
     8
440
 33554687
100
AcDbHatch
 10
0.0
 20
0.0
 30
0.0
210
0.0
220
0.0
230
1.0
  2
SOLID
 70
     1
 71
     0
 91
        2
 92
        7
 72
     0
 73
     1
 93
        4
 10
93.70163590771466
 20
95.41315374858678
 10
93.70163590771466
 20
95.31315374858733
 10
93.75163590771439
 20
95.31315374858687
 10
93.75163590771439
 20
95.41315374858678
 97
        0
 92
        7
 72
     0
 73
     1
 93
        4
 10
92.15163590771493
 20
95.41315374858723
 10
92.15163590771493
 20
95.31315374858733
 10
92.20163590771466
 20
95.31315374858733
 10
92.20163590771466
 20
95.41315374858723
 97
        0
 75
     1
 76
     1
 47
0.004639
 98
        2
 10
93.70887667315941
 20
95.37067283946263
 10
92.16329872440105
 20
95.36883050979478
450
        0
451
        0
460
0.0
461
0.0
452
        0
462
1.0
453
        2
463
0.0
 63
     5
421
      255
463
1.0
 63
     2
421
 16776960
470
LINEAR
1001
GradientColor1ACI
1070
     5
1001
GradientColor2ACI
1070
     2
1001
ACAD
1010
0.0
1020
0.0
1030
0.0
  0
LINE
  5
482
330
1F
100
AcDbEntity
  8
000 - MARCOS
 62
     8
100
AcDbLine
 10
93.701636
 20
95.313154
 30
0.0
 11
93.701636
 21
95.413154
 31
0.0
  0
LINE
  5
483
330
1F
100
AcDbEntity
  8
000 - MARCOS
 62
     8
100
AcDbLine
 10
93.751636
 20
95.313154
 30
0.0
 11
93.751636
 21
95.413154
 31
0.0
  0
LINE
  5
484
330
1F
100
AcDbEntity
  8
000 - MARCOS
 62
     8
100
AcDbLine
 10
92.201636
 20
95.413154
 30
0.0
 11
92.201636
 21
95.313154
 31
0.0
  0
LINE
  5
485
330
1F
100
AcDbEntity
  8
000 - MARCOS
 62
     8
100
AcDbLine
 10
92.151636
 20
95.413154
 30
0.0
 11
92.151636
 21
95.313154
 31
0.0
  0
LINE
  5
486
330
1F
100
AcDbEntity
  8
000 - MARCOS
 62
     8
100
AcDbLine
 10
92.201636
 20
95.413154
 30
0.0
 11
92.151636
 21
95.413154
 31
0.0
  0
LINE
  5
487
330
1F
100
AcDbEntity
  8
000 - MARCOS
 62
     8
100
AcDbLine
 10
92.151636
 20
95.313154
 30
0.0
 11
92.201636
 21
95.313154
 31
0.0
  0
LINE
  5
488
330
1F
100
AcDbEntity
  8
000 - MARCOS
 62
     8
100
AcDbLine
 10
93.751636
 20
95.413154
 30
0.0
 11
93.701636
 21
95.413154
 31
0.0
  0
LINE
  5
489
330
1F
100
AcDbEntity
  8
000 - MARCOS
 62
     8
100
AcDbLine
 10
93.701636
 20
95.313154
 30
0.0
 11
93.751636
 21
95.313154
 31
0.0
  0
LINE
  5
48A
330
1F
100
AcDbEntity
  8
000 - MARCOS
 62
     8
100
AcDbLine
 10
93.701636
 20
95.363154
 30
0.0
 11
92.201636
 21
95.363154
 31
0.0
  0
LINE
  5
48B
330
1F
100
AcDbEntity
  8
000 - MUROS
100
AcDbLine
 10
93.751636
 20
95.413154
 30
0.0
 11
95.804685
 21
95.413154
 31
0.0
  0
LINE
  5
48C
330
1F
100
AcDbEntity
  8
000 - MUROS
100
AcDbLine
 10
92.151636
 20
95.313154
 30
0.0
 11
90.304685
 21
95.313154
 31
0.0
  0
HATCH
  5
48D
330
1F
100
AcDbEntity
  8
000 - MARCOS
 62
     8
440
 33554687
100
AcDbHatch
 10
0.0
 20
0.0
 30
0.0
210
0.0
220
0.0
230
1.0
  2
SOLID
 70
     1
 71
     0
 91
        2
 92
        7
 72
     0
 73
     1
 93
        4
 10
85.38218492789196
 20
95.51315374858714
 10
85.38218492789196
 20
95.46315374858696
 10
85.48218492789141
 20
95.46315374858696
 10
85.48218492789141
 20
95.51315374858714
 97
        0
 92
        7
 72
     0
 73
     1
 93
        4
 10
85.38218492789196
 20
96.66315374858678
 10
85.38218492789196
 20
96.6131537485866
 10
85.48218492789141
 20
96.6131537485866
 10
85.48218492789141
 20
96.66315374858678
 97
        0
 75
     1
 76
     1
 47
0.001779
 98
        2
 10
85.41445945859681
 20
95.4782504424783
 10
85.42513249627785
 20
96.64868970589478
450
        0
451
        0
460
0.0
461
0.0
452
        0
462
1.0
453
        2
463
0.0
 63
     5
421
      255
463
1.0
 63
     2
421
 16776960
470
LINEAR
1001
GradientColor1ACI
1070
     5
1001
GradientColor2ACI
1070
     2
1001
ACAD
1010
0.0
1020
0.0
1030
0.0
  0
LINE
  5
48E
330
1F
100
AcDbEntity
  8
000 - MARCOS
 62
     8
100
AcDbLine
 10
85.382185
 20
96.663154
 30
0.0
 11
85.482185
 21
96.663154
 31
0.0
  0
LINE
  5
48F
330
1F
100
AcDbEntity
  8
000 - MARCOS
 62
     8
100
AcDbLine
 10
85.382185
 20
96.613154
 30
0.0
 11
85.482185
 21
96.613154
 31
0.0
  0
LINE
  5
490
330
1F
100
AcDbEntity
  8
000 - MARCOS
 62
     8
100
AcDbLine
 10
85.382185
 20
95.463154
 30
0.0
 11
85.482185
 21
95.463154
 31
0.0
  0
LINE
  5
491
330
1F
100
AcDbEntity
  8
000 - MARCOS
 62
     8
100
AcDbLine
 10
85.382185
 20
95.513154
 30
0.0
 11
85.482185
 21
95.513154
 31
0.0
  0
LINE
  5
492
330
1F
100
AcDbEntity
  8
000 - MARCOS
 62
     8
100
AcDbLine
 10
85.432185
 20
95.513154
 30
0.0
 11
85.432185
 21
96.613154
 31
0.0
  0
LINE
  5
493
330
1F
100
AcDbEntity
  8
000 - MARCOS
 62
     8
100
AcDbLine
 10
85.382185
 20
95.463154
 30
0.0
 11
85.382185
 21
95.513154
 31
0.0
  0
LINE
  5
494
330
1F
100
AcDbEntity
  8
000 - MARCOS
 62
     8
100
AcDbLine
 10
85.482185
 20
95.463154
 30
0.0
 11
85.482185
 21
95.513154
 31
0.0
  0
LINE
  5
495
330
1F
100
AcDbEntity
  8
000 - MARCOS
 62
     8
100
AcDbLine
 10
85.382185
 20
96.613154
 30
0.0
 11
85.382185
 21
96.663154
 31
0.0
  0
LINE
  5
496
330
1F
100
AcDbEntity
  8
000 - MARCOS
 62
     8
100
AcDbLine
 10
85.482185
 20
96.613154
 30
0.0
 11
85.482185
 21
96.663154
 31
0.0
  0
HATCH
  5
497
330
1F
100
AcDbEntity
  8
000 - MARCOS
 62
     8
440
 33554687
100
AcDbHatch
 10
0.0
 20
0.0
 30
0.0
210
0.0
220
0.0
230
1.0
  2
SOLID
 70
     1
 71
     0
 91
        2
 92
        7
 72
     0
 73
     1
 93
        4
 10
83.68905992789217
 20
96.81315374858687
 10
83.68905992789217
 20
96.71315374858742
 10
83.7390599278919
 20
96.71315374858696
 10
83.7390599278919
 20
96.81315374858687
 97
        0
 92
        7
 72
     0
 73
     1
 93
        4
 10
82.13905992789199
 20
96.81315374858733
 10
82.13905992789199
 20
96.71315374858742
 10
82.18905992789217
 20
96.71315374858742
 10
82.18905992789217
 20
96.81315374858733
 97
        0
 75
     1
 76
     1
 47
0.004639
 98
        2
 10
83.69630069333692
 20
96.77067283946272
 10
82.15072274457856
 20
96.76883050979487
450
        0
451
        0
460
0.0
461
0.0
452
        0
462
1.0
453
        2
463
0.0
 63
     5
421
      255
463
1.0
 63
     2
421
 16776960
470
LINEAR
1001
GradientColor1ACI
1070
     5
1001
GradientColor2ACI
1070
     2
1001
ACAD
1010
0.0
1020
0.0
1030
0.0
  0
LINE
  5
498
330
1F
100
AcDbEntity
  8
000 - MARCOS
 62
     8
100
AcDbLine
 10
83.68906
 20
96.713154
 30
0.0
 11
83.68906
 21
96.813154
 31
0.0
  0
LINE
  5
499
330
1F
100
AcDbEntity
  8
000 - MARCOS
 62
     8
100
AcDbLine
 10
83.73906
 20
96.713154
 30
0.0
 11
83.73906
 21
96.813154
 31
0.0
  0
LINE
  5
49A
330
1F
100
AcDbEntity
  8
000 - MARCOS
 62
     8
100
AcDbLine
 10
82.18906
 20
96.813154
 30
0.0
 11
82.18906
 21
96.713154
 31
0.0
  0
LINE
  5
49B
330
1F
100
AcDbEntity
  8
000 - MARCOS
 62
     8
100
AcDbLine
 10
82.13906
 20
96.813154
 30
0.0
 11
82.13906
 21
96.713154
 31
0.0
  0
LINE
  5
49C
330
1F
100
AcDbEntity
  8
000 - MARCOS
 62
     8
100
AcDbLine
 10
82.18906
 20
96.813154
 30
0.0
 11
82.13906
 21
96.813154
 31
0.0
  0
LINE
  5
49D
330
1F
100
AcDbEntity
  8
000 - MARCOS
 62
     8
100
AcDbLine
 10
82.13906
 20
96.713154
 30
0.0
 11
82.18906
 21
96.713154
 31
0.0
  0
LINE
  5
49E
330
1F
100
AcDbEntity
  8
000 - MARCOS
 62
     8
100
AcDbLine
 10
83.73906
 20
96.813154
 30
0.0
 11
83.68906
 21
96.813154
 31
0.0
  0
LINE
  5
49F
330
1F
100
AcDbEntity
  8
000 - MARCOS
 62
     8
100
AcDbLine
 10
83.68906
 20
96.713154
 30
0.0
 11
83.73906
 21
96.713154
 31
0.0
  0
LINE
  5
4A0
330
1F
100
AcDbEntity
  8
000 - MARCOS
 62
     8
100
AcDbLine
 10
83.68906
 20
96.763154
 30
0.0
 11
82.18906
 21
96.763154
 31
0.0
  0
HATCH
  5
4A1
330
1F
100
AcDbEntity
  8
000 - MARCOS
 62
     8
440
 33554687
100
AcDbHatch
 10
0.0
 20
0.0
 30
0.0
210
0.0
220
0.0
230
1.0
  2
SOLID
 70
     1
 71
     0
 91
        2
 92
        7
 72
     0
 73
     1
 93
        4
 10
77.18280992789181
 20
96.81315374858687
 10
77.18280992789181
 20
96.71315374858742
 10
77.23280992789199
 20
96.71315374858696
 10
77.23280992789199
 20
96.81315374858687
 97
        0
 92
        7
 72
     0
 73
     1
 93
        4
 10
75.63280992789163
 20
96.81315374858733
 10
75.63280992789163
 20
96.71315374858742
 10
75.68280992789181
 20
96.71315374858742
 10
75.68280992789181
 20
96.81315374858733
 97
        0
 75
     1
 76
     1
 47
0.004639
 98
        2
 10
77.19005069333701
 20
96.77067283946272
 10
75.64447274457865
 20
96.76883050979487
450
        0
451
        0
460
0.0
461
0.0
452
        0
462
1.0
453
        2
463
0.0
 63
     5
421
      255
463
1.0
 63
     2
421
 16776960
470
LINEAR
1001
GradientColor1ACI
1070
     5
1001
GradientColor2ACI
1070
     2
1001
ACAD
1010
0.0
1020
0.0
1030
0.0
  0
LINE
  5
4A2
330
1F
100
AcDbEntity
  8
000 - MARCOS
 62
     8
100
AcDbLine
 10
77.18281
 20
96.713154
 30
0.0
 11
77.18281
 21
96.813154
 31
0.0
  0
LINE
  5
4A3
330
1F
100
AcDbEntity
  8
000 - MARCOS
 62
     8
100
AcDbLine
 10
77.23281
 20
96.713154
 30
0.0
 11
77.23281
 21
96.813154
 31
0.0
  0
LINE
  5
4A4
330
1F
100
AcDbEntity
  8
000 - MARCOS
 62
     8
100
AcDbLine
 10
75.68281
 20
96.813154
 30
0.0
 11
75.68281
 21
96.713154
 31
0.0
  0
LINE
  5
4A5
330
1F
100
AcDbEntity
  8
000 - MARCOS
 62
     8
100
AcDbLine
 10
75.63281
 20
96.813154
 30
0.0
 11
75.63281
 21
96.713154
 31
0.0
  0
LINE
  5
4A6
330
1F
100
AcDbEntity
  8
000 - MARCOS
 62
     8
100
AcDbLine
 10
75.68281
 20
96.813154
 30
0.0
 11
75.63281
 21
96.813154
 31
0.0
  0
LINE
  5
4A7
330
1F
100
AcDbEntity
  8
000 - MARCOS
 62
     8
100
AcDbLine
 10
75.63281
 20
96.713154
 30
0.0
 11
75.68281
 21
96.713154
 31
0.0
  0
LINE
  5
4A8
330
1F
100
AcDbEntity
  8
000 - MARCOS
 62
     8
100
AcDbLine
 10
77.23281
 20
96.813154
 30
0.0
 11
77.18281
 21
96.813154
 31
0.0
  0
LINE
  5
4A9
330
1F
100
AcDbEntity
  8
000 - MARCOS
 62
     8
100
AcDbLine
 10
77.18281
 20
96.713154
 30
0.0
 11
77.23281
 21
96.713154
 31
0.0
  0
LINE
  5
4AA
330
1F
100
AcDbEntity
  8
000 - MARCOS
 62
     8
100
AcDbLine
 10
77.18281
 20
96.763154
 30
0.0
 11
75.68281
 21
96.763154
 31
0.0
  0
LINE
  5
4AB
330
1F
100
AcDbEntity
  8
000 - MUROS
100
AcDbLine
 10
85.482185
 20
96.813154
 30
0.0
 11
83.73906
 21
96.813154
 31
0.0
  0
LINE
  5
4AC
330
1F
100
AcDbEntity
  8
000 - MUROS
100
AcDbLine
 10
83.73906
 20
96.713154
 30
0.0
 11
85.382185
 21
96.713154
 31
0.0
  0
LINE
  5
4AD
330
1F
100
AcDbEntity
  8
000 - PUERTAS
100
AcDbLine
 10
101.929685
 20
107.213154
 30
0.0
 11
102.029685
 21
107.213154
 31
0.0
  0
LINE
  5
4AE
330
1F
100
AcDbEntity
  8
000 - PUERTAS
100
AcDbLine
 10
101.929685
 20
107.213154
 30
0.0
 11
101.929685
 21
103.213154
 31
0.0
  0
LINE
  5
4AF
330
1F
100
AcDbEntity
  8
000 - PUERTAS
100
AcDbLine
 10
101.929685
 20
103.213154
 30
0.0
 11
102.029685
 21
103.213154
 31
0.0
  0
LINE
  5
4B0
330
1F
100
AcDbEntity
  8
000 - PUERTAS
100
AcDbLine
 10
102.029685
 20
103.213154
 30
0.0
 11
102.029685
 21
107.213154
 31
0.0
  0
LINE
  5
4B1
330
1F
100
AcDbEntity
  8
000 - MUROS
100
AcDbLine
 10
59.579685
 20
109.413154
 30
0.0
 11
75.779685
 21
109.413154
 31
0.0
  0
LINE
  5
4B2
330
1F
100
AcDbEntity
  8
000 - DURLOCK
100
AcDbLine
 10
67.529685
 20
91.313154
 30
0.0
 11
73.879685
 21
91.313154
 31
0.0
  0
LINE
  5
4B3
330
1F
100
AcDbEntity
  8
000 - DURLOCK
100
AcDbLine
 10
63.529685
 20
91.313154
 30
0.0
 11
63.529685
 21
91.413154
 31
0.0
  0
LINE
  5
4B4
330
1F
100
AcDbEntity
  8
000 - DURLOCK
100
AcDbLine
 10
63.529685
 20
91.413154
 30
0.0
 11
69.879685
 21
91.413154
 31
0.0
  0
LINE
  5
4B5
330
1F
100
AcDbEntity
  8
000 - DURLOCK
100
AcDbLine
 10
73.879685
 20
96.813154
 30
0.0
 11
73.879685
 21
96.713154
 31
0.0
  0
LINE
  5
4B6
330
1F
100
AcDbEntity
  8
000 - DURLOCK
100
AcDbLine
 10
73.879685
 20
91.313154
 30
0.0
 11
73.879685
 21
91.413154
 31
0.0
  0
LWPOLYLINE
  5
4B7
330
1F
100
AcDbEntity
  8
000 - MUROS
100
AcDbPolyline
 90
        6
 70
     0
 43
0.0
 10
102.829685
 20
91.313154
 10
47.479685
 20
91.313154
 10
47.479685
 20
109.413154
 10
59.279685
 20
109.413154
 10
59.279685
 20
101.813154
 10
60.979685
 20
101.813154
  0
LINE
  5
4B8
330
1F
100
AcDbEntity
  8
000 - MUROS
100
AcDbLine
 10
75.68281
 20
96.713154
 30
0.0
 11
75.68281
 21
96.813154
 31
0.0
  0
LINE
  5
4B9
330
1F
100
AcDbEntity
  8
000 - MUROS
100
AcDbLine
 10
77.23281
 20
96.713154
 30
0.0
 11
77.23281
 21
96.813154
 31
0.0
  0
LINE
  5
4BA
330
1F
100
AcDbEntity
  8
000 - MUROS
100
AcDbLine
 10
82.18906
 20
96.713154
 30
0.0
 11
82.18906
 21
96.813154
 31
0.0
  0
LINE
  5
4BB
330
1F
100
AcDbEntity
  8
000 - MUROS
100
AcDbLine
 10
83.73906
 20
96.713154
 30
0.0
 11
83.73906
 21
96.813154
 31
0.0
  0
LINE
  5
4BC
330
1F
100
AcDbEntity
  8
000 - MUROS
100
AcDbLine
 10
85.482185
 20
96.663154
 30
0.0
 11
85.382185
 21
96.663154
 31
0.0
  0
LINE
  5
4BD
330
1F
100
AcDbEntity
  8
000 - MUROS
100
AcDbLine
 10
85.382185
 20
95.463154
 30
0.0
 11
85.482185
 21
95.463154
 31
0.0
  0
LINE
  5
4BE
330
1F
100
AcDbEntity
  8
000 - MUROS
100
AcDbLine
 10
85.482185
 20
91.313154
 30
0.0
 11
85.382185
 21
91.313154
 31
0.0
  0
LINE
  5
4BF
330
1F
100
AcDbEntity
  8
000 - MUROS
100
AcDbLine
 10
87.079685
 20
91.313154
 30
0.0
 11
86.979685
 21
91.313154
 31
0.0
  0
LINE
  5
4C0
330
1F
100
AcDbEntity
  8
000 - MUROS
100
AcDbLine
 10
88.642185
 20
91.313154
 30
0.0
 11
88.542185
 21
91.313154
 31
0.0
  0
LINE
  5
4C1
330
1F
100
AcDbEntity
  8
000 - MUROS
100
AcDbLine
 10
90.204685
 20
91.313154
 30
0.0
 11
90.304685
 21
91.313154
 31
0.0
  0
LINE
  5
4C2
330
1F
100
AcDbEntity
  8
000 - MUROS
100
AcDbLine
 10
92.151636
 20
95.313154
 30
0.0
 11
92.151636
 21
95.413154
 31
0.0
  0
LINE
  5
4C3
330
1F
100
AcDbEntity
  8
000 - MUROS
100
AcDbLine
 10
93.751636
 20
95.313154
 30
0.0
 11
93.751636
 21
95.413154
 31
0.0
  0
LINE
  5
4C4
330
1F
100
AcDbEntity
  8
000 - MUROS
100
AcDbLine
 10
98.979685
 20
95.313154
 30
0.0
 11
98.979685
 21
95.413154
 31
0.0
  0
LINE
  5
4C5
330
1F
100
AcDbEntity
  8
000 - MUROS
100
AcDbLine
 10
101.979685
 20
95.313154
 30
0.0
 11
101.979685
 21
95.413154
 31
0.0
  0
LINE
  5
4C6
330
1F
100
AcDbEntity
  8
000 - MUROS
100
AcDbLine
 10
100.479685
 20
95.313154
 30
0.0
 11
100.479685
 21
95.413154
 31
0.0
  0
LINE
  5
4C7
330
1F
100
AcDbEntity
  8
000 - MUROS
100
AcDbLine
 10
96.854685
 20
91.313154
 30
0.0
 11
96.954685
 21
91.313154
 31
0.0
  0
LINE
  5
4C8
330
1F
100
AcDbEntity
  8
000 - DURLOCK
100
AcDbLine
 10
63.879685
 20
96.713154
 30
0.0
 11
63.879685
 21
96.813154
 31
0.0
  0
LINE
  5
4C9
330
1F
100
AcDbEntity
  8
000 - DURLOCK
100
AcDbLine
 10
65.079685
 20
96.713154
 30
0.0
 11
65.079685
 21
96.813154
 31
0.0
  0
LWPOLYLINE
  5
4CA
330
1F
100
AcDbEntity
  8
000 - DURLOCK
100
AcDbPolyline
 90
        2
 70
     0
 43
0.0
 10
73.879685
 20
96.813154
 10
71.029685
 20
96.813154
  0
LWPOLYLINE
  5
4CB
330
1F
100
AcDbEntity
  8
000 - DURLOCK
100
AcDbPolyline
 90
        3
 70
     0
 43
0.0
 10
70.129685
 20
96.813154
 10
69.879685
 20
96.813154
 10
69.879685
 20
91.313154
  0
LWPOLYLINE
  5
4CC
330
1F
100
AcDbEntity
  8
000 - DURLOCK
100
AcDbPolyline
 90
        2
 70
     0
 43
0.0
 10
73.879685
 20
96.713154
 10
71.029685
 20
96.713154
  0
LWPOLYLINE
  5
4CD
330
1F
100
AcDbEntity
  8
000 - DURLOCK
100
AcDbPolyline
 90
        3
 70
     0
 43
0.0
 10
70.129685
 20
96.713154
 10
69.979685
 20
96.713154
 10
69.979685
 20
91.313154
  0
INSERT
  5
4CE
330
1F
100
AcDbEntity
  8
000 - PUERTAS
100
AcDbBlockReference
  2
PUERTA 090
 10
-1663.45118
 20
-2462.900551
 30
0.0
 41
-1.0
 50
270.0
  0
LWPOLYLINE
  5
4CF
330
1F
100
AcDbEntity
  8
000 - DURLOCK
100
AcDbPolyline
 90
        2
 70
     0
 43
0.0
 10
70.129685
 20
96.713154
 10
70.129685
 20
96.813154
  0
LWPOLYLINE
  5
4D0
330
1F
100
AcDbEntity
  8
000 - DURLOCK
100
AcDbPolyline
 90
        2
 70
     0
 43
0.0
 10
71.029685
 20
96.713154
 10
71.029685
 20
96.813154
  0
LWPOLYLINE
  5
4D1
330
1F
100
AcDbEntity
  8
000 - REJAS
 48
0.05
100
AcDbPolyline
 90
        3
 70
     0
 43
0.0
 10
58.479685
 20
91.313154
 10
58.479685
 20
96.813154
 10
61.729685
 20
96.813154
  0
LWPOLYLINE
  5
4D2
330
1F
100
AcDbEntity
  8
000 - REJAS
 48
0.05
100
AcDbPolyline
 90
        3
 70
     0
 43
0.0
 10
58.529685
 20
91.313154
 10
58.529685
 20
96.763154
 10
61.729685
 20
96.763154
  0
LINE
  5
4D3
330
1F
100
AcDbEntity
  8
000 - REJAS
100
AcDbLine
 10
62.729685
 20
96.813154
 30
0.0
 11
62.729685
 21
96.763154
 31
0.0
  0
LINE
  5
4D4
330
1F
100
AcDbEntity
  8
000 - REJAS
100
AcDbLine
 10
62.729685
 20
96.763154
 30
0.0
 11
63.279685
 21
96.763154
 31
0.0
  0
LINE
  5
4D5
330
1F
100
AcDbEntity
  8
000 - REJAS
100
AcDbLine
 10
62.729685
 20
96.813154
 30
0.0
 11
63.279685
 21
96.813154
 31
0.0
  0
LINE
  5
4D6
330
1F
100
AcDbEntity
  8
000 - REJAS
 48
0.05
100
AcDbLine
 10
61.729685
 20
96.763154
 30
0.0
 11
61.729685
 21
96.813154
 31
0.0
  0
LINE
  5
4D7
330
1F
100
AcDbEntity
  8
000 - PUERTAS
100
AcDbLine
 10
61.779685
 20
96.813154
 30
0.0
 11
61.729685
 21
96.813154
 31
0.0
  0
LINE
  5
4D8
330
1F
100
AcDbEntity
  8
000 - PUERTAS
100
AcDbLine
 10
61.779685
 20
96.813154
 30
0.0
 11
61.779685
 21
97.813154
 31
0.0
  0
LINE
  5
4D9
330
1F
100
AcDbEntity
  8
000 - PUERTAS
100
AcDbLine
 10
61.779685
 20
97.813154
 30
0.0
 11
61.729685
 21
97.813154
 31
0.0
  0
LINE
  5
4DA
330
1F
100
AcDbEntity
  8
000 - PUERTAS
100
AcDbLine
 10
61.729685
 20
97.813154
 30
0.0
 11
61.729685
 21
96.813154
 31
0.0
  0
ARC
  5
4DB
330
1F
100
AcDbEntity
  8
000 - PUERTAS
100
AcDbCircle
 10
61.729685
 20
96.813154
 30
0.0
 40
1.0
100
AcDbArc
 50
0.0
 51
87.134016
  0
VIEWPORT
  5
20F
330
D6
100
AcDbEntity
 67
     1
  8
0
 48
100.0
100
AcDbViewport
 10
0.0
 20
0.0
 30
0.0
 40
466.965848
 41
238.196088
 68
     1
 69
     1
 12
128.5
 22
97.5
 13
0.0
 23
0.0
 14
10.0
 24
10.0
 15
10.0
 25
10.0
 16
0.0
 26
0.0
 36
1.0
 17
0.0
 27
0.0
 37
0.0
 42
50.0
 43
0.0
 44
0.0
 45
238.196088
 50
0.0
 51
0.0
 72
   100
 90
   557168
  1

281
     0
 71
     1
 74
     0
110
0.0
120
0.0
130
0.0
111
1.0
121
0.0
131
0.0
112
0.0
122
1.0
132
0.0
 79
     0
146
0.0
170
     0
 61
     5
348
F5
292
     1
282
     1
141
0.0
142
0.0
 63
   256
  0
ENDSEC
  0
SECTION
  2
OBJECTS
  0
DICTIONARY
  5
C
330
0
100
AcDbDictionary
281
     1
  3
ACAD_COLOR
350
6B
  3
ACAD_DETAILVIEWSTYLE
350
4E2
  3
ACAD_GROUP
350
D
  3
ACAD_IMAGE_DICT
350
351
  3
ACAD_LAYOUT
350
1A
  3
ACAD_MATERIAL
350
6A
  3
ACAD_MLEADERSTYLE
350
12D
  3
ACAD_MLINESTYLE
350
17
  3
ACAD_PLOTSETTINGS
350
19
  3
ACAD_PLOTSTYLENAME
350
E
  3
ACAD_SCALELIST
350
10C
  3
ACAD_SECTIONVIEWSTYLE
350
4E3
  3
ACAD_TABLESTYLE
350
7E
  3
ACAD_VISUALSTYLE
350
EF
  3
ACDB_RECOMPOSE_DATA
350
4E1
  3
AcDbVariableDictionary
350
5E
  3
MCS_STREAM_DICT
350
34E
  0
SUN
  5
364
330
EA
100
AcDbSun
 90
        1
290
     0
 63
     7
421
 16777215
 40
1.0
291
     1
 91
  2455826
 92
 54000000
292
     0
 70
     2
 71
   256
280
     1
  0
DICTIONARY
  5
4DC
330
2
100
AcDbDictionary
280
     1
281
     1
  3
ACAD_LAYERSTATES
360
4DD
  0
DICTIONARY
  5
234
330
1F
100
AcDbDictionary
280
     1
281
     1
  3
ACAD_SORTENTS
360
235
  0
DICTIONARY
  5
6B
102
{ACAD_REACTORS
330
C
102
}
330
C
100
AcDbDictionary
281
     1
  0
DICTIONARY
  5
4E2
102
{ACAD_REACTORS
330
C
102
}
330
C
100
AcDbDictionary
281
     1
  0
DICTIONARY
  5
D
102
{ACAD_REACTORS
330
C
102
}
330
C
100
AcDbDictionary
281
     1
  0
DICTIONARY
  5
351
102
{ACAD_REACTORS
330
C
102
}
330
C
100
AcDbDictionary
281
     1
  0
DICTIONARY
  5
1A
102
{ACAD_REACTORS
330
C
102
}
330
C
100
AcDbDictionary
281
     1
  3
A0
350
225
  3
A1
350
220
  3
A2
350
21B
  3
A3
350
216
  3
A4
350
211
  3
Layout1
350
D3
  3
Layout2
350
D7
  3
Model
350
22
  0
DICTIONARY
  5
6A
102
{ACAD_REACTORS
330
C
102
}
330
C
100
AcDbDictionary
281
     1
  3
ByBlock
350
ED
  3
ByLayer
350
EC
  3
Global
350
EE
  0
DICTIONARY
  5
12D
102
{ACAD_REACTORS
330
C
102
}
330
C
100
AcDbDictionary
281
     1
  3
Standard
350
12E
  3
Аннотативный
350
13B
  0
DICTIONARY
  5
17
102
{ACAD_REACTORS
330
C
102
}
330
C
100
AcDbDictionary
281
     1
  3
Standard
350
18
  0
DICTIONARY
  5
19
102
{ACAD_REACTORS
330
C
102
}
330
C
100
AcDbDictionary
281
     1
  0
ACDBDICTIONARYWDFLT
  5
E
102
{ACAD_REACTORS
330
C
102
}
330
C
100
AcDbDictionary
281
     1
  3
Normal
350
F
100
AcDbDictionaryWithDefault
340
F
  0
DICTIONARY
  5
10C
102
{ACAD_REACTORS
330
C
102
}
330
C
100
AcDbDictionary
281
     1
  3
A0
350
10D
  3
A1
350
1BE
  3
A2
350
1BF
  3
A3
350
1C0
  3
A4
350
1C1
  3
A5
350
1C2
  3
A6
350
1C3
  3
A7
350
1C4
  3
A8
350
1C5
  3
A9
350
1C6
  3
B0
350
1C7
  3
B1
350
1C8
  3
B2
350
1C9
  3
B3
350
1CA
  3
B4
350
1CB
  3
B5
350
1CC
  3
B6
350
1CD
  0
DICTIONARY
  5
4E3
102
{ACAD_REACTORS
330
C
102
}
330
C
100
AcDbDictionary
281
     1
  0
DICTIONARY
  5
7E
102
{ACAD_REACTORS
330
C
102
}
330
C
100
AcDbDictionary
281
     1
  3
Standard
350
7F
  0
DICTIONARY
  5
EF
102
{ACAD_REACTORS
330
C
102
}
330
C
100
AcDbDictionary
281
     1
  3
2dWireframe
350
F5
  3
3D Hidden
350
F7
  3
3dWireframe
350
F6
  3
Basic
350
F4
  3
Brighten
350
FB
  3
ColorChange
350
FF
  3
Conceptual
350
F8
  3
Dim
350
FA
  3
EdgeColorOff
350
35E
  3
Facepattern
350
FE
  3
Flat
350
F0
  3
FlatWithEdges
350
F1
  3
Gouraud
350
F2
  3
GouraudWithEdges
350
F3
  3
Hidden
350
35B
  3
JitterOff
350
35C
  3
Linepattern
350
FD
  3
OverhangOff
350
35D
  3
Realistic
350
F9
  3
Shaded
350
363
  3
Shaded with edges
350
362
  3
Shades of Gray
350
35F
  3
Sketchy
350
360
  3
Thicken
350
FC
  3
Wireframe
350
35A
  3
X-Ray
350
361
  0
XRECORD
  5
4E1
102
{ACAD_REACTORS
330
C
102
}
330
C
100
AcDbXrecord
280
     1
 90
        1
330
7F
  0
DICTIONARY
  5
5E
102
{ACAD_REACTORS
330
C
102
}
330
C
100
AcDbDictionary
281
     1
  3
CANNOSCALE
350
146
  3
CMLEADERSTYLE
350
145
  3
CTABLESTYLE
350
84
  3
DIMASSOC
350
5F
  3
HIDETEXT
350
63
  3
LAYEREVAL
350
1AE
  3
LAYERNOTIFY
350
1AF
  3
XCLIPFRAME
350
356
  0
DICTIONARY
  5
34E
102
{ACAD_REACTORS
330
C
102
}
330
C
100
AcDbDictionary
281
     1
  3
MC_VERSION_DATA
350
4DE
  3
MCS_DOCUMENT_ID
350
357
  3
MCS_PARAMS_DATA
350
365
  0
DICTIONARY
  5
4DD
102
{ACAD_REACTORS
330
4DC
102
}
330
4DC
100
AcDbDictionary
281
     1
  0
SORTENTSTABLE
  5
235
102
{ACAD_REACTORS
330
234
102
}
330
234
100
AcDbSortentsTable
330
1F
331
0
  5
237
  0
LAYOUT
  5
225
102
{ACAD_REACTORS
330
1A
102
}
330
1A
100
AcDbPlotSettings
  1

  2
none_device
  4
ISO_A0_(1189.00_x_841.00_MM)
  6

 40
7.5
 41
20.0
 42
7.5
 43
20.0
 44
1189.0
 45
841.0
 46
0.0
 47
0.0
 48
0.0
 49
0.0
140
0.0
141
0.0
142
1.0
143
1.0
 70
   688
 72
     1
 73
     0
 74
     5
  7

 75
    16
 76
     0
 77
     2
 78
   300
147
1.0
148
0.0
149
0.0
100
AcDbLayout
  1
A0
 70
     0
 71
     7
 10
0.0
 20
0.0
 11
0.0
 21
0.0
 12
0.0
 22
0.0
 32
0.0
 14
0.0
 24
0.0
 34
0.0
 15
0.0
 25
0.0
 35
0.0
146
0.0
 13
0.0
 23
0.0
 33
0.0
 16
1.0
 26
0.0
 36
0.0
 17
0.0
 27
1.0
 37
0.0
 76
     0
330
224
331
228
  0
LAYOUT
  5
220
102
{ACAD_REACTORS
330
1A
102
}
330
1A
100
AcDbPlotSettings
  1

  2
none_device
  4
ISO_A1_(841.00_x_594.00_MM)
  6

 40
7.5
 41
20.0
 42
7.5
 43
20.0
 44
841.0
 45
594.0
 46
0.0
 47
0.0
 48
0.0
 49
0.0
140
0.0
141
0.0
142
1.0
143
1.0
 70
   688
 72
     1
 73
     0
 74
     5
  7

 75
    16
 76
     0
 77
     2
 78
   300
147
1.0
148
0.0
149
0.0
100
AcDbLayout
  1
A1
 70
     1
 71
     6
 10
-20.0
 20
-7.5
 11
277.0
 21
202.5
 12
0.0
 22
0.0
 32
0.0
 14
0.0
 24
0.0
 34
0.0
 15
0.0
 25
0.0
 35
0.0
146
0.0
 13
0.0
 23
0.0
 33
0.0
 16
1.0
 26
0.0
 36
0.0
 17
0.0
 27
1.0
 37
0.0
 76
     0
330
21F
331
223
  0
LAYOUT
  5
21B
102
{ACAD_REACTORS
330
1A
102
}
330
1A
100
AcDbPlotSettings
  1

  2
none_device
  4
ISO_A2_(594.00_x_420.00_MM)
  6

 40
7.5
 41
20.0
 42
7.5
 43
20.0
 44
594.0
 45
420.0
 46
0.0
 47
0.0
 48
0.0
 49
0.0
140
0.0
141
0.0
142
1.0
143
1.0
 70
   688
 72
     1
 73
     0
 74
     5
  7

 75
    16
 76
     0
 77
     2
 78
   300
147
1.0
148
0.0
149
0.0
100
AcDbLayout
  1
A2
 70
     1
 71
     5
 10
0.0
 20
0.0
 11
0.0
 21
0.0
 12
0.0
 22
0.0
 32
0.0
 14
0.0
 24
0.0
 34
0.0
 15
0.0
 25
0.0
 35
0.0
146
0.0
 13
0.0
 23
0.0
 33
0.0
 16
1.0
 26
0.0
 36
0.0
 17
0.0
 27
1.0
 37
0.0
 76
     0
330
21A
331
21E
  0
LAYOUT
  5
216
102
{ACAD_REACTORS
330
1A
102
}
330
1A
100
AcDbPlotSettings
  1

  2
none_device
  4
ISO_A3_(420.00_x_297.00_MM)
  6

 40
7.5
 41
20.0
 42
7.5
 43
20.0
 44
420.0
 45
297.0
 46
0.0
 47
0.0
 48
0.0
 49
0.0
140
0.0
141
0.0
142
1.0
143
1.0
 70
   688
 72
     1
 73
     0
 74
     5
  7

 75
    16
 76
     0
 77
     2
 78
   300
147
1.0
148
0.0
149
0.0
100
AcDbLayout
  1
A3
 70
     1
 71
     4
 10
0.0
 20
0.0
 11
0.0
 21
0.0
 12
0.0
 22
0.0
 32
0.0
 14
0.0
 24
0.0
 34
0.0
 15
0.0
 25
0.0
 35
0.0
146
0.0
 13
0.0
 23
0.0
 33
0.0
 16
1.0
 26
0.0
 36
0.0
 17
0.0
 27
1.0
 37
0.0
 76
     0
330
215
331
219
  0
LAYOUT
  5
211
102
{ACAD_REACTORS
330
1A
102
}
330
1A
100
AcDbPlotSettings
  1

  2
none_device
  4
ISO_A4_(210.00_x_297.00_MM)
  6

 40
7.5
 41
20.0
 42
7.5
 43
20.0
 44
210.0
 45
297.0
 46
0.0
 47
0.0
 48
0.0
 49
0.0
140
0.0
141
0.0
142
1.0
143
1.0
 70
   688
 72
     1
 73
     0
 74
     5
  7

 75
    16
 76
     0
 77
     2
 78
   300
147
1.0
148
0.0
149
0.0
100
AcDbLayout
  1
A4
 70
     1
 71
     3
 10
0.0
 20
0.0
 11
0.0
 21
0.0
 12
0.0
 22
0.0
 32
0.0
 14
0.0
 24
0.0
 34
0.0
 15
0.0
 25
0.0
 35
0.0
146
0.0
 13
0.0
 23
0.0
 33
0.0
 16
1.0
 26
0.0
 36
0.0
 17
0.0
 27
1.0
 37
0.0
 76
     0
330
210
331
214
  0
LAYOUT
  5
D3
102
{ACAD_REACTORS
330
1A
102
}
330
1A
100
AcDbPlotSettings
  1

  2
none_device
  4
ISO_A4_(210.00_x_297.00_MM)
  6

 40
7.5
 41
20.0
 42
7.5
 43
20.0
 44
210.0
 45
297.0
 46
0.0
 47
0.0
 48
0.0
 49
0.0
140
0.0
141
0.0
142
1.0
143
1.0
 70
   688
 72
     1
 73
     1
 74
     5
  7

 75
    16
 76
     0
 77
     2
 78
   300
147
1.0
148
0.0
149
0.0
100
AcDbLayout
  1
Layout1
 70
     0
 71
     1
 10
0.0
 20
0.0
 11
12.0
 21
9.0
 12
0.0
 22
0.0
 32
0.0
 14
0.0
 24
0.0
 34
0.0
 15
0.0
 25
0.0
 35
0.0
146
0.0
 13
0.0
 23
0.0
 33
0.0
 16
1.0
 26
0.0
 36
0.0
 17
0.0
 27
1.0
 37
0.0
 76
     0
330
D2
331
229
  0
LAYOUT
  5
D7
102
{ACAD_REACTORS
330
1A
102
}
330
1A
100
AcDbPlotSettings
  1

  2
none_device
  4
ISO_A4_(210.00_x_297.00_MM)
  6

 40
7.5
 41
20.0
 42
7.5
 43
20.0
 44
210.0
 45
297.0
 46
0.0
 47
0.0
 48
0.0
 49
0.0
140
0.0
141
0.0
142
1.0
143
1.0
 70
   688
 72
     1
 73
     1
 74
     5
  7

 75
    16
 76
     0
 77
     2
 78
   300
147
1.0
148
0.0
149
0.0
100
AcDbLayout
  1
Layout2
 70
     0
 71
     2
 10
-20.0
 20
-7.5
 11
277.0
 21
202.5
 12
0.0
 22
0.0
 32
0.0
 14
0.0
 24
0.0
 34
0.0
 15
0.0
 25
0.0
 35
0.0
146
0.0
 13
0.0
 23
0.0
 33
0.0
 16
1.0
 26
0.0
 36
0.0
 17
0.0
 27
1.0
 37
0.0
 76
     0
330
D6
331
20F
  0
LAYOUT
  5
22
102
{ACAD_REACTORS
330
1A
102
}
102
{ACAD_XDICTIONARY
360
358
102
}
330
1A
100
AcDbPlotSettings
  1

  2
none_device
  4
ISO_A4_(210.00_x_297.00_MM)
  6

 40
7.5
 41
20.0
 42
7.5
 43
20.0
 44
210.0
 45
297.0
 46
0.0
 47
0.0
 48
0.0
 49
0.0
140
0.0
141
0.0
142
1.0
143
3.249677
 70
 11952
 72
     1
 73
     0
 74
     0
  7

 75
     0
 76
     0
 77
     2
 78
   300
147
0.307723
148
0.0
149
0.0
100
AcDbLayout
  1
Model
 70
     1
 71
     0
 10
0.0
 20
0.0
 11
420.0
 21
297.0
 12
0.0
 22
0.0
 32
0.0
 14
47.179685
 24
91.013154
 34
0.0
 15
104.179685
 25
109.713154
 35
0.0
146
0.0
 13
0.0
 23
0.0
 33
0.0
 16
1.0
 26
0.0
 36
0.0
 17
0.0
 27
1.0
 37
0.0
 76
     0
330
1F
331
EA
1001
ACAD_PSEXT
1000
None
1000
None
1000
Not applicable
1000
The layout will not be plotted unless a new plotter configuration name is selected.
1070
     0
  0
MATERIAL
  5
ED
102
{ACAD_REACTORS
330
6A
102
}
330
6A
100
AcDbMaterial
  1
ByBlock
 72
     1
 73
     2
 78
     2
172
     2
176
     2
270
     2
274
     2
 94
       63
  0
MATERIAL
  5
EC
102
{ACAD_REACTORS
330
6A
102
}
330
6A
100
AcDbMaterial
  1
ByLayer
 72
     1
 73
     2
 78
     2
172
     2
176
     2
270
     2
274
     2
 94
       63
  0
MATERIAL
  5
EE
102
{ACAD_REACTORS
330
6A
102
}
330
6A
100
AcDbMaterial
  1
Global
 72
     1
 73
     2
 43
0.0008
 43
0.0
 43
0.0
 43
0.0
 43
0.0
 43
0.0008
 43
0.0
 43
0.0
 43
0.0
 43
0.0
 43
1.0
 43
0.0
 43
0.0
 43
0.0
 43
0.0
 43
1.0
 78
     2
172
     2
 49
0.0008
 49
0.0
 49
0.0
 49
0.0
 49
0.0
 49
0.0008
 49
0.0
 49
0.0
 49
0.0
 49
0.0
 49
1.0
 49
0.0
 49
0.0
 49
0.0
 49
0.0
 49
1.0
176
     2
142
0.0008
142
0.0
142
0.0
142
0.0
142
0.0
142
0.0008
142
0.0
142
0.0
142
0.0
142
0.0
142
1.0
142
0.0
142
0.0
142
0.0
142
0.0
142
1.0
270
     2
144
0.0008
144
0.0
144
0.0
144
0.0
144
0.0
144
0.0008
144
0.0
144
0.0
144
0.0
144
0.0
144
1.0
144
0.0
144
0.0
144
0.0
144
0.0
144
1.0
274
     2
 94
       63
1001
ACAD
1070
    -1
1070
     3
1070
     0
1000

1071
        0
1070
     0
  0
MLEADERSTYLE
  5
12E
102
{ACAD_REACTORS
330
12D
102
}
330
12D
100
AcDbMLeaderStyle
179
     2
170
     2
171
     1
172
     0
 90
        2
 40
0.0
 41
0.0
173
     1
 91
-1056964608
340
14
 92
       -2
290
     1
 42
2.0
291
     1
 43
8.0
  3
Standard
341
0
 44
4.0
300

342
11
174
     1
178
     1
175
     1
176
     0
 93
-1056964608
 45
4.0
292
     0
297
     0
 46
4.0
343
0
 94
-1056964608
 47
1.0
 49
1.0
140
1.0
293
     1
141
0.0
294
     1
177
     0
142
1.0
295
     0
296
     0
143
3.75
271
     0
272
     9
273
     9
298
     0
1001
ACAD_MLEADERVER
1070
     2
  0
MLEADERSTYLE
  5
13B
102
{ACAD_REACTORS
330
12D
102
}
330
12D
100
AcDbMLeaderStyle
179
     2
170
     2
171
     1
172
     0
 90
        2
 40
0.0
 41
0.0
173
     1
 91
-1056964608
340
14
 92
       -2
290
     1
 42
2.0
291
     1
 43
8.0
  3
Standard
341
0
 44
4.0
300

342
11
174
     1
178
     1
175
     1
176
     0
 93
-1056964608
 45
4.0
292
     0
297
     0
 46
4.0
343
0
 94
-1056964608
 47
1.0
 49
1.0
140
1.0
293
     1
141
0.0
294
     1
177
     0
142
1.0
295
     1
296
     0
143
3.75
271
     0
272
     9
273
     9
298
     0
1001
ACAD_MLEADERVER
1070
     2
  0
MLINESTYLE
  5
18
102
{ACAD_REACTORS
330
17
102
}
330
17
100
AcDbMlineStyle
  2
STANDARD
 70
     0
  3

 62
   256
 51
90.0
 52
90.0
 71
     2
 49
0.5
 62
   256
  6
BYLAYER
 49
-0.5
 62
   256
  6
BYLAYER
  0
ACDBPLACEHOLDER
  5
F
102
{ACAD_REACTORS
330
E
102
}
330
E
  0
SCALE
  5
10D
102
{ACAD_REACTORS
330
10C
102
}
330
10C
100
AcDbScale
 70
     0
300
1:1
140
1.0
141
1.0
290
     1
  0
SCALE
  5
1BE
102
{ACAD_REACTORS
330
10C
102
}
330
10C
100
AcDbScale
 70
     0
300
1:2
140
1.0
141
2.0
290
     0
  0
SCALE
  5
1BF
102
{ACAD_REACTORS
330
10C
102
}
330
10C
100
AcDbScale
 70
     0
300
1:4
140
1.0
141
4.0
290
     0
  0
SCALE
  5
1C0
102
{ACAD_REACTORS
330
10C
102
}
330
10C
100
AcDbScale
 70
     0
300
1:5
140
1.0
141
5.0
290
     0
  0
SCALE
  5
1C1
102
{ACAD_REACTORS
330
10C
102
}
330
10C
100
AcDbScale
 70
     0
300
1:8
140
1.0
141
8.0
290
     0
  0
SCALE
  5
1C2
102
{ACAD_REACTORS
330
10C
102
}
330
10C
100
AcDbScale
 70
     0
300
1:10
140
1.0
141
10.0
290
     0
  0
SCALE
  5
1C3
102
{ACAD_REACTORS
330
10C
102
}
330
10C
100
AcDbScale
 70
     0
300
1:16
140
1.0
141
16.0
290
     0
  0
SCALE
  5
1C4
102
{ACAD_REACTORS
330
10C
102
}
330
10C
100
AcDbScale
 70
     0
300
1:20
140
1.0
141
20.0
290
     0
  0
SCALE
  5
1C5
102
{ACAD_REACTORS
330
10C
102
}
330
10C
100
AcDbScale
 70
     0
300
1:30
140
1.0
141
30.0
290
     0
  0
SCALE
  5
1C6
102
{ACAD_REACTORS
330
10C
102
}
330
10C
100
AcDbScale
 70
     0
300
1:40
140
1.0
141
40.0
290
     0
  0
SCALE
  5
1C7
102
{ACAD_REACTORS
330
10C
102
}
330
10C
100
AcDbScale
 70
     0
300
1:50
140
1.0
141
50.0
290
     0
  0
SCALE
  5
1C8
102
{ACAD_REACTORS
330
10C
102
}
330
10C
100
AcDbScale
 70
     0
300
1:100
140
1.0
141
100.0
290
     0
  0
SCALE
  5
1C9
102
{ACAD_REACTORS
330
10C
102
}
330
10C
100
AcDbScale
 70
     0
300
2:1
140
2.0
141
1.0
290
     0
  0
SCALE
  5
1CA
102
{ACAD_REACTORS
330
10C
102
}
330
10C
100
AcDbScale
 70
     0
300
4:1
140
4.0
141
1.0
290
     0
  0
SCALE
  5
1CB
102
{ACAD_REACTORS
330
10C
102
}
330
10C
100
AcDbScale
 70
     0
300
8:1
140
8.0
141
1.0
290
     0
  0
SCALE
  5
1CC
102
{ACAD_REACTORS
330
10C
102
}
330
10C
100
AcDbScale
 70
     0
300
10:1
140
10.0
141
1.0
290
     0
  0
SCALE
  5
1CD
102
{ACAD_REACTORS
330
10C
102
}
330
10C
100
AcDbScale
 70
     0
300
100:1
140
100.0
141
1.0
290
     0
  0
TABLESTYLE
  5
7F
102
{ACAD_REACTORS
330
7E
102
}
102
{ACAD_XDICTIONARY
360
4DF
102
}
330
7E
100
AcDbTableStyle
  3
Standard
 70
     0
 71
     0
 40
1.5
 41
1.5
280
     0
281
     0
  7
Standard
140
4.5
170
     2
 62
     0
 63
   257
283
     0
 90
      512
 91
        0
  1

274
    -2
284
     1
 64
     0
275
    -2
285
     1
 65
     0
276
    -2
286
     1
 66
     0
277
    -2
287
     1
 67
     0
278
    -2
288
     1
 68
     0
279
    -2
289
     1
 69
     0
  7
Standard
140
6.0
170
     5
 62
     0
 63
   257
283
     0
 90
      512
 91
        0
  1

274
    -2
284
     1
 64
     0
275
    -2
285
     1
 65
     0
276
    -2
286
     1
 66
     0
277
    -2
287
     1
 67
     0
278
    -2
288
     1
 68
     0
279
    -2
289
     1
 69
     0
  7
Standard
140
4.5
170
     5
 62
     0
 63
   257
283
     0
 90
      512
 91
        0
  1

274
    -2
284
     1
 64
     0
275
    -2
285
     1
 65
     0
276
    -2
286
     1
 66
     0
277
    -2
287
     1
 67
     0
278
    -2
288
     1
 68
     0
279
    -2
289
     1
 69
     0
  0
VISUALSTYLE
  5
F5
102
{ACAD_REACTORS
330
EF
102
}
330
EF
100
AcDbVisualStyle
  2
2dWireframe
 70
     4
177
     3
291
     0
 70
    58
 90
        0
176
     1
 90
        2
176
     1
 90
        1
176
     1
 90
        0
176
     1
 40
-0.6
176
     1
 40
-30.0
176
     1
 62
     7
420
 16777215
176
     1
 90
        1
176
     1
 90
        4
176
     1
 62
     7
176
     1
 62
   257
176
     1
 90
        1
176
     1
 90
        1
176
     1
 40
1.0
176
     1
 90
        0
176
     1
 62
   257
176
     1
 40
1.0
176
     1
 90
        1
176
     1
 90
        6
176
     1
 90
        2
176
     1
 62
     7
176
     1
 90
        5
176
     1
 90
        0
176
     1
 90
        0
176
     1
290
     0
176
     1
 90
        1
176
     1
 40
0.0
176
     1
 90
        0
176
     1
290
     1
176
     1
290
     1
176
     1
290
     0
176
     1
290
     0
176
     1
290
     0
176
     1
290
     0
176
     1
290
     0
176
     1
290
     0
176
     1
290
     0
176
     1
 90
       50
176
     1
 40
0.0
176
     1
 40
1.0
176
     1
 90
        0
176
     1
 62
    18
420
        0
176
     1
 90
       50
176
     1
 90
        3
176
     1
 62
     5
420
      255
176
     1
290
     0
176
     1
 90
       50
176
     1
 90
       50
176
     1
 90
       50
176
     1
290
     0
176
     1
 90
       50
176
     1
 62
   256
176
     0
 40
1.0
176
     0
 90
        2
176
     1
  1
strokes_ogs.tif
176
     1
290
     0
176
     1
 40
1.0
176
     1
 40
1.0
176
     1
  0
VISUALSTYLE
  5
F7
102
{ACAD_REACTORS
330
EF
102
}
330
EF
100
AcDbVisualStyle
  2
3D Hidden
 70
     6
177
     3
291
     0
 70
    58
 90
        1
176
     1
 90
        2
176
     1
 90
        2
176
     1
 90
        0
176
     1
 40
-0.6
176
     1
 40
-30.0
176
     1
 62
     7
420
 16777215
176
     1
 90
        2
176
     1
 90
        2
176
     1
 62
     7
176
     1
 62
   257
176
     1
 90
        2
176
     1
 90
        1
176
     1
 40
40.0
176
     1
 90
        0
176
     1
 62
   257
176
     1
 40
1.0
176
     1
 90
        1
176
     1
 90
        6
176
     1
 90
        2
176
     1
 62
     7
176
     1
 90
        3
176
     1
 90
        0
176
     1
 90
        0
176
     1
290
     0
176
     1
 90
        1
176
     1
 40
0.0
176
     1
 90
        0
176
     1
290
     0
176
     1
290
     1
176
     1
290
     1
176
     1
290
     0
176
     1
290
     0
176
     1
290
     0
176
     1
290
     0
176
     1
290
     0
176
     1
290
     0
176
     1
 90
       50
176
     1
 40
0.0
176
     1
 40
1.0
176
     1
 90
        0
176
     1
 62
    18
420
        0
176
     1
 90
       50
176
     1
 90
        3
176
     1
 62
     5
420
      255
176
     1
290
     0
176
     1
 90
       50
176
     1
 90
       50
176
     1
 90
       50
176
     1
290
     0
176
     1
 90
       50
176
     1
 62
   256
176
     0
 40
1.0
176
     0
 90
        2
176
     1
  1
strokes_ogs.tif
176
     1
290
     0
176
     1
 40
1.0
176
     1
 40
1.0
176
     1
  0
VISUALSTYLE
  5
F6
102
{ACAD_REACTORS
330
EF
102
}
330
EF
100
AcDbVisualStyle
  2
3dWireframe
 70
     5
177
     3
291
     0
 70
    58
 90
        0
176
     1
 90
        2
176
     1
 90
        1
176
     1
 90
        0
176
     1
 40
-0.6
176
     1
 40
-30.0
176
     1
 62
     7
420
 16777215
176
     1
 90
        1
176
     1
 90
        4
176
     1
 62
     7
176
     1
 62
   257
176
     1
 90
        1
176
     1
 90
        1
176
     1
 40
1.0
176
     1
 90
        0
176
     1
 62
   257
176
     1
 40
1.0
176
     1
 90
        1
176
     1
 90
        6
176
     1
 90
        2
176
     1
 62
     7
176
     1
 90
        5
176
     1
 90
        0
176
     1
 90
        0
176
     1
290
     0
176
     1
 90
        1
176
     1
 40
0.0
176
     1
 90
        0
176
     1
290
     0
176
     1
290
     1
176
     1
290
     1
176
     1
290
     0
176
     1
290
     0
176
     1
290
     0
176
     1
290
     0
176
     1
290
     0
176
     1
290
     0
176
     1
 90
       50
176
     1
 40
0.0
176
     1
 40
1.0
176
     1
 90
        0
176
     1
 62
    18
420
        0
176
     1
 90
       50
176
     1
 90
        3
176
     1
 62
     5
420
      255
176
     1
290
     0
176
     1
 90
       50
176
     1
 90
       50
176
     1
 90
       50
176
     1
290
     0
176
     1
 90
       50
176
     1
 62
   256
176
     0
 40
1.0
176
     0
 90
        2
176
     1
  1
strokes_ogs.tif
176
     1
290
     0
176
     1
 40
1.0
176
     1
 40
1.0
176
     1
  0
VISUALSTYLE
  5
F4
102
{ACAD_REACTORS
330
EF
102
}
330
EF
100
AcDbVisualStyle
  2
Basic
 70
     7
177
     3
291
     1
 70
    58
 90
        1
176
     1
 90
        0
176
     1
 90
        1
176
     1
 90
        0
176
     1
 40
-0.6
176
     1
 40
-30.0
176
     1
 62
     7
420
 16777215
176
     1
 90
        0
176
     1
 90
        4
176
     1
 62
     7
176
     1
 62
   257
176
     1
 90
        1
176
     1
 90
        1
176
     1
 40
1.0
176
     1
 90
        8
176
     1
 62
     7
176
     1
 40
1.0
176
     1
 90
        1
176
     1
 90
        6
176
     1
 90
        2
176
     1
 62
     7
176
     1
 90
        5
176
     1
 90
        0
176
     1
 90
        0
176
     1
290
     0
176
     1
 90
        1
176
     1
 40
0.0
176
     1
 90
        0
176
     1
290
     0
176
     1
290
     1
176
     1
290
     1
176
     1
290
     0
176
     1
290
     0
176
     1
290
     0
176
     1
290
     0
176
     1
290
     0
176
     1
290
     0
176
     1
 90
       50
176
     1
 40
0.0
176
     1
 40
1.0
176
     1
 90
        0
176
     1
 62
    18
420
        0
176
     1
 90
       50
176
     1
 90
        3
176
     1
 62
     5
420
      255
176
     1
290
     0
176
     1
 90
       50
176
     1
 90
       50
176
     1
 90
       50
176
     1
290
     0
176
     1
 90
       50
176
     1
 62
   256
176
     0
 40
1.0
176
     0
 90
        2
176
     1
  1
strokes_ogs.tif
176
     1
290
     0
176
     1
 40
1.0
176
     1
 40
1.0
176
     1
  0
VISUALSTYLE
  5
FB
102
{ACAD_REACTORS
330
EF
102
}
330
EF
100
AcDbVisualStyle
  2
Brighten
 70
    12
177
     3
291
     1
 70
    58
 90
        2
176
     1
 90
        2
176
     1
 90
        1
176
     1
 90
        0
176
     1
 40
-0.6
176
     1
 40
-30.0
176
     1
 62
     7
420
 16777215
176
     1
 90
        1
176
     1
 90
        4
176
     1
 62
     7
176
     1
 62
   257
176
     1
 90
        1
176
     1
 90
        1
176
     1
 40
1.0
176
     1
 90
        8
176
     1
 62
     7
176
     1
 40
1.0
176
     1
 90
        1
176
     1
 90
        6
176
     1
 90
        2
176
     1
 62
     7
176
     1
 90
        5
176
     1
 90
        0
176
     1
 90
        0
176
     1
290
     0
176
     1
 90
        1
176
     1
 40
50.0
176
     1
 90
        0
176
     1
290
     0
176
     1
290
     1
176
     1
290
     1
176
     1
290
     0
176
     1
290
     0
176
     1
290
     0
176
     1
290
     0
176
     1
290
     0
176
     1
290
     0
176
     1
 90
       50
176
     1
 40
0.0
176
     1
 40
1.0
176
     1
 90
        0
176
     1
 62
    18
420
        0
176
     1
 90
       50
176
     1
 90
        3
176
     1
 62
     5
420
      255
176
     1
290
     0
176
     1
 90
       50
176
     1
 90
       50
176
     1
 90
       50
176
     1
290
     0
176
     1
 90
       50
176
     1
 62
   256
176
     0
 40
1.0
176
     0
 90
        2
176
     1
  1
strokes_ogs.tif
176
     1
290
     0
176
     1
 40
1.0
176
     1
 40
1.0
176
     1
  0
VISUALSTYLE
  5
FF
102
{ACAD_REACTORS
330
EF
102
}
330
EF
100
AcDbVisualStyle
  2
ColorChange
 70
    16
177
     3
291
     1
 70
    58
 90
        2
176
     1
 90
        2
176
     1
 90
        3
176
     1
 90
        0
176
     1
 40
-0.6
176
     1
 40
-30.0
176
     1
 62
     8
420
  8421504
176
     1
 90
        1
176
     1
 90
        4
176
     1
 62
     7
176
     1
 62
   257
176
     1
 90
        1
176
     1
 90
        1
176
     1
 40
1.0
176
     1
 90
        8
176
     1
 62
     8
420
  8421504
176
     1
 40
1.0
176
     1
 90
        1
176
     1
 90
        6
176
     1
 90
        2
176
     1
 62
     7
176
     1
 90
        5
176
     1
 90
        0
176
     1
 90
        0
176
     1
290
     0
176
     1
 90
        1
176
     1
 40
0.0
176
     1
 90
        0
176
     1
290
     0
176
     1
290
     1
176
     1
290
     1
176
     1
290
     0
176
     1
290
     0
176
     1
290
     0
176
     1
290
     0
176
     1
290
     0
176
     1
290
     0
176
     1
 90
       50
176
     1
 40
0.0
176
     1
 40
1.0
176
     1
 90
        0
176
     1
 62
    18
420
        0
176
     1
 90
       50
176
     1
 90
        3
176
     1
 62
     5
420
      255
176
     1
290
     0
176
     1
 90
       50
176
     1
 90
       50
176
     1
 90
       50
176
     1
290
     0
176
     1
 90
       50
176
     1
 62
   256
176
     0
 40
1.0
176
     0
 90
        2
176
     1
  1
strokes_ogs.tif
176
     1
290
     0
176
     1
 40
1.0
176
     1
 40
1.0
176
     1
  0
VISUALSTYLE
  5
F8
102
{ACAD_REACTORS
330
EF
102
}
330
EF
100
AcDbVisualStyle
  2
Conceptual
 70
     9
177
     3
291
     0
 70
    58
 90
        3
176
     1
 90
        2
176
     1
 90
        1
176
     1
 90
        0
176
     1
 40
-0.6
176
     1
 40
-30.0
176
     1
 62
     7
420
 16777215
176
     1
 90
        2
176
     1
 90
        2
176
     1
 62
     7
176
     1
 62
   257
176
     1
 90
        1
176
     1
 90
        1
176
     1
 40
40.0
176
     1
 90
        8
176
     1
 62
     7
176
     1
 40
1.0
176
     1
 90
        1
176
     1
 90
        6
176
     1
 90
        2
176
     1
 62
     7
176
     1
 90
        3
176
     1
 90
        0
176
     1
 90
        0
176
     1
290
     0
176
     1
 90
        1
176
     1
 40
0.0
176
     1
 90
        0
176
     1
290
     0
176
     1
290
     1
176
     1
290
     1
176
     1
290
     0
176
     1
290
     0
176
     1
290
     0
176
     1
290
     0
176
     1
290
     0
176
     1
290
     0
176
     1
 90
       50
176
     1
 40
0.0
176
     1
 40
1.0
176
     1
 90
        0
176
     1
 62
    18
420
        0
176
     1
 90
       50
176
     1
 90
        3
176
     1
 62
     5
420
      255
176
     1
290
     0
176
     1
 90
       50
176
     1
 90
       50
176
     1
 90
       50
176
     1
290
     0
176
     1
 90
       50
176
     1
 62
   256
176
     0
 40
1.0
176
     0
 90
        2
176
     1
  1
strokes_ogs.tif
176
     1
290
     0
176
     1
 40
1.0
176
     1
 40
1.0
176
     1
  0
VISUALSTYLE
  5
FA
102
{ACAD_REACTORS
330
EF
102
}
330
EF
100
AcDbVisualStyle
  2
Dim
 70
    11
177
     3
291
     1
 70
    58
 90
        2
176
     1
 90
        2
176
     1
 90
        1
176
     1
 90
        0
176
     1
 40
-0.6
176
     1
 40
-30.0
176
     1
 62
     7
420
 16777215
176
     1
 90
        1
176
     1
 90
        4
176
     1
 62
     7
176
     1
 62
   257
176
     1
 90
        1
176
     1
 90
        1
176
     1
 40
1.0
176
     1
 90
        8
176
     1
 62
     7
176
     1
 40
1.0
176
     1
 90
        1
176
     1
 90
        6
176
     1
 90
        2
176
     1
 62
     7
176
     1
 90
        5
176
     1
 90
        0
176
     1
 90
        0
176
     1
290
     0
176
     1
 90
        1
176
     1
 40
-50.0
176
     1
 90
        0
176
     1
290
     0
176
     1
290
     1
176
     1
290
     1
176
     1
290
     0
176
     1
290
     0
176
     1
290
     0
176
     1
290
     0
176
     1
290
     0
176
     1
290
     0
176
     1
 90
       50
176
     1
 40
0.0
176
     1
 40
1.0
176
     1
 90
        0
176
     1
 62
    18
420
        0
176
     1
 90
       50
176
     1
 90
        3
176
     1
 62
     5
420
      255
176
     1
290
     0
176
     1
 90
       50
176
     1
 90
       50
176
     1
 90
       50
176
     1
290
     0
176
     1
 90
       50
176
     1
 62
   256
176
     0
 40
1.0
176
     0
 90
        2
176
     1
  1
strokes_ogs.tif
176
     1
290
     0
176
     1
 40
1.0
176
     1
 40
1.0
176
     1
  0
VISUALSTYLE
  5
35E
102
{ACAD_REACTORS
330
EF
102
}
330
EF
100
AcDbVisualStyle
  2
EdgeColorOff
 70
    22
177
     3
291
     1
 70
    58
 90
        2
176
     0
 90
        2
176
     0
 90
        0
176
     0
 90
        0
176
     0
 40
0.6
176
     0
 40
30.0
176
     0
 62
     7
420
 16777215
176
     0
 90
        1
176
     0
 90
        4
176
     0
 62
     7
176
     0
 62
   257
176
     0
 90
        1
176
     0
 90
        1
176
     0
 40
1.0
176
     0
 90
        8
176
     2
 62
     7
176
     0
 40
1.0
176
     0
 90
        1
176
     0
 90
        6
176
     0
 90
        2
176
     0
 62
     7
176
     0
 90
        5
176
     0
 90
        0
176
     0
 90
        0
176
     0
290
     0
176
     0
 90
        1
176
     0
 40
0.0
176
     0
 90
        0
176
     0
290
     0
176
     0
290
     1
176
     0
290
     1
176
     0
290
     0
176
     0
290
     0
176
     0
290
     0
176
     0
290
     0
176
     0
290
     0
176
     0
290
     0
176
     0
 90
       50
176
     0
 40
0.0
176
     0
 40
1.0
176
     0
 90
        0
176
     0
 62
    18
420
        0
176
     0
 90
       50
176
     0
 90
        3
176
     0
 62
     5
420
      255
176
     0
290
     0
176
     0
 90
       50
176
     0
 90
       50
176
     0
 90
       50
176
     0
290
     0
176
     0
 90
       50
176
     0
 62
   256
176
     0
 40
1.0
176
     0
 90
        2
176
     0
  1
strokes_ogs.tif
176
     0
290
     0
176
     0
 40
1.0
176
     0
 40
1.0
176
     0
  0
VISUALSTYLE
  5
FE
102
{ACAD_REACTORS
330
EF
102
}
330
EF
100
AcDbVisualStyle
  2
Facepattern
 70
    15
177
     3
291
     1
 70
    58
 90
        2
176
     1
 90
        2
176
     1
 90
        1
176
     1
 90
        0
176
     1
 40
-0.6
176
     1
 40
-30.0
176
     1
 62
     7
420
 16777215
176
     1
 90
        1
176
     1
 90
        4
176
     1
 62
     7
176
     1
 62
   257
176
     1
 90
        1
176
     1
 90
        1
176
     1
 40
1.0
176
     1
 90
        8
176
     1
 62
     7
176
     1
 40
1.0
176
     1
 90
        1
176
     1
 90
        6
176
     1
 90
        2
176
     1
 62
     7
176
     1
 90
        5
176
     1
 90
        0
176
     1
 90
        0
176
     1
290
     0
176
     1
 90
        1
176
     1
 40
0.0
176
     1
 90
        0
176
     1
290
     0
176
     1
290
     1
176
     1
290
     1
176
     1
290
     0
176
     1
290
     0
176
     1
290
     0
176
     1
290
     0
176
     1
290
     0
176
     1
290
     0
176
     1
 90
       50
176
     1
 40
0.0
176
     1
 40
1.0
176
     1
 90
        0
176
     1
 62
    18
420
        0
176
     1
 90
       50
176
     1
 90
        3
176
     1
 62
     5
420
      255
176
     1
290
     0
176
     1
 90
       50
176
     1
 90
       50
176
     1
 90
       50
176
     1
290
     0
176
     1
 90
       50
176
     1
 62
   256
176
     0
 40
1.0
176
     0
 90
        2
176
     1
  1
strokes_ogs.tif
176
     1
290
     0
176
     1
 40
1.0
176
     1
 40
1.0
176
     1
  0
VISUALSTYLE
  5
F0
102
{ACAD_REACTORS
330
EF
102
}
330
EF
100
AcDbVisualStyle
  2
Flat
 70
     0
177
     3
291
     1
 70
    58
 90
        2
176
     1
 90
        1
176
     1
 90
        1
176
     1
 90
        2
176
     1
 40
-0.6
176
     1
 40
30.0
176
     1
 62
     7
420
 16777215
176
     1
 90
        0
176
     1
 90
        4
176
     1
 62
     7
176
     1
 62
   257
176
     1
 90
        1
176
     1
 90
        1
176
     1
 40
1.0
176
     1
 90
        8
176
     1
 62
     7
176
     1
 40
1.0
176
     1
 90
        1
176
     1
 90
        6
176
     1
 90
        2
176
     1
 62
     7
176
     1
 90
        5
176
     1
 90
        0
176
     1
 90
        0
176
     1
290
     0
176
     1
 90
        1
176
     1
 40
0.0
176
     1
 90
        0
176
     1
290
     0
176
     1
290
     1
176
     1
290
     1
176
     1
290
     0
176
     1
290
     0
176
     1
290
     0
176
     1
290
     0
176
     1
290
     0
176
     1
290
     0
176
     1
 90
       50
176
     1
 40
0.0
176
     1
 40
1.0
176
     1
 90
        0
176
     1
 62
    18
420
        0
176
     1
 90
       50
176
     1
 90
        3
176
     1
 62
     5
420
      255
176
     1
290
     0
176
     1
 90
       50
176
     1
 90
       50
176
     1
 90
       50
176
     1
290
     0
176
     1
 90
       50
176
     1
 62
   256
176
     0
 40
1.0
176
     0
 90
        2
176
     1
  1
strokes_ogs.tif
176
     1
290
     0
176
     1
 40
1.0
176
     1
 40
1.0
176
     1
  0
VISUALSTYLE
  5
F1
102
{ACAD_REACTORS
330
EF
102
}
330
EF
100
AcDbVisualStyle
  2
FlatWithEdges
 70
     1
177
     3
291
     1
 70
    58
 90
        2
176
     1
 90
        1
176
     1
 90
        1
176
     1
 90
        2
176
     1
 40
-0.6
176
     1
 40
30.0
176
     1
 62
     7
420
 16777215
176
     1
 90
        1
176
     1
 90
        4
176
     1
 62
     7
176
     1
 62
   257
176
     1
 90
        1
176
     1
 90
        1
176
     1
 40
1.0
176
     1
 90
        0
176
     1
 62
   257
176
     1
 40
1.0
176
     1
 90
        1
176
     1
 90
        6
176
     1
 90
        2
176
     1
 62
     7
176
     1
 90
        5
176
     1
 90
        0
176
     1
 90
        0
176
     1
290
     0
176
     1
 90
        1
176
     1
 40
0.0
176
     1
 90
        0
176
     1
290
     0
176
     1
290
     1
176
     1
290
     1
176
     1
290
     0
176
     1
290
     0
176
     1
290
     0
176
     1
290
     0
176
     1
290
     0
176
     1
290
     0
176
     1
 90
       50
176
     1
 40
0.0
176
     1
 40
1.0
176
     1
 90
        0
176
     1
 62
    18
420
        0
176
     1
 90
       50
176
     1
 90
        3
176
     1
 62
     5
420
      255
176
     1
290
     0
176
     1
 90
       50
176
     1
 90
       50
176
     1
 90
       50
176
     1
290
     0
176
     1
 90
       50
176
     1
 62
   256
176
     0
 40
1.0
176
     0
 90
        2
176
     1
  1
strokes_ogs.tif
176
     1
290
     0
176
     1
 40
1.0
176
     1
 40
1.0
176
     1
  0
VISUALSTYLE
  5
F2
102
{ACAD_REACTORS
330
EF
102
}
330
EF
100
AcDbVisualStyle
  2
Gouraud
 70
     2
177
     3
291
     1
 70
    58
 90
        2
176
     1
 90
        2
176
     1
 90
        1
176
     1
 90
        2
176
     1
 40
-0.6
176
     1
 40
30.0
176
     1
 62
     7
420
 16777215
176
     1
 90
        0
176
     1
 90
        4
176
     1
 62
     7
176
     1
 62
   257
176
     1
 90
        1
176
     1
 90
        1
176
     1
 40
1.0
176
     1
 90
        0
176
     1
 62
     7
176
     1
 40
1.0
176
     1
 90
        1
176
     1
 90
        6
176
     1
 90
        2
176
     1
 62
     7
176
     1
 90
        5
176
     1
 90
        0
176
     1
 90
        0
176
     1
290
     0
176
     1
 90
        1
176
     1
 40
0.0
176
     1
 90
        0
176
     1
290
     0
176
     1
290
     1
176
     1
290
     1
176
     1
290
     0
176
     1
290
     0
176
     1
290
     0
176
     1
290
     0
176
     1
290
     0
176
     1
290
     0
176
     1
 90
       50
176
     1
 40
0.0
176
     1
 40
1.0
176
     1
 90
        0
176
     1
 62
    18
420
        0
176
     1
 90
       50
176
     1
 90
        3
176
     1
 62
     5
420
      255
176
     1
290
     0
176
     1
 90
       50
176
     1
 90
       50
176
     1
 90
       50
176
     1
290
     0
176
     1
 90
       50
176
     1
 62
   256
176
     0
 40
1.0
176
     0
 90
        2
176
     1
  1
strokes_ogs.tif
176
     1
290
     0
176
     1
 40
1.0
176
     1
 40
1.0
176
     1
  0
VISUALSTYLE
  5
F3
102
{ACAD_REACTORS
330
EF
102
}
330
EF
100
AcDbVisualStyle
  2
GouraudWithEdges
 70
     3
177
     3
291
     1
 70
    58
 90
        2
176
     1
 90
        2
176
     1
 90
        1
176
     1
 90
        2
176
     1
 40
-0.6
176
     1
 40
30.0
176
     1
 62
     7
420
 16777215
176
     1
 90
        1
176
     1
 90
        4
176
     1
 62
     7
176
     1
 62
   257
176
     1
 90
        1
176
     1
 90
        1
176
     1
 40
1.0
176
     1
 90
        0
176
     1
 62
   257
176
     1
 40
1.0
176
     1
 90
        1
176
     1
 90
        6
176
     1
 90
        2
176
     1
 62
     7
176
     1
 90
        5
176
     1
 90
        0
176
     1
 90
        0
176
     1
290
     0
176
     1
 90
        1
176
     1
 40
0.0
176
     1
 90
        0
176
     1
290
     0
176
     1
290
     1
176
     1
290
     1
176
     1
290
     0
176
     1
290
     0
176
     1
290
     0
176
     1
290
     0
176
     1
290
     0
176
     1
290
     0
176
     1
 90
       50
176
     1
 40
0.0
176
     1
 40
1.0
176
     1
 90
        0
176
     1
 62
    18
420
        0
176
     1
 90
       50
176
     1
 90
        3
176
     1
 62
     5
420
      255
176
     1
290
     0
176
     1
 90
       50
176
     1
 90
       50
176
     1
 90
       50
176
     1
290
     0
176
     1
 90
       50
176
     1
 62
   256
176
     0
 40
1.0
176
     0
 90
        2
176
     1
  1
strokes_ogs.tif
176
     1
290
     0
176
     1
 40
1.0
176
     1
 40
1.0
176
     1
  0
VISUALSTYLE
  5
35B
102
{ACAD_REACTORS
330
EF
102
}
330
EF
100
AcDbVisualStyle
  2
Hidden
 70
     6
177
     3
291
     0
 70
    58
 90
        1
176
     1
 90
        2
176
     1
 90
        2
176
     1
 90
        0
176
     1
 40
0.6
176
     1
 40
30.0
176
     1
 62
     7
420
 16777215
176
     1
 90
        2
176
     1
 90
        2
176
     1
 62
     7
176
     1
 62
   257
176
     1
 90
        2
176
     1
 90
        1
176
     1
 40
40.0
176
     1
 90
        0
176
     1
 62
   257
176
     1
 40
1.0
176
     1
 90
        1
176
     1
 90
        6
176
     1
 90
        2
176
     1
 62
     7
176
     1
 90
        3
176
     1
 90
        0
176
     1
 90
        0
176
     1
290
     0
176
     1
 90
        1
176
     1
 40
0.0
176
     1
 90
        0
176
     1
290
     0
176
     1
290
     1
176
     1
290
     1
176
     1
290
     0
176
     1
290
     0
176
     1
290
     0
176
     1
290
     0
176
     1
290
     0
176
     1
290
     0
176
     1
 90
       50
176
     1
 40
0.0
176
     1
 40
1.0
176
     1
 90
        0
176
     1
 62
    18
420
        0
176
     1
 90
       50
176
     1
 90
        3
176
     1
 62
     5
420
      255
176
     1
290
     0
176
     1
 90
       50
176
     1
 90
       50
176
     1
 90
       50
176
     1
290
     0
176
     1
 90
       50
176
     1
 62
   256
176
     0
 40
1.0
176
     0
 90
        2
176
     1
  1
strokes_ogs.tif
176
     1
290
     0
176
     1
 40
1.0
176
     1
 40
1.0
176
     1
  0
VISUALSTYLE
  5
35C
102
{ACAD_REACTORS
330
EF
102
}
330
EF
100
AcDbVisualStyle
  2
JitterOff
 70
    20
177
     3
291
     1
 70
    58
 90
        2
176
     0
 90
        2
176
     0
 90
        0
176
     0
 90
        0
176
     0
 40
0.6
176
     0
 40
30.0
176
     0
 62
     7
420
 16777215
176
     0
 90
        1
176
     0
 90
        4
176
     0
 62
     7
176
     0
 62
   257
176
     0
 90
        1
176
     0
 90
        1
176
     0
 40
1.0
176
     0
 90
       10
176
     2
 62
     7
176
     0
 40
1.0
176
     0
 90
        1
176
     0
 90
        6
176
     0
 90
        2
176
     0
 62
     7
176
     0
 90
        5
176
     0
 90
        0
176
     0
 90
        0
176
     0
290
     0
176
     0
 90
        1
176
     0
 40
0.0
176
     0
 90
        0
176
     0
290
     0
176
     0
290
     1
176
     0
290
     1
176
     0
290
     0
176
     0
290
     0
176
     0
290
     0
176
     0
290
     0
176
     0
290
     0
176
     0
290
     0
176
     0
 90
       50
176
     0
 40
0.0
176
     0
 40
1.0
176
     0
 90
        0
176
     0
 62
    18
420
        0
176
     0
 90
       50
176
     0
 90
        3
176
     0
 62
     5
420
      255
176
     0
290
     0
176
     0
 90
       50
176
     0
 90
       50
176
     0
 90
       50
176
     0
290
     0
176
     0
 90
       50
176
     0
 62
   256
176
     0
 40
1.0
176
     0
 90
        2
176
     0
  1
strokes_ogs.tif
176
     0
290
     0
176
     0
 40
1.0
176
     0
 40
1.0
176
     0
  0
VISUALSTYLE
  5
FD
102
{ACAD_REACTORS
330
EF
102
}
330
EF
100
AcDbVisualStyle
  2
Linepattern
 70
    14
177
     3
291
     1
 70
    58
 90
        2
176
     1
 90
        2
176
     1
 90
        1
176
     1
 90
        0
176
     1
 40
-0.6
176
     1
 40
-30.0
176
     1
 62
     7
420
 16777215
176
     1
 90
        1
176
     1
 90
        4
176
     1
 62
     7
176
     1
 62
   257
176
     1
 90
        7
176
     1
 90
        7
176
     1
 40
1.0
176
     1
 90
        8
176
     1
 62
     7
176
     1
 40
1.0
176
     1
 90
        1
176
     1
 90
        6
176
     1
 90
        2
176
     1
 62
     7
176
     1
 90
        5
176
     1
 90
        0
176
     1
 90
        0
176
     1
290
     0
176
     1
 90
        1
176
     1
 40
0.0
176
     1
 90
        0
176
     1
290
     0
176
     1
290
     1
176
     1
290
     1
176
     1
290
     0
176
     1
290
     0
176
     1
290
     0
176
     1
290
     0
176
     1
290
     0
176
     1
290
     0
176
     1
 90
       50
176
     1
 40
0.0
176
     1
 40
1.0
176
     1
 90
        0
176
     1
 62
    18
420
        0
176
     1
 90
       50
176
     1
 90
        3
176
     1
 62
     5
420
      255
176
     1
290
     0
176
     1
 90
       50
176
     1
 90
       50
176
     1
 90
       50
176
     1
290
     0
176
     1
 90
       50
176
     1
 62
   256
176
     0
 40
1.0
176
     0
 90
        2
176
     1
  1
strokes_ogs.tif
176
     1
290
     0
176
     1
 40
1.0
176
     1
 40
1.0
176
     1
  0
VISUALSTYLE
  5
35D
102
{ACAD_REACTORS
330
EF
102
}
330
EF
100
AcDbVisualStyle
  2
OverhangOff
 70
    21
177
     3
291
     1
 70
    58
 90
        2
176
     0
 90
        2
176
     0
 90
        0
176
     0
 90
        0
176
     0
 40
0.6
176
     0
 40
30.0
176
     0
 62
     7
420
 16777215
176
     0
 90
        1
176
     0
 90
        4
176
     0
 62
     7
176
     0
 62
   257
176
     0
 90
        1
176
     0
 90
        1
176
     0
 40
1.0
176
     0
 90
        9
176
     2
 62
     7
176
     0
 40
1.0
176
     0
 90
        1
176
     0
 90
        6
176
     0
 90
        2
176
     0
 62
     7
176
     0
 90
        5
176
     0
 90
        0
176
     0
 90
        0
176
     0
290
     0
176
     0
 90
        1
176
     0
 40
0.0
176
     0
 90
        0
176
     0
290
     0
176
     0
290
     1
176
     0
290
     1
176
     0
290
     0
176
     0
290
     0
176
     0
290
     0
176
     0
290
     0
176
     0
290
     0
176
     0
290
     0
176
     0
 90
       50
176
     0
 40
0.0
176
     0
 40
1.0
176
     0
 90
        0
176
     0
 62
    18
420
        0
176
     0
 90
       50
176
     0
 90
        3
176
     0
 62
     5
420
      255
176
     0
290
     0
176
     0
 90
       50
176
     0
 90
       50
176
     0
 90
       50
176
     0
290
     0
176
     0
 90
       50
176
     0
 62
   256
176
     0
 40
1.0
176
     0
 90
        2
176
     0
  1
strokes_ogs.tif
176
     0
290
     0
176
     0
 40
1.0
176
     0
 40
1.0
176
     0
  0
VISUALSTYLE
  5
F9
102
{ACAD_REACTORS
330
EF
102
}
330
EF
100
AcDbVisualStyle
  2
Realistic
 70
     8
177
     3
291
     0
 70
    58
 90
        2
176
     1
 90
        2
176
     1
 90
        1
176
     1
 90
        0
176
     1
 40
-0.6
176
     1
 40
-30.0
176
     1
 62
     7
420
 16777215
176
     1
 90
        1
176
     1
 90
        0
176
     1
 62
     7
176
     1
 62
   257
176
     1
 90
        1
176
     1
 90
        1
176
     1
 40
1.0
176
     1
 90
        8
176
     1
 62
     8
420
  7895160
176
     1
 40
1.0
176
     1
 90
        1
176
     1
 90
        6
176
     1
 90
        2
176
     1
 62
     7
176
     1
 90
        5
176
     1
 90
        0
176
     1
 90
        0
176
     1
290
     0
176
     1
 90
       13
176
     1
 40
0.0
176
     1
 90
        0
176
     1
290
     0
176
     1
290
     1
176
     1
290
     1
176
     1
290
     0
176
     1
290
     0
176
     1
290
     0
176
     1
290
     0
176
     1
290
     0
176
     1
290
     0
176
     1
 90
       50
176
     1
 40
0.0
176
     1
 40
1.0
176
     1
 90
        0
176
     1
 62
    18
420
        0
176
     1
 90
       50
176
     1
 90
        3
176
     1
 62
     5
420
      255
176
     1
290
     0
176
     1
 90
       50
176
     1
 90
       50
176
     1
 90
       50
176
     1
290
     0
176
     1
 90
       50
176
     1
 62
   256
176
     0
 40
1.0
176
     0
 90
        2
176
     1
  1
strokes_ogs.tif
176
     1
290
     0
176
     1
 40
1.0
176
     1
 40
1.0
176
     1
  0
VISUALSTYLE
  5
363
102
{ACAD_REACTORS
330
EF
102
}
330
EF
100
AcDbVisualStyle
  2
Shaded
 70
    27
177
     3
291
     0
 70
    58
 90
        2
176
     1
 90
        2
176
     1
 90
        1
176
     1
 90
        2
176
     1
 40
0.6
176
     1
 40
30.0
176
     1
 62
     7
420
 16777215
176
     1
 90
        0
176
     1
 90
        4
176
     1
 62
     7
176
     1
 62
   257
176
     1
 90
        1
176
     1
 90
        1
176
     1
 40
1.0
176
     1
 90
        8
176
     1
 62
   257
176
     1
 40
1.0
176
     1
 90
        1
176
     1
 90
        6
176
     1
 90
        2
176
     1
 62
     8
420
  7895160
176
     1
 90
        3
176
     1
 90
        0
176
     1
 90
        0
176
     1
290
     0
176
     1
 90
        5
176
     1
 40
0.0
176
     1
 90
        0
176
     1
290
     0
176
     1
290
     1
176
     1
290
     1
176
     1
290
     0
176
     1
290
     0
176
     1
290
     0
176
     1
290
     0
176
     1
290
     0
176
     1
290
     0
176
     1
 90
       50
176
     1
 40
0.0
176
     1
 40
1.0
176
     1
 90
        0
176
     1
 62
    18
420
        0
176
     1
 90
       50
176
     1
 90
        3
176
     1
 62
     5
420
      255
176
     1
290
     0
176
     1
 90
       50
176
     1
 90
       50
176
     1
 90
       50
176
     1
290
     0
176
     1
 90
       50
176
     1
 62
   256
176
     0
 40
1.0
176
     0
 90
        2
176
     1
  1
strokes_ogs.tif
176
     1
290
     0
176
     1
 40
1.0
176
     1
 40
1.0
176
     1
  0
VISUALSTYLE
  5
362
102
{ACAD_REACTORS
330
EF
102
}
330
EF
100
AcDbVisualStyle
  2
Shaded with edges
 70
    26
177
     3
291
     0
 70
    58
 90
        2
176
     1
 90
        2
176
     1
 90
        1
176
     1
 90
        2
176
     1
 40
0.6
176
     1
 40
30.0
176
     1
 62
     7
420
 16777215
176
     1
 90
        1
176
     1
 90
       10
176
     1
 62
     7
176
     1
 62
   257
176
     1
 90
        2
176
     1
 90
        1
176
     1
 40
1.0
176
     1
 90
        8
176
     1
 62
   257
176
     1
 40
1.0
176
     1
 90
        1
176
     1
 90
        6
176
     1
 90
        2
176
     1
 62
     7
176
     1
 90
        3
176
     1
 90
        0
176
     1
 90
        0
176
     1
290
     0
176
     1
 90
        5
176
     1
 40
0.0
176
     1
 90
        0
176
     1
290
     0
176
     1
290
     1
176
     1
290
     1
176
     1
290
     0
176
     1
290
     0
176
     1
290
     0
176
     1
290
     0
176
     1
290
     0
176
     1
290
     0
176
     1
 90
       50
176
     1
 40
0.0
176
     1
 40
1.0
176
     1
 90
        0
176
     1
 62
    18
420
        0
176
     1
 90
       50
176
     1
 90
        3
176
     1
 62
     5
420
      255
176
     1
290
     0
176
     1
 90
       50
176
     1
 90
       50
176
     1
 90
       50
176
     1
290
     0
176
     1
 90
       50
176
     1
 62
   256
176
     0
 40
1.0
176
     0
 90
        2
176
     1
  1
strokes_ogs.tif
176
     1
290
     0
176
     1
 40
1.0
176
     1
 40
1.0
176
     1
  0
VISUALSTYLE
  5
35F
102
{ACAD_REACTORS
330
EF
102
}
330
EF
100
AcDbVisualStyle
  2
Shades of Gray
 70
    23
177
     3
291
     0
 70
    58
 90
        2
176
     1
 90
        2
176
     1
 90
        3
176
     1
 90
        0
176
     1
 40
0.6
176
     1
 40
30.0
176
     1
 62
     7
420
 16777215
176
     1
 90
        2
176
     1
 90
        2
176
     1
 62
     7
176
     1
 62
     7
176
     1
 90
        1
176
     1
 90
        1
176
     1
 40
40.0
176
     1
 90
        8
176
     1
 62
     7
176
     1
 40
1.0
176
     1
 90
        1
176
     1
 90
        6
176
     1
 90
        2
176
     1
 62
     7
176
     1
 90
        3
176
     1
 90
        0
176
     1
 90
        0
176
     1
290
     0
176
     1
 90
        1
176
     1
 40
0.0
176
     1
 90
        0
176
     1
290
     0
176
     1
290
     1
176
     1
290
     1
176
     1
290
     0
176
     1
290
     0
176
     1
290
     0
176
     1
290
     0
176
     1
290
     0
176
     1
290
     0
176
     1
 90
       50
176
     1
 40
0.0
176
     1
 40
1.0
176
     1
 90
        0
176
     1
 62
    18
420
        0
176
     1
 90
       50
176
     1
 90
        3
176
     1
 62
     5
420
      255
176
     1
290
     0
176
     1
 90
       50
176
     1
 90
       50
176
     1
 90
       50
176
     1
290
     0
176
     1
 90
       50
176
     1
 62
   256
176
     0
 40
1.0
176
     0
 90
        2
176
     1
  1
strokes_ogs.tif
176
     1
290
     0
176
     1
 40
1.0
176
     1
 40
1.0
176
     1
  0
VISUALSTYLE
  5
360
102
{ACAD_REACTORS
330
EF
102
}
330
EF
100
AcDbVisualStyle
  2
Sketchy
 70
    24
177
     3
291
     0
 70
    58
 90
        1
176
     1
 90
        2
176
     1
 90
        2
176
     1
 90
        0
176
     1
 40
0.6
176
     1
 40
30.0
176
     1
 62
     7
420
 16777215
176
     1
 90
        2
176
     1
 90
        2
176
     1
 62
     7
176
     1
 62
     7
176
     1
 90
        1
176
     1
 90
        1
176
     1
 40
40.0
176
     1
 90
       11
176
     1
 62
     7
176
     1
 40
1.0
176
     1
 90
        1
176
     1
 90
        6
176
     1
 90
        2
176
     1
 62
     7
176
     1
 90
        6
176
     1
 90
        0
176
     1
 90
        0
176
     1
290
     0
176
     1
 90
        1
176
     1
 40
0.0
176
     1
 90
        0
176
     1
290
     0
176
     1
290
     1
176
     1
290
     1
176
     1
290
     0
176
     1
290
     0
176
     1
290
     0
176
     1
290
     0
176
     1
290
     0
176
     1
290
     0
176
     1
 90
       50
176
     1
 40
0.0
176
     1
 40
1.0
176
     1
 90
        0
176
     1
 62
    18
420
        0
176
     1
 90
       50
176
     1
 90
        3
176
     1
 62
     5
420
      255
176
     1
290
     0
176
     1
 90
       50
176
     1
 90
       50
176
     1
 90
       50
176
     1
290
     0
176
     1
 90
       50
176
     1
 62
   256
176
     0
 40
1.0
176
     0
 90
        2
176
     1
  1
strokes_ogs.tif
176
     1
290
     0
176
     1
 40
1.0
176
     1
 40
1.0
176
     1
  0
VISUALSTYLE
  5
FC
102
{ACAD_REACTORS
330
EF
102
}
330
EF
100
AcDbVisualStyle
  2
Thicken
 70
    13
177
     3
291
     1
 70
    58
 90
        2
176
     1
 90
        2
176
     1
 90
        1
176
     1
 90
        0
176
     1
 40
-0.6
176
     1
 40
-30.0
176
     1
 62
     7
420
 16777215
176
     1
 90
        1
176
     1
 90
        4
176
     1
 62
     7
176
     1
 62
   257
176
     1
 90
        1
176
     1
 90
        1
176
     1
 40
1.0
176
     1
 90
       12
176
     1
 62
     7
176
     1
 40
1.0
176
     1
 90
        1
176
     1
 90
        6
176
     1
 90
        2
176
     1
 62
     7
176
     1
 90
        5
176
     1
 90
        0
176
     1
 90
        0
176
     1
290
     0
176
     1
 90
        1
176
     1
 40
0.0
176
     1
 90
        0
176
     1
290
     0
176
     1
290
     1
176
     1
290
     1
176
     1
290
     0
176
     1
290
     0
176
     1
290
     0
176
     1
290
     0
176
     1
290
     0
176
     1
290
     0
176
     1
 90
       50
176
     1
 40
0.0
176
     1
 40
1.0
176
     1
 90
        0
176
     1
 62
    18
420
        0
176
     1
 90
       50
176
     1
 90
        3
176
     1
 62
     5
420
      255
176
     1
290
     0
176
     1
 90
       50
176
     1
 90
       50
176
     1
 90
       50
176
     1
290
     0
176
     1
 90
       50
176
     1
 62
   256
176
     0
 40
1.0
176
     0
 90
        2
176
     1
  1
strokes_ogs.tif
176
     1
290
     0
176
     1
 40
1.0
176
     1
 40
1.0
176
     1
  0
VISUALSTYLE
  5
35A
102
{ACAD_REACTORS
330
EF
102
}
330
EF
100
AcDbVisualStyle
  2
Wireframe
 70
     5
177
     3
291
     0
 70
    58
 90
        0
176
     1
 90
        2
176
     1
 90
        0
176
     1
 90
        0
176
     1
 40
0.6
176
     1
 40
30.0
176
     1
 62
     7
420
 16777215
176
     1
 90
        1
176
     1
 90
        4
176
     1
 62
     7
176
     1
 62
   257
176
     1
 90
        1
176
     1
 90
        1
176
     1
 40
1.0
176
     1
 90
        0
176
     1
 62
   257
176
     1
 40
1.0
176
     1
 90
        1
176
     1
 90
        6
176
     1
 90
        2
176
     1
 62
     7
176
     1
 90
        3
176
     1
 90
        0
176
     1
 90
        0
176
     1
290
     0
176
     1
 90
        1
176
     1
 40
0.0
176
     1
 90
        0
176
     1
290
     0
176
     1
290
     1
176
     1
290
     1
176
     1
290
     0
176
     1
290
     0
176
     1
290
     0
176
     1
290
     0
176
     1
290
     0
176
     1
290
     0
176
     1
 90
       50
176
     1
 40
0.0
176
     1
 40
1.0
176
     1
 90
        0
176
     1
 62
    18
420
        0
176
     1
 90
       50
176
     1
 90
        3
176
     1
 62
     5
420
      255
176
     1
290
     0
176
     1
 90
       50
176
     1
 90
       50
176
     1
 90
       50
176
     1
290
     0
176
     1
 90
       50
176
     1
 62
   256
176
     0
 40
1.0
176
     0
 90
        2
176
     1
  1
strokes_ogs.tif
176
     1
290
     0
176
     1
 40
1.0
176
     1
 40
1.0
176
     1
  0
VISUALSTYLE
  5
361
102
{ACAD_REACTORS
330
EF
102
}
330
EF
100
AcDbVisualStyle
  2
X-Ray
 70
    25
177
     3
291
     0
 70
    58
 90
        2
176
     1
 90
        2
176
     1
 90
        1
176
     1
 90
        1
176
     1
 40
0.5
176
     1
 40
30.0
176
     1
 62
     7
420
 16777215
176
     1
 90
        1
176
     1
 90
        0
176
     1
 62
     7
176
     1
 62
   257
176
     1
 90
        1
176
     1
 90
        1
176
     1
 40
1.0
176
     1
 90
        8
176
     1
 62
     7
176
     1
 40
1.0
176
     1
 90
        1
176
     1
 90
        6
176
     1
 90
        2
176
     1
 62
     7
176
     1
 90
        3
176
     1
 90
        0
176
     1
 90
        0
176
     1
290
     0
176
     1
 90
       13
176
     1
 40
0.0
176
     1
 90
        0
176
     1
290
     0
176
     1
290
     1
176
     1
290
     1
176
     1
290
     0
176
     1
290
     0
176
     1
290
     0
176
     1
290
     0
176
     1
290
     0
176
     1
290
     0
176
     1
 90
       50
176
     1
 40
0.0
176
     1
 40
1.0
176
     1
 90
        0
176
     1
 62
    18
420
        0
176
     1
 90
       50
176
     1
 90
        3
176
     1
 62
     5
420
      255
176
     1
290
     0
176
     1
 90
       50
176
     1
 90
       50
176
     1
 90
       50
176
     1
290
     0
176
     1
 90
       50
176
     1
 62
   256
176
     0
 40
1.0
176
     0
 90
        2
176
     1
  1
strokes_ogs.tif
176
     1
290
     0
176
     1
 40
1.0
176
     1
 40
1.0
176
     1
  0
DICTIONARYVAR
  5
146
102
{ACAD_REACTORS
330
5E
102
}
330
5E
100
DictionaryVariables
280
     0
  1
1:1
  0
DICTIONARYVAR
  5
145
102
{ACAD_REACTORS
330
5E
102
}
330
5E
100
DictionaryVariables
280
     0
  1
Standard
  0
DICTIONARYVAR
  5
84
102
{ACAD_REACTORS
330
5E
102
}
330
5E
100
DictionaryVariables
280
     0
  1
Standard
  0
DICTIONARYVAR
  5
5F
102
{ACAD_REACTORS
330
5E
102
}
330
5E
100
DictionaryVariables
280
     0
  1
2
  0
DICTIONARYVAR
  5
63
102
{ACAD_REACTORS
330
5E
102
}
330
5E
100
DictionaryVariables
280
     0
  1
1
  0
DICTIONARYVAR
  5
1AE
102
{ACAD_REACTORS
330
5E
102
}
330
5E
100
DictionaryVariables
280
     0
  1
0
  0
DICTIONARYVAR
  5
1AF
102
{ACAD_REACTORS
330
5E
102
}
330
5E
100
DictionaryVariables
280
     0
  1
0
  0
DICTIONARYVAR
  5
356
102
{ACAD_REACTORS
330
5E
102
}
330
5E
100
DictionaryVariables
280
     0
  1
0
  0
XRECORD
  5
4DE
102
{ACAD_REACTORS
330
34E
102
}
330
34E
100
AcDbXrecord
280
     1
300
MC_VERSION_DATA
 90
       95
310
0600000002000000570000001C000000E404000000000000000000007801936764E5D8CFFA9993818115C460606066E0646662626666706006F218793899F8DE3171E725E6E53B3BBA2878E6951050AF75FEFFFFFF520036E40F2657000000
  0
XRECORD
  5
357
102
{ACAD_REACTORS
330
34E
102
}
330
34E
100
AcDbXrecord
280
     1
300
MCS_DOCUMENT_ID
 90
       60
310
0600000002000000150000001C000000E404000000000000000000007801E34DF1D89DC423F3C077D577013515DE3F1EFF8100005BCF0A7415000000
  0
XRECORD
  5
365
102
{ACAD_REACTORS
330
34E
102
}
330
34E
100
AcDbXrecord
280
     1
300
MCS_PARAMS_DATA
 90
     3313
310
0600000002000000F64B00001C000000E404000000000000000000007801C55C5B6C5CC519DE9D595FD6B9DF494B53970A1A6F4A58DF92A6426A1A1210527090E23EF0543976A2BA75E25CAC160A6DA92AF5A55255A96AD556551F4A49A0CF15A03EC0438190865E482021147221409310B6900B3826B1FB7F7366CEFC73E6
310
1CAFBDDE3D9B07D8FF3F73CEF7DFE6FB67E6ECBA757EA3143929F767A4FCCE8636299AA49C90529036BB402C105929F279912F89C6DEAF6FD8BC69AB14A46C51EAC2B9898909BA39945F872C1FCD848A834A91A13B1AD51D6D5266E8A9FAF627E9AABE92BD45CA6F03BD81A3CFC24D59D990C96408C7E066656E0232E13A03
310
14B0AB01724443F05CC3F08780DFC8F19B03FC710A073DC8486413411B49060E3311A05C24C45064703B01D7CCE196A818E5C59C9268B967CBD6DED68ED59DC52EEB78BEF08E09F8223D745649346F1DE9DB35D0B777C089FC5FC3C8EB60BF1A286CF47FE3467F17CC59C5CD990B0CD948C1A77FB9F5CA0E4F479188EA541E
310
3C25A2E22BC99C8892456878B2821857F6B05492C2AD881B41409C21325211340605C9C6DC6006EC49AC088A0CCBB25B1159B72248E415019155047D5453031360047082A7405D92B72AB0F03379693EAB50870260AC609E2C6F6510BB3D081DFE4EF5EFECD71494A7B3590EC7F12C5B25CB32539229914732934ECE22AF1D
310
D259AC8B7B7649E437DE7BDFA69EADF76EE95186E95A7ED74C032DBFA66A9BF1CEF341B19B78E45DDED9EF56FE29189043E4814BF734E1FF34659991678231F23A51010DA578E8294D435524988818E84710A7B2643B4F7C134F5CC6936D1E4176D01398C4D0A83AE0A6BDC86B0BB5C3E1E8299D70A5A945AC12322FE697C4
310
9C8DC3BBBE34D2BA77FBEEA1BEFEED79D15C120DF70F0FEE1A093EF60C8FF47F4BCAB3B0ED666EDB17F5733E2B445B5E2C298985C507BB8BEBBA3A3A3774178B1D777FA5B36B9D327BBE1ED84C030BC74C9EDAB5B64D88BC405AEF1E1CD9D73A34B88F70838775AD5DDBD1B9B6BBABBB73A0ABA37F5D7BE0E757F57D1DB80F
310
037BFBB60D6D6F1DDED1DA3B3CB47D6FDF2EF8A0AD5933506CEF2FF6F7ADD9D6B56D5DFF9A60D6A95222FF670B51F8295953F8455019945B7EE9315C7A8AFEC352DE9D4B4A5050256AA6D1B42D5F0C265BEED4473538E9811F770DEFDCDD3732B86D706870E4A1D69DC303E45F6349C807B6EFCB8B8692103DC352AE816545
310
9E9E798813B5E9A692C86DD9B1A355A5424F8E0BF018466AF90D150136590E2905AA568F782650907D5A7180140B84AD0159F8156902B8F63BDA8BE1A72E29AF48322EA98B5F578631B6F5489B26184C63434803DB221A328E6B58DEAED6DB808FEB6DC068BD0DF8A4DE065CABB7018B3045EB390B3EAD7704C6EA6DC07518
310
10B79C17773A0DB6C361F03BDD064B22C8C7303844629E5064B47323116EB9039777E096BB70247238880C6E39831B9F221C81B3E543C57019D4736C30574EE2DD4AD73B12B9771099772B997713E97A974DF4CECD5D9582B938116EC00926492C777A7F676A8F441E4C882C98032C983211AE26DE8974E196022EC7174366
310
F9AE62C95769E105B5C4B012E2E82ED8CD3516C5E34D519CF0D1F6765A8551C6CC0505130A3E8ABEC46EF81CED54DC1DA04AB7BC4DB0CA082453194AB29B82400C2B438BA6322032B88FE093B3E13470C11297490C8EEF78E88158D51A8AD42283A38F61044E78707A57F8BBDFE2DF2167F36975041D1DA7FCF59430C35792
310
05112533A905D5D3CAAB4759DBB4CA160F3E9309466F934A1794E7E1154C402D3088858048DCDF7EA3E7FECD5B7A7B376D5480CBF43A7E5E49CCBE6BEB37D945B2402FC65F52AB73B67E7F3A58AE93F37A04F6B7011D680556EBCCA2819BC8A21C320F385BBDB4EE56E6E32CE2CB18E358AD7676B4C7C096B1674BAF7B1278
310
1E906198B0DF8681EA696AF34D20563061CAB731C0DB01185B8B0DCA46538BD880EB0E2C6FC3120B40E62289BC162112587895C11513E18290E892090EBF46A9321968C513E0BB89A0AE8F2431B88A7DFC9E07A7BD0A8E668E3AF3CDEA083A3A8ECFB770A00AB53712018F2859D8DB3D93C2E4D422CB77A40BB73A5DB807A7
310
0857A5727AC8838BE45965D0D3D5B29CBEEF99145F4E558AC0C3E9C23D922EDC0FD285FBA107E7958EEDE721E98018A3E3AAC64E7F5C166D7ABA81B65C437BB31D766C74A6ED6E1FBC2766B7AFDAD87156F9771BF44A2A724C461AB43EE729AAFB710D63E2111810BBA3ABC9AE6037E09AB9BF3AB40BE8309F8736AB64CAB2
310
BE7E3364E5AC569CA6976081AF5A311628A8EF68C5B3A4609E3E86AC3AA156E3E83562F4B5A292099A878C61EB3B549CF92354989982613F016CE7AD5A4D09AA1F5126387AAD451EE384D9C035A925859E39C1AA865EE9A9B8DA21CEE289167F7CF1D4C4BC7A125EC5AED5D8BB0B5A9D9144D134CFA71BF85A8D44BE568348
310
F6AA55A2F3CAEACF6982FD29118CC249D3CBF852A586F278BA70FBD3853B90085793EDE51E143F0AD06C6B4CB2242BDDBDD1419166C2865E85F9CE1648F3CBF54B2E655D5432557AB8C599EEE6E763403914E55050D879E2BFFA30F366F009F0CB378371CA9B99D05949929DD07465EA8797A3808B6B06B9536E64AF9C844C
310
903AF2F3709D3783A318A078E4F37AEBBCEC2DD1B228B722F785DC2DB9D64C476675A63353CC74E937B1FA39BFA7DB58A6AFC19E49583A4A9B6110A6BA038D3C80418F79D091B18A763C1D8524AA5361F194EC4CC4B23EDBA3192533E95398E41423EB6DCA1C239B4DBF91D13F6D762A6897D7013D496371DC8BECCAA7D45E
310
0C251095ABC98AA38E1B6540CD3DACF829EF15C38D27C2B92DA64A071D13897001094F16523EC1C9E5A99FF465029665AB5B13C49AF8984D174EA40B273D389D33BB29A272F6749622C2719C22AC925104534E7A8CF33714555C6B3CF3BE4BE0AF28994CA9B8353E0F28878DD26D8D2F007FBAAD11BD305CEB4EAB35BE08B8
310
B8D678FEB81BD9134AB6ADF10A644BBEF9C2334A81E4EAA6772450D87DD2AF49C178F020A0EBD3055FF292CC5B8AB3FC4114C86BA708ACDB15F49C43C04EBBE7FCBD0CA8A1CB2AF59CC3897035E1E39713E16AD873FE91085A131FFF19C04DBEDBF8D75406FD3B3A2842E56C8ABE82A171BC3BF89ECB0E0F287926BC7B0450
310
75E4DDA3C09F2EEF56BE2579157071BCBBE7881BD93E255BDE7D04B225A07C61BD5230DE1DBA8C1158736B225E412358525F03747D78F79897E472BCCBAF5BAF2BA0DDE3804E9B765F2F035A65DA3D910857134A7A2311AE52DA8D6E0E9C1341735A873DD47F12A16BE2E99BE9C275792B70532835F1AEDB838B7404B509F7
310
74C449519D9AA19EB28205FF5B08785CE3F9307262735AC933693C270155C7C6730AF8E9359ED3808B6B3CA387DDC6734EC9B6F1C897238DE72006D89713F9C2E58B91C6F3388D608DE70CA0A7DA7866D30F8008DC16BEAA2D26A2AAB848F4108A0CF46D0F54D7A73989E2C56D75B6B8431D2F6EAB64C5CD94644C04869974
310
1626C5B6A280378D1BEE62BCE2C3917700E714386FAA719B1D7E7D464DF7DD444F8317374E8CAA75BEF65E19D0F8F0523EC21D7470DCC60B8CAEF29753FC38EF4760CFDBF99B4673F680D0869F6742513F06849341B61DF57EE3400A02734628D75C0DBC8B68A868B98655ECA330208EA3C6F1B52E3DF1E8849E2433679564
310
431A886148B568E62C4406F75F64308EFD2F9D7039EA6D259B5B2BF91AD8396F72B01004EFC5CD6C88F911E8CCDF849C077E5C64E9488747967101058B73015D99FA9B900B808B63FFB117DCC85E50324556799F2F34BC086EC70CD18A4318C0D9FF2AB6807CDB718046B0A4BE0FE8B4D9FFA207EA504E3D7E65FA014C7226
310
B329B0E8D703AAFEBAA304E869379E693123CD68457958A4FF2F11AE86ECFF6119D078F6E7138AD87FF2370F86D6E1E34789702D76FED2134932CCA824CB8C811832A3160D33426421BD940847AF6F0C11D33DEECB1CFE9B7175D1F926045DE5BD8DBFBDBE9C081764D0049324E6DDB40A8607F34A225C4D16463974B5B836
310
F3B3A32E193EACE499B49986C93A780A6DA631A981D7A6CD34012EAECDFCF23937B23F51B26D337F80CCDBCC36A5C0ECD07DE7E7A7236D663D8D6033A419D0536D33E07F56B8C4CA7C0D48229F9610695A461A0883CE7B494E8DD95B004DF38E8247AB09FE45AC1A52EDAC32A0861DD8DA85D8A76276989D08579353913989
310
700119397510D9BB4CAB9DF096393711B4263ECE4B176E7EBA700B3C389DB3F0B5335AA6A7234288EA142D784A9083AFB414616018456CF64C3293C4CD2F49D3E5A5F0410CEE3E0F2E6A6FEA11580893E29AEE529C2FC11C4DF48D4AA628982DB44A422820F8563073C8F989CF2240392BED74F7768B819FDEDE6E09E0E29A
310
EE0AFA030B3CB273954C91D5916E83CC9BEE074FAB1E6B73B11CFB6CBEB73B4C23589D2D05F4CC9AAE2E4C768646F0614DBB4BD40606BDCC4B726A4DF72640A7DD749797013521AB4ED3C5971C1BF2225712D922FD192CAA82F186C253F467B664EED8B163100EA1787299890C1D4314EEF90B040C236113FD72905624B8F0
310
99FF03A92412CEF64B0000
  0
DICTIONARY
  5
358
330
22
100
AcDbDictionary
280
     1
281
     1
  3
CSD_PLOT_CONFIG
360
359
  0
DICTIONARY
  5
4DF
330
7F
100
AcDbDictionary
280
     1
281
     1
  3
ACAD_ROUNDTRIP_2008_TABLESTYLE_CELLSTYLEMAP
360
4E0
  0
LAYOUTPRINTCONFIG
  5
359
102
{ACAD_REACTORS
330
358
102
}
330
358
100
AcDbEntity
  8
0
160
                 8
310
0800000000000000
100
CAcLayoutPrintConfig
 93
        0
  0
CELLSTYLEMAP
  5
4E0
102
{ACAD_REACTORS
330
4DF
102
}
330
4DF
100
AcDbCellStyleMap
 90
        3
300
CELLSTYLE
  1
TABLEFORMAT_BEGIN
 90
        5
170
     1
 91
        0
 92
    32768
 62
   257
 93
        1
300
CONTENTFORMAT
  1
CONTENTFORMAT_BEGIN
 90
        0
 91
        0
 92
      512
 93
        0
300

 40
0.0
140
1.0
 94
        5
 62
     0
340
11
144
6.0
309
CONTENTFORMAT_END
171
     1
301
MARGIN
  1
CELLMARGIN_BEGIN
 40
1.5
 40
1.5
 40
1.5
 40
1.5
 40
4.5
 40
4.5
309
CELLMARGIN_END
 94
        6
 95
        1
302
GRIDFORMAT
  1
GRIDFORMAT_BEGIN
 90
        0
 91
        1
 62
     0
 92
       -2
340
14
 93
        0
 40
1.125
309
GRIDFORMAT_END
 95
        2
302
GRIDFORMAT
  1
GRIDFORMAT_BEGIN
 90
        0
 91
        1
 62
     0
 92
       -2
340
14
 93
        0
 40
1.125
309
GRIDFORMAT_END
 95
        4
302
GRIDFORMAT
  1
GRIDFORMAT_BEGIN
 90
        0
 91
        1
 62
     0
 92
       -2
340
14
 93
        0
 40
1.125
309
GRIDFORMAT_END
 95
        8
302
GRIDFORMAT
  1
GRIDFORMAT_BEGIN
 90
        0
 91
        1
 62
     0
 92
       -2
340
14
 93
        0
 40
1.125
309
GRIDFORMAT_END
 95
       16
302
GRIDFORMAT
  1
GRIDFORMAT_BEGIN
 90
        0
 91
        1
 62
     0
 92
       -2
340
14
 93
        0
 40
1.125
309
GRIDFORMAT_END
 95
       32
302
GRIDFORMAT
  1
GRIDFORMAT_BEGIN
 90
        0
 91
        1
 62
     0
 92
       -2
340
14
 93
        0
 40
1.125
309
GRIDFORMAT_END
309
TABLEFORMAT_END
  1
CELLSTYLE_BEGIN
 90
        1
 91
        1
300
_TITLE
309
CELLSTYLE_END
300
CELLSTYLE
  1
TABLEFORMAT_BEGIN
 90
        5
170
     1
 91
        0
 92
        0
 62
   257
 93
        1
300
CONTENTFORMAT
  1
CONTENTFORMAT_BEGIN
 90
        0
 91
        0
 92
      512
 93
        0
300

 40
0.0
140
1.0
 94
        5
 62
     0
340
11
144
4.5
309
CONTENTFORMAT_END
171
     1
301
MARGIN
  1
CELLMARGIN_BEGIN
 40
1.5
 40
1.5
 40
1.5
 40
1.5
 40
4.5
 40
4.5
309
CELLMARGIN_END
 94
        6
 95
        1
302
GRIDFORMAT
  1
GRIDFORMAT_BEGIN
 90
        0
 91
        1
 62
     0
 92
       -2
340
14
 93
        0
 40
1.125
309
GRIDFORMAT_END
 95
        2
302
GRIDFORMAT
  1
GRIDFORMAT_BEGIN
 90
        0
 91
        1
 62
     0
 92
       -2
340
14
 93
        0
 40
1.125
309
GRIDFORMAT_END
 95
        4
302
GRIDFORMAT
  1
GRIDFORMAT_BEGIN
 90
        0
 91
        1
 62
     0
 92
       -2
340
14
 93
        0
 40
1.125
309
GRIDFORMAT_END
 95
        8
302
GRIDFORMAT
  1
GRIDFORMAT_BEGIN
 90
        0
 91
        1
 62
     0
 92
       -2
340
14
 93
        0
 40
1.125
309
GRIDFORMAT_END
 95
       16
302
GRIDFORMAT
  1
GRIDFORMAT_BEGIN
 90
        0
 91
        1
 62
     0
 92
       -2
340
14
 93
        0
 40
1.125
309
GRIDFORMAT_END
 95
       32
302
GRIDFORMAT
  1
GRIDFORMAT_BEGIN
 90
        0
 91
        1
 62
     0
 92
       -2
340
14
 93
        0
 40
1.125
309
GRIDFORMAT_END
309
TABLEFORMAT_END
  1
CELLSTYLE_BEGIN
 90
        2
 91
        1
300
_HEADER
309
CELLSTYLE_END
300
CELLSTYLE
  1
TABLEFORMAT_BEGIN
 90
        5
170
     1
 91
        0
 92
        0
 62
   257
 93
        1
300
CONTENTFORMAT
  1
CONTENTFORMAT_BEGIN
 90
        0
 91
        0
 92
      512
 93
        0
300

 40
0.0
140
1.0
 94
        2
 62
     0
340
11
144
4.5
309
CONTENTFORMAT_END
171
     1
301
MARGIN
  1
CELLMARGIN_BEGIN
 40
1.5
 40
1.5
 40
1.5
 40
1.5
 40
4.5
 40
4.5
309
CELLMARGIN_END
 94
        6
 95
        1
302
GRIDFORMAT
  1
GRIDFORMAT_BEGIN
 90
        0
 91
        1
 62
     0
 92
       -2
340
14
 93
        0
 40
1.125
309
GRIDFORMAT_END
 95
        2
302
GRIDFORMAT
  1
GRIDFORMAT_BEGIN
 90
        0
 91
        1
 62
     0
 92
       -2
340
14
 93
        0
 40
1.125
309
GRIDFORMAT_END
 95
        4
302
GRIDFORMAT
  1
GRIDFORMAT_BEGIN
 90
        0
 91
        1
 62
     0
 92
       -2
340
14
 93
        0
 40
1.125
309
GRIDFORMAT_END
 95
        8
302
GRIDFORMAT
  1
GRIDFORMAT_BEGIN
 90
        0
 91
        1
 62
     0
 92
       -2
340
14
 93
        0
 40
1.125
309
GRIDFORMAT_END
 95
       16
302
GRIDFORMAT
  1
GRIDFORMAT_BEGIN
 90
        0
 91
        1
 62
     0
 92
       -2
340
14
 93
        0
 40
1.125
309
GRIDFORMAT_END
 95
       32
302
GRIDFORMAT
  1
GRIDFORMAT_BEGIN
 90
        0
 91
        1
 62
     0
 92
       -2
340
14
 93
        0
 40
1.125
309
GRIDFORMAT_END
309
TABLEFORMAT_END
  1
CELLSTYLE_BEGIN
 90
        3
 91
        2
300
_DATA
309
CELLSTYLE_END
  0
ENDSEC
  0
EOF
